<svg width="1920" height="1080" viewBox="0 0 1920 1080" fill="none" xmlns="http://www.w3.org/2000/svg">
<rect width="1920" height="1080" fill="white"/>
<rect x="97" y="142" width="835" height="795" rx="36" fill="#E2CCFF"/>
<path d="M293.06 396.649L162.37 698.479H859.38L725.579 390.425L509.319 496.221L293.06 396.649Z" fill="white" stroke="black" stroke-width="15"/>
<path d="M168.594 700.034H860.936C796.628 669.437 637.83 608.552 517.098 609.797C396.366 611.041 234.457 670.474 168.594 700.034Z" fill="#B288F8" stroke="black" stroke-width="15"/>
<path fill-rule="evenodd" clip-rule="evenodd" d="M351.592 425.835C341.03 440.918 327.831 450.878 313.278 455.494C297.174 460.602 279.105 459.263 260.663 450.708L258.724 455.317C278.07 464.249 297.344 465.793 314.79 460.26C330.67 455.223 344.78 444.402 355.907 428.384L351.592 425.835Z" fill="#9157F3"/>
<path fill-rule="evenodd" clip-rule="evenodd" d="M377.612 438.277C352.444 479.213 297.505 499.029 249.661 479.829L247.72 484.443C297.853 504.613 355.499 483.9 381.922 440.823L377.612 438.277Z" fill="#9157F3"/>
<path fill-rule="evenodd" clip-rule="evenodd" d="M400.327 453.094C369.136 508.808 295.497 533.791 237.075 503.211L234.934 507.762C295.671 539.473 371.999 513.5 404.524 455.816L400.327 453.094Z" fill="#9157F3"/>
<path fill-rule="evenodd" clip-rule="evenodd" d="M665.957 422.687C675.625 437.627 688.008 447.837 701.931 453.05C717.752 458.975 735.866 458.562 754.722 450.961L756.423 455.663C736.645 463.594 717.317 464.151 700.177 457.733C685.034 452.063 671.835 441.036 661.66 425.245L665.957 422.687Z" fill="#9157F3"/>
<path fill-rule="evenodd" clip-rule="evenodd" d="M640.475 437.973C665.447 478.674 719.83 499.284 768.09 480.249L769.792 484.957C719.195 504.845 662.147 483.199 636.031 440.301L640.475 437.973Z" fill="#9157F3"/>
<path fill-rule="evenodd" clip-rule="evenodd" d="M615.727 449.282C631.072 476.981 658.298 498.167 688.359 508.945C721.126 520.694 756.689 519.903 783.45 502.133L785.256 506.946C757.011 525.17 720.049 525.619 686.671 513.652C655.809 502.587 627.533 480.761 611.48 451.947L615.727 449.282Z" fill="#9157F3"/>
<path d="M177.656 548.249L252.608 584.903" stroke="black" stroke-width="15" stroke-linecap="round"/>
<path d="M766.03 584.903L843.822 549.119" stroke="black" stroke-width="15" stroke-linecap="round"/>
<path d="M479.759 566.234L500.894 584.607" stroke="black" stroke-width="15" stroke-linecap="round"/>
<path d="M527.603 584.606L548.738 566.234" stroke="black" stroke-width="15" stroke-linecap="round"/>
<path d="M162.37 701.59L862.747 701.553" stroke="black" stroke-width="15" stroke-linecap="round"/>
<path d="M291.503 396.649L162.37 700.035" stroke="black" stroke-width="15" stroke-linecap="round"/>
<path d="M862.491 701.59L728.69 390.425" stroke="black" stroke-width="15" stroke-linecap="round"/>
<path d="M293.059 395.093L512.431 497.777" stroke="black" stroke-width="15" stroke-linecap="round"/>
<path d="M515.543 496.221L727.135 390.425" stroke="black" stroke-width="15" stroke-linecap="round"/>
<path d="M165.482 692.255C453.025 586.356 594.662 580.087 865.603 700.035" stroke="black" stroke-width="15"/>
<path d="M1044.44 630L1074.62 448.182H1197.14L1191.81 479.876H1107.74L1100.64 523.2H1178.41L1173.08 554.893H1095.31L1088.21 598.306H1172.63L1167.31 630H1044.44ZM1247.94 551.165L1234.8 630H1197.07L1219.8 493.636H1255.75L1251.85 517.695H1253.36C1257.68 509.705 1263.77 503.402 1271.65 498.786C1279.58 494.169 1288.6 491.861 1298.72 491.861C1308.19 491.861 1316.09 493.932 1322.43 498.075C1328.82 502.218 1333.32 508.107 1335.92 515.742C1338.58 523.377 1339.03 532.521 1337.25 543.175L1322.69 630H1284.87L1298.28 549.922C1299.64 541.577 1298.57 535.066 1295.08 530.391C1291.65 525.656 1286.12 523.288 1278.48 523.288C1273.39 523.288 1268.72 524.383 1264.45 526.573C1260.19 528.763 1256.61 531.959 1253.71 536.161C1250.87 540.304 1248.95 545.305 1247.94 551.165ZM1402.39 632.219C1391.98 632.219 1383.01 629.556 1375.49 624.229C1368.04 618.844 1362.71 610.942 1359.51 600.526C1356.38 590.05 1356.08 577.206 1358.63 561.996C1361.23 546.371 1365.91 533.379 1372.65 523.022C1379.4 512.605 1387.39 504.822 1396.62 499.673C1405.86 494.465 1415.47 491.861 1425.48 491.861C1433.05 491.861 1439.18 493.163 1443.85 495.767C1448.59 498.312 1452.23 501.508 1454.77 505.355C1457.32 509.143 1459.09 512.872 1460.1 516.541H1461.25L1472.71 448.182H1510.44L1480.25 630H1442.97L1446.61 608.161H1445.01C1442.64 611.948 1439.5 615.707 1435.6 619.435C1431.75 623.105 1427.07 626.153 1421.57 628.58C1416.12 631.006 1409.73 632.219 1402.39 632.219ZM1419.08 602.124C1425.12 602.124 1430.57 600.466 1435.42 597.152C1440.27 593.778 1444.36 589.073 1447.67 583.036C1450.98 576.999 1453.29 569.927 1454.6 561.818C1455.96 553.71 1455.99 546.667 1454.68 540.689C1453.38 534.711 1450.84 530.095 1447.05 526.839C1443.32 523.584 1438.38 521.957 1432.22 521.957C1426.01 521.957 1420.5 523.643 1415.71 527.017C1410.98 530.391 1407.04 535.066 1403.9 541.044C1400.83 547.022 1398.64 553.946 1397.33 561.818C1396.03 569.749 1395.94 576.763 1397.07 582.859C1398.19 588.896 1400.59 593.63 1404.26 597.063C1407.93 600.437 1412.87 602.124 1419.08 602.124ZM1573.05 632.663C1559.08 632.663 1547.51 629.822 1538.34 624.141C1529.16 618.4 1522.71 610.291 1518.98 599.815C1515.31 589.28 1514.69 576.822 1517.12 562.44C1519.48 548.413 1524.25 536.102 1531.41 525.508C1538.63 514.914 1547.69 506.657 1558.58 500.739C1569.47 494.82 1581.6 491.861 1594.98 491.861C1603.97 491.861 1612.11 493.311 1619.39 496.211C1626.73 499.052 1632.83 503.372 1637.68 509.173C1642.53 514.914 1645.85 522.105 1647.62 530.746C1649.46 539.387 1649.43 549.508 1647.53 561.108L1645.85 571.495H1530.79L1534.43 548.058H1613.97C1614.86 542.612 1614.51 537.789 1612.91 533.587C1611.31 529.384 1608.65 526.1 1604.92 523.732C1601.19 521.306 1596.6 520.092 1591.16 520.092C1585.6 520.092 1580.39 521.454 1575.53 524.176C1570.68 526.899 1566.6 530.479 1563.28 534.918C1560.03 539.298 1557.93 544.062 1556.98 549.212L1552.81 572.472C1551.62 579.633 1551.86 585.581 1553.52 590.316C1555.23 595.051 1558.19 598.602 1562.39 600.969C1566.6 603.278 1571.92 604.432 1578.37 604.432C1582.58 604.432 1586.51 603.84 1590.18 602.656C1593.91 601.473 1597.23 599.727 1600.13 597.418C1603.03 595.051 1605.39 592.121 1607.23 588.629L1641.76 590.938C1638.57 599.342 1633.71 606.681 1627.2 612.955C1620.69 619.169 1612.85 624.022 1603.68 627.514C1594.56 630.947 1584.35 632.663 1573.05 632.663ZM1660.92 630L1683.64 493.636H1720.31L1716.31 517.429H1717.73C1721.64 508.965 1726.88 502.573 1733.45 498.253C1740.08 493.873 1747.21 491.683 1754.84 491.683C1756.74 491.683 1758.72 491.802 1760.79 492.038C1762.92 492.216 1764.82 492.512 1766.47 492.926L1760.79 526.573C1759.13 525.981 1756.77 525.508 1753.69 525.153C1750.67 524.738 1747.8 524.531 1745.08 524.531C1739.57 524.531 1734.45 525.745 1729.72 528.171C1724.98 530.539 1720.99 533.853 1717.73 538.114C1714.54 542.376 1712.44 547.288 1711.43 552.852L1698.74 630H1660.92Z" fill="black"/>
</svg>
