<svg width="1920" height="1080" viewBox="0 0 1920 1080" fill="none" xmlns="http://www.w3.org/2000/svg">
<g clip-path="url(#clip0_67_63)">
<rect width="1920" height="1080" fill="white"/>
<path d="M1409.33 276.338L1416.08 311.797L1409.33 348.946C1391.88 351.197 1356.31 355.7 1353.61 355.7C1350.91 355.7 1331.1 338.817 1321.53 330.373L1331.66 276.338C1303.29 266.883 1293.95 225.121 1292.82 205.419C1286.07 124.368 1340.1 114.239 1350.23 114.239C1360.36 114.239 1424.53 114.239 1432.97 181.781C1439.73 235.812 1420.02 267.332 1409.33 276.338Z" fill="white"/>
<path fill-rule="evenodd" clip-rule="evenodd" d="M1390.82 125.749C1408.26 133.763 1425.56 149.725 1429.62 182.199C1436.26 235.32 1416.82 265.621 1407.16 273.757L1405.64 275.031L1412.65 311.812L1406.45 345.913C1397.82 347.024 1385.91 348.535 1375.52 349.816C1369.82 350.519 1364.59 351.153 1360.62 351.608C1358.63 351.834 1356.97 352.016 1355.72 352.142C1355.1 352.205 1354.6 352.253 1354.22 352.282C1354.14 352.29 1354.08 352.293 1354.02 352.301C1353.9 352.238 1353.74 352.156 1353.55 352.042C1352.86 351.642 1351.93 351.019 1350.77 350.186C1348.47 348.531 1345.5 346.205 1342.27 343.583C1336.45 338.847 1329.92 333.243 1325.2 329.107L1335.52 274.068L1332.73 273.135C1319.89 268.857 1311 257.125 1305.13 243.393C1299.29 229.739 1296.74 214.77 1296.19 205.227L1296.19 205.182L1296.18 205.138C1292.88 165.442 1304.46 143.759 1317.47 131.934C1330.66 119.943 1345.83 117.617 1350.23 117.617C1355.23 117.617 1373.17 117.632 1390.82 125.749ZM1350.26 110.862H1350.23C1344.5 110.862 1327.59 113.599 1312.92 126.938C1298.07 140.437 1286.02 164.331 1289.45 205.656C1290.04 215.814 1292.72 231.554 1298.92 246.048C1304.72 259.61 1313.86 272.675 1327.81 278.505L1317.85 331.636L1319.29 332.906C1324.1 337.143 1331.48 343.509 1338.01 348.823C1341.27 351.475 1344.36 353.901 1346.83 355.675C1348.06 356.556 1349.19 357.319 1350.14 357.874C1350.62 358.152 1351.11 358.415 1351.59 358.619C1351.97 358.778 1352.73 359.078 1353.61 359.078C1354.53 359.078 1357.54 358.759 1361.39 358.319C1365.39 357.86 1370.64 357.223 1376.35 356.519C1387.77 355.112 1401.03 353.423 1409.76 352.297L1412.21 351.979L1419.52 311.783L1413 277.575C1424.84 266.295 1442.9 234.031 1436.32 181.362C1431.94 146.295 1412.94 128.482 1393.65 119.613C1374.61 110.862 1355.44 110.862 1350.26 110.862Z" fill="black"/>
<path d="M1364.27 276.338C1348.54 281.582 1335.33 278.523 1329.87 276.338L1326.59 295.995C1347.56 293.377 1359.9 282.345 1364.27 276.338Z" fill="black"/>
<path d="M1368.81 333.751C1402.58 333.751 1416.65 313.486 1421.15 303.358L1432.97 306.731L1358.67 691.722H1346.85H1166.18L1279.31 326.996L1318.15 303.358H1323.22C1325.47 313.486 1335.04 333.751 1368.81 333.751Z" fill="white"/>
<path fill-rule="evenodd" clip-rule="evenodd" d="M1419.26 299.302L1418.07 301.984C1413.93 311.286 1400.86 330.373 1368.81 330.373C1352.65 330.373 1342.67 325.548 1336.47 319.863C1330.22 314.123 1327.53 307.213 1326.51 302.624L1325.92 299.98H1317.2L1276.46 324.774L1161.6 695.1H1361.46L1436.87 304.335L1419.26 299.302ZM1320.61 306.731C1322.2 312.068 1325.49 318.949 1331.91 324.841C1339.51 331.818 1351.19 337.128 1368.81 337.128C1401.61 337.128 1416.97 318.812 1422.95 307.383L1429.07 309.131L1355.89 688.345H1170.76L1282.16 329.214L1319.1 306.731H1320.61Z" fill="black"/>
<path d="M1365.43 504.293C1374.88 443.507 1407.64 343.879 1422.84 301.669C1451.54 306.731 1515.37 326.318 1541.04 364.144C1566.7 401.966 1601.26 527.368 1615.33 585.344C1630.53 637.687 1630.53 695.1 1573.12 695.1H1313.08C1286.07 642.753 1294.51 617.426 1302.95 607.294C1309.71 599.191 1339.67 592.658 1353.81 590.41C1357.48 560.161 1361.52 529.394 1365.43 504.293Z" fill="white"/>
<path fill-rule="evenodd" clip-rule="evenodd" d="M1420.62 297.847L1423.43 298.343C1438.03 300.917 1461.43 307.157 1484.47 317.541C1507.43 327.896 1530.48 342.569 1543.83 362.248C1550.47 372.029 1557.55 387.253 1564.64 405.273C1571.75 423.357 1578.94 444.469 1585.76 466.175C1599.38 509.552 1611.55 555.429 1618.6 584.474C1626.23 610.794 1630.23 638.913 1624.73 660.677C1621.96 671.65 1616.73 681.187 1608.17 687.96C1599.6 694.737 1588.04 698.477 1573.12 698.477H1311.03L1310.08 696.648C1282.78 643.746 1290.66 616.771 1300.36 605.131C1302.57 602.48 1306.31 600.295 1310.38 598.473C1314.56 596.595 1319.54 594.899 1324.67 593.414C1333.81 590.766 1343.65 588.714 1350.76 587.492C1354.36 558.043 1358.29 528.235 1362.09 503.775C1371.6 442.633 1404.47 342.735 1419.66 300.525L1420.62 297.847ZM1425.05 305.513C1409.47 349.134 1377.97 445.632 1368.77 504.812C1364.87 529.861 1360.83 560.584 1357.16 590.818L1356.86 593.343L1354.34 593.743C1347.37 594.854 1336.49 597.021 1326.55 599.898C1321.58 601.339 1316.92 602.935 1313.14 604.635C1309.25 606.383 1306.71 608.057 1305.55 609.457C1298.45 617.978 1289.57 641.202 1315.15 691.722H1573.12C1586.9 691.722 1596.87 688.286 1603.98 682.66C1611.09 677.035 1615.68 668.947 1618.18 659.022C1623.23 639.017 1619.64 612.29 1612.09 586.285L1612.07 586.211L1612.05 586.14C1605.03 557.21 1592.89 511.437 1579.31 468.2C1572.52 446.577 1565.38 425.627 1558.35 407.747C1551.3 389.805 1544.44 375.169 1538.24 366.04C1525.93 347.894 1504.23 333.866 1481.69 323.7C1460.65 314.212 1439.27 308.272 1425.05 305.513Z" fill="black"/>
<path d="M1255.67 504.293C1266.48 436.752 1302.95 341.065 1319.84 301.669C1300.14 302.795 1253.99 312.134 1226.97 340.502C1193.2 375.961 1139.16 507.67 1129.03 521.176C1108.77 544.819 953.301 607.764 950.045 619.115C936.539 637.687 951.734 686.656 968.621 695.1H1233.72C1236.54 658.515 1244.87 571.834 1255.67 504.293Z" fill="white"/>
<path fill-rule="evenodd" clip-rule="evenodd" d="M1325.09 297.984L1322.94 302.998C1306.08 342.357 1269.75 437.718 1259.01 504.826C1248.22 572.242 1239.9 658.818 1237.09 695.359L1236.85 698.477H967.821L967.11 698.118C962.026 695.578 957.496 690.267 953.786 683.994C950.019 677.628 946.853 669.843 944.675 661.788C942.498 653.734 941.276 645.272 941.498 637.539C941.716 630.04 943.301 622.881 947.049 617.5C947.371 616.771 947.827 616.163 948.231 615.697C948.79 615.049 949.475 614.412 950.223 613.797C951.715 612.567 953.708 611.205 956.06 609.746C960.785 606.82 967.303 603.287 974.995 599.343C987.697 592.832 1003.82 585.096 1020.79 576.952C1024.39 575.219 1028.04 573.471 1031.7 571.712C1052.61 561.654 1073.97 551.244 1091.38 541.882C1100.07 537.201 1107.73 532.809 1113.83 528.872C1119.92 524.928 1124.18 521.61 1126.39 519.066C1127.46 517.614 1129.26 514.385 1131.75 509.467C1134.24 504.545 1137.3 498.186 1140.81 490.787C1142.76 486.676 1144.84 482.251 1147.04 477.577C1152.75 465.46 1159.24 451.698 1166.1 437.596C1175.61 418.046 1185.88 397.763 1195.91 380.124C1205.89 362.559 1215.77 347.361 1224.52 338.176C1238.54 323.459 1257.38 313.801 1275.04 307.679C1292.72 301.554 1309.49 298.877 1319.65 298.295L1325.09 297.984ZM1277.25 314.06C1260.16 319.986 1242.42 329.181 1229.41 342.831C1221.28 351.375 1211.74 365.94 1201.78 383.464C1191.86 400.914 1181.66 421.05 1172.17 440.551C1165.33 454.613 1158.88 468.311 1153.17 480.418C1150.97 485.099 1148.87 489.546 1146.91 493.683C1143.4 501.086 1140.31 507.511 1137.78 512.518C1135.29 517.425 1133.21 521.236 1131.73 523.206L1131.67 523.291L1131.6 523.376C1128.72 526.732 1123.71 530.52 1117.49 534.546C1111.18 538.619 1103.35 543.111 1094.58 547.833C1077.02 557.277 1055.52 567.746 1034.63 577.797C1030.95 579.567 1027.29 581.322 1023.68 583.056C1006.71 591.199 990.689 598.887 978.076 605.353C970.421 609.275 964.099 612.708 959.618 615.486C957.37 616.882 955.671 618.06 954.519 619.008C953.941 619.485 953.567 619.848 953.345 620.107C953.297 620.163 953.26 620.207 953.238 620.241L953.126 620.618L952.778 621.1C949.964 624.97 948.453 630.736 948.249 637.732C948.049 644.668 949.149 652.46 951.193 660.026C953.238 667.588 956.189 674.791 959.6 680.557C962.844 686.042 966.292 689.874 969.469 691.722H1230.6C1233.63 653.474 1241.81 569.575 1252.34 503.76C1262.77 438.588 1296.85 347.661 1314.54 305.506C1304.89 306.565 1291.39 309.161 1277.25 314.06Z" fill="black"/>
<path d="M1459.99 565.08L1434.66 462.079L1441.41 563.391L1315.99 595.125C1306.55 597.513 1297.92 603.383 1295.18 612.723C1286.69 641.613 1299.57 675.069 1309.71 686.656C1299.37 674.835 1299.58 617.426 1311.39 608.983C1320.85 602.228 1438.04 580.278 1495.45 570.146L1459.99 565.08Z" fill="black"/>
<path d="M1208.39 435.063L1145.92 695.1H1118.9L1208.39 435.063Z" fill="black"/>
<path d="M1191.51 695.1C1191.51 649.171 1259.61 635.435 1292.82 634.31C1292.82 657.274 1304.64 679.901 1314.77 695.1H1191.51Z" fill="white"/>
<path fill-rule="evenodd" clip-rule="evenodd" d="M1296.2 630.817L1292.71 630.936C1275.83 631.506 1250.04 635.273 1228.35 644.812C1206.76 654.311 1188.13 670.091 1188.13 695.1V698.477H1321.08L1317.58 693.226C1307.55 678.176 1296.2 656.245 1296.2 634.31V630.817ZM1289.53 637.839C1290.52 657.989 1299.73 677.409 1308.59 691.722H1195.02C1196.59 672.654 1211.45 659.629 1231.07 650.993C1250.35 642.516 1273.28 638.757 1289.53 637.839Z" fill="black"/>
<path d="M863.93 695.1C863.93 654.274 917.555 640.376 946.668 639.376C946.668 659.789 960.022 685.593 966.932 695.1H863.93Z" fill="white"/>
<path fill-rule="evenodd" clip-rule="evenodd" d="M950.045 635.88L946.553 636.002C931.643 636.513 910.443 640.313 892.846 649.297C875.238 658.285 860.553 672.887 860.553 695.1V698.477H973.561L969.662 693.115C966.392 688.612 961.452 680.027 957.333 670.039C953.201 660.022 950.045 648.942 950.045 639.376V635.88ZM943.413 642.92C944.061 652.797 947.275 663.37 951.086 672.613C954.119 679.972 957.607 686.664 960.674 691.722H867.444C868.82 674.928 880.451 663.207 895.917 655.311C911.145 647.538 929.503 643.827 943.413 642.92Z" fill="black"/>
<path d="M1397.51 223.995L1416.08 303.354C1452.56 303.354 1492.63 323.618 1507.27 333.751C1515.71 281.404 1483.63 259.455 1465.05 218.929C1446.48 178.403 1461.68 83.8447 1367.12 83.8447C1291.47 83.8447 1280.44 151.388 1284.38 185.158C1318.15 175.7 1337.85 140.692 1343.48 124.368C1346.85 132.812 1375.56 208.797 1385.69 190.224C1395.82 171.649 1411.02 166.582 1419.46 190.224C1426.22 209.134 1407.64 220.618 1397.51 223.995Z" fill="black"/>
<path d="M1260.74 318.552C1283.7 295.588 1292.82 242.567 1294.51 218.929C1299.91 258.103 1321.53 273.524 1331.66 276.338L1326.59 303.354C1296.87 302.006 1270.31 312.923 1260.74 318.552Z" fill="black"/>
<path d="M1549.48 695.1C1557.58 641.065 1598.45 606.731 1618.71 597.162C1629.66 641.313 1627.15 695.1 1579.87 695.1H1549.48Z" fill="black"/>
<path d="M1034.04 448.147L1128.32 662.222C1133.05 672.969 1125.18 685.034 1113.44 685.034H825.77C819.163 685.034 813.213 681.038 810.716 674.92L723.318 460.846C718.951 450.15 726.819 438.44 738.372 438.44H1019.16C1025.61 438.44 1031.44 442.247 1034.04 448.147Z" fill="white"/>
<path fill-rule="evenodd" clip-rule="evenodd" d="M1019.16 441.818C1024.27 441.818 1028.89 444.832 1030.95 449.506L1125.22 663.584C1128.98 672.098 1122.74 681.657 1113.44 681.657H825.77C820.536 681.657 815.821 678.49 813.843 673.646L726.445 459.568C722.985 451.095 729.218 441.818 738.372 441.818H1019.16ZM1037.13 446.784C1034 439.662 1026.95 435.063 1019.16 435.063H738.372C724.42 435.063 714.918 449.206 720.192 462.119L807.59 676.198C810.606 683.586 817.791 688.412 825.77 688.412H1113.44C1127.62 688.412 1137.12 673.839 1131.4 660.862L1037.13 446.784Z" fill="black"/>
<path d="M946.179 544.611C940.891 532.349 928.818 524.409 915.466 524.409C891.422 524.409 875.232 549.022 884.754 571.101L887.127 576.601C892.414 588.862 904.487 596.802 917.839 596.802C941.883 596.802 958.074 572.19 948.553 550.114L946.179 544.611Z" fill="black"/>
<path d="M830.286 705.395H1329.53C1337.65 705.395 1344.24 698.814 1344.24 690.689C1344.24 682.568 1337.65 675.987 1329.53 675.987H830.286C819.749 675.987 812.631 686.741 816.752 696.44C819.058 701.87 824.387 705.395 830.286 705.395Z" fill="black"/>
<g filter="url(#filter0_d_67_63)">
<path d="M214 638H1707L1574.08 802L1707 966H214L354.15 802L214 638Z" fill="url(#paint0_linear_67_63)"/>
</g>
<path d="M638.01 712.11H664.02L626.28 798.81L664.02 885H637.755L614.04 825.075L589.815 885H563.805L601.035 798.81L563.805 712.11H589.815L614.04 772.545L638.01 712.11ZM712.741 710.835C744.701 710.835 760.681 723.585 760.681 749.085V763.875C760.681 772.885 759.151 780.45 756.091 786.57C753.201 792.52 748.271 797.96 741.301 802.89L720.646 818.445C712.826 824.055 707.641 828.73 705.091 832.47C702.541 836.21 701.266 841.565 701.266 848.535V863.325H760.426V885H677.041V846.75C677.041 836.38 679.166 828.05 683.416 821.76C687.666 815.47 694.041 809.35 702.541 803.4L724.216 786.57C729.146 783.34 732.461 779.855 734.161 776.115C735.861 772.375 736.711 767.275 736.711 760.815V751.125C736.711 745.005 735.011 740.5 731.611 737.61C728.211 734.55 721.156 733.02 710.446 733.02C699.906 733.02 689.706 734.975 679.846 738.885V715.68C689.196 712.45 700.161 710.835 712.741 710.835ZM826.614 748.83C826.614 736.76 830.524 727.41 838.344 720.78C846.334 714.15 857.639 710.835 872.259 710.835C886.879 710.835 898.779 712.365 907.959 715.425V738.375C898.779 734.805 887.644 733.02 874.554 733.02C858.744 733.02 850.839 738.885 850.839 750.615V760.56C850.839 766 851.859 770.335 853.899 773.565C856.109 776.625 859.934 779.685 865.374 782.745L894.954 799.32C908.724 806.8 915.609 818.105 915.609 833.235V847.515C915.609 859.925 911.274 869.53 902.604 876.33C893.934 882.96 881.694 886.275 865.884 886.275C850.244 886.275 837.664 884.49 828.144 880.92V857.97C839.364 862.05 851.179 864.09 863.589 864.09C882.119 864.09 891.384 857.8 891.384 845.22V836.55C891.384 831.45 890.449 827.54 888.579 824.82C886.709 821.93 883.224 819.125 878.124 816.405L849.309 800.595C834.179 792.435 826.614 780.28 826.614 764.13V748.83ZM1000.61 775.095C1000.61 765.065 995.421 760.05 985.051 760.05C977.571 760.05 970.091 761.92 962.611 765.66V863.07H980.971C994.061 863.07 1000.61 856.865 1000.61 844.455V775.095ZM961.591 745.26C971.451 740.33 981.396 737.865 991.426 737.865C1001.63 737.865 1009.7 740.67 1015.65 746.28C1021.77 751.89 1024.83 760.135 1024.83 771.015V847.005C1024.83 859.245 1021.35 868.68 1014.38 875.31C1007.58 881.77 998.396 885 986.836 885H962.611V922.995H938.641V738.375H961.591V745.26ZM1051.39 846.24V775.86C1051.39 763.62 1054.96 753.93 1062.1 746.79C1069.24 739.48 1080.12 735.825 1094.74 735.825C1109.36 735.825 1120.15 739.48 1127.12 746.79C1134.09 753.93 1137.58 763.62 1137.58 775.86V822.525H1074.85V844.965C1074.85 851.765 1076.89 856.78 1080.97 860.01C1085.22 863.24 1092.53 864.855 1102.9 864.855C1113.44 864.855 1123.64 863.325 1133.5 860.265V882.195C1123.3 884.915 1112.42 886.275 1100.86 886.275C1067.88 886.275 1051.39 872.93 1051.39 846.24ZM1074.85 803.145H1114.88V776.115C1114.88 762.855 1108.17 756.225 1094.74 756.225C1081.48 756.225 1074.85 762.855 1074.85 776.115V803.145ZM1162.2 846.24V775.86C1162.2 763.62 1165.77 753.93 1172.91 746.79C1180.05 739.48 1190.93 735.825 1205.55 735.825C1220.17 735.825 1230.97 739.48 1237.94 746.79C1244.91 753.93 1248.39 763.62 1248.39 775.86V822.525H1185.66V844.965C1185.66 851.765 1187.7 856.78 1191.78 860.01C1196.03 863.24 1203.34 864.855 1213.71 864.855C1224.25 864.855 1234.45 863.325 1244.31 860.265V882.195C1234.11 884.915 1223.23 886.275 1211.67 886.275C1178.69 886.275 1162.2 872.93 1162.2 846.24ZM1185.66 803.145H1225.7V776.115C1225.7 762.855 1218.98 756.225 1205.55 756.225C1192.29 756.225 1185.66 762.855 1185.66 776.115V803.145ZM1334.98 760.05H1317.64C1303.87 760.05 1296.99 766.51 1296.99 779.43V847.005C1296.99 858.395 1302.6 864.09 1313.82 864.09C1322.83 864.09 1329.88 861.71 1334.98 856.95V760.05ZM1334.98 699.36H1359.21V885H1335.49V875.82C1328.52 882.45 1319.34 885.765 1307.95 885.765C1296.56 885.765 1287.89 882.705 1281.94 876.585C1275.99 870.295 1273.02 861.37 1273.02 849.81V778.665C1273.02 766.085 1276.67 756.225 1283.98 749.085C1291.29 741.945 1301.49 738.375 1314.58 738.375H1334.98V699.36Z" fill="white"/>
</g>
<defs>
<filter id="filter0_d_67_63" x="214" y="638" width="1512" height="353" filterUnits="userSpaceOnUse" color-interpolation-filters="sRGB">
<feFlood flood-opacity="0" result="BackgroundImageFix"/>
<feColorMatrix in="SourceAlpha" type="matrix" values="0 0 0 0 0 0 0 0 0 0 0 0 0 0 0 0 0 0 127 0" result="hardAlpha"/>
<feOffset dx="14" dy="20"/>
<feGaussianBlur stdDeviation="2.5"/>
<feComposite in2="hardAlpha" operator="out"/>
<feColorMatrix type="matrix" values="0 0 0 0 0 0 0 0 0 0 0 0 0 0 0 0 0 0 0.25 0"/>
<feBlend mode="normal" in2="BackgroundImageFix" result="effect1_dropShadow_67_63"/>
<feBlend mode="normal" in="SourceGraphic" in2="effect1_dropShadow_67_63" result="shape"/>
</filter>
<linearGradient id="paint0_linear_67_63" x1="960" y1="617" x2="960" y2="1002" gradientUnits="userSpaceOnUse">
<stop stop-color="#4F4F4F"/>
<stop offset="0.480346" stop-color="#747474"/>
<stop offset="1" stop-color="#2B2B2B"/>
</linearGradient>
<clipPath id="clip0_67_63">
<rect width="1920" height="1080" fill="white"/>
</clipPath>
</defs>
</svg>
