<svg width="240" height="324" viewBox="0 0 240 324" fill="none" xmlns="http://www.w3.org/2000/svg">
<path fill-rule="evenodd" clip-rule="evenodd" d="M47.4638 286.051C75.0648 290.245 103.167 290.456 130.997 288.933C142.011 288.108 153.059 287.959 164.065 289.014C170.568 289.498 199.081 291.678 201.41 285.851C199.944 254.824 196.974 223.533 187.865 193.692C184.118 183.096 180.9 174.302 173.588 165.534C171.284 163.14 166.314 158.119 163.466 156.482C160.999 155.063 159.968 155.569 158.551 153.173C157.144 150.527 156.105 146.107 154.107 144.239C152.071 142.338 149.055 143.018 145.317 143.63C146.004 134.346 141.72 131.981 135.818 130.215C125.443 126.254 115.198 128.244 112.587 140.878C107.745 140.878 105.026 142.962 102.086 144.965C100.884 145.784 101.72 147.869 100.284 148.513C97.6278 149.459 92.9338 149.227 90.3778 150.391C78.7478 155.686 68.3908 163.363 61.5888 174.576C46.3388 198.514 35.8648 248.942 37.6768 277.315C36.8828 278.561 37.9808 280.347 38.2608 281.687C38.6128 282.852 39.7538 283.627 40.9448 283.495C42.6068 285.283 45.1768 285.681 47.4638 286.051Z" fill="white"/>
<path fill-rule="evenodd" clip-rule="evenodd" d="M161.709 155.78C161.54 155.686 161.689 155.443 161.859 155.523C170.045 159.365 176.324 166.105 180.743 173.892C185.318 181.955 187.925 191.11 190.174 200.058L190.255 200.381C192.652 209.953 194.69 219.624 196.525 229.319C198.384 239.136 199.876 249.015 201.076 258.934C201.669 263.838 202.199 268.751 202.611 273.674C202.818 276.134 203.005 278.596 203.173 281.059C203.241 282.044 203.304 283.03 203.358 284.015L203.397 284.755C203.431 285.426 203.511 286.098 203.345 286.76C203.202 287.331 202.9 287.847 202.634 288.371C202.109 289.406 200.669 289.235 200.103 288.371L199.939 288.119C199.564 287.539 199.252 286.999 199.134 286.277C199.02 285.578 199.016 284.845 198.965 284.139C198.871 282.839 198.791 281.538 198.7 280.238C198.508 277.502 198.293 274.767 198.054 272.034C197.583 266.639 197.077 261.249 196.456 255.869C195.348 246.305 193.974 236.774 192.337 227.286C190.742 218.02 188.726 208.848 186.623 199.687L186.405 198.74C182.723 182.746 177.048 164.327 161.709 155.78ZM74.5218 218.408C74.5818 218.248 74.8408 218.211 74.8848 218.408C75.4358 220.891 75.4898 223.449 75.5748 225.992C75.6578 228.5 75.6548 231.02 75.6178 233.53C75.4828 242.754 75.2298 251.97 75.0108 261.193C74.9008 265.806 74.7988 270.419 74.7208 275.033C74.6908 276.764 74.6648 278.494 74.6448 280.225L74.6188 282.507C74.6058 283.516 74.5798 284.513 74.4568 285.521C74.3758 286.184 74.2028 286.816 73.8368 287.385C73.5768 287.788 73.2068 287.993 72.8468 288.267L72.7788 288.319C72.3188 288.683 71.8338 288.685 71.3788 288.319L71.2458 288.214C70.8108 287.874 70.4348 287.608 70.1558 287.069C69.7698 286.32 69.7078 285.507 69.6428 284.682C69.5428 283.431 69.6088 282.161 69.6218 280.906C69.6478 278.389 69.6818 275.872 69.7268 273.355C69.8888 264.125 70.2088 254.894 70.7928 245.68C71.0678 241.341 71.4408 236.987 71.9408 232.665L72.0358 231.855C72.1878 230.583 72.3258 229.289 72.4818 227.99C70.1602 226.347 68.0979 224.365 66.3638 222.111C66.2348 221.945 66.4468 221.712 66.6018 221.873C68.3848 223.719 70.4288 225.192 72.6918 226.349C73.0618 223.631 73.5718 220.927 74.5218 218.408ZM113.406 136.132C113.438 136.107 113.488 136.097 113.518 136.132C114.018 136.716 113.917 137.608 113.933 138.347L113.935 138.416C113.971 139.497 113.978 140.575 113.974 141.656L113.963 145.1C113.961 145.573 113.923 146.066 113.947 146.542L113.96 146.726C114.223 146.996 114.345 147.385 114.256 147.775C114.24 148.277 113.978 148.695 113.595 148.958L114.414 150.12L115.234 151.282C116.924 153.68 118.633 156.057 120.413 158.388C122.233 160.764 124.161 163.055 126.193 165.253C127.182 166.33 128.191 167.387 129.221 168.425C129.639 168.846 130.069 169.256 130.493 169.672L130.915 170.089C131.165 170.339 131.479 170.586 131.645 170.902C131.742 171.089 131.764 171.549 131.799 171.625C132.112 172.312 131.578 173.408 130.692 173.065L130.732 173.039C130.893 172.926 130.79 172.925 130.422 173.034C130.194 173.034 129.97 172.98 129.768 172.874L129.707 172.84C129.42 172.695 129.164 172.413 128.932 172.187L128.874 172.132C128.341 171.633 127.834 171.103 127.323 170.581C126.256 169.494 125.217 168.38 124.208 167.239C122.198 164.959 120.289 162.593 118.485 160.147C116.645 157.658 114.936 155.041 113.465 152.317C112.912 151.283 112.392 150.231 111.906 149.163C110.951 148.856 110.73 147.841 110.796 146.697C110.444 145.876 110.127 145.039 109.939 144.184C109.913 144.066 110.064 143.956 110.154 144.058C110.46 144.405 110.742 144.775 111.014 145.154C111.178 144.352 111.385 143.613 111.483 143.143L111.906 141.065C109.521 140.941 106.909 141.921 105.265 143.637C105.176 144.084 104.833 144.404 104.498 144.821C104.11 145.302 103.785 145.831 103.532 146.395C102.979 147.637 103.291 149.467 102.219 150.378C102.112 150.469 101.987 150.537 101.853 150.579C102.362 153.075 102.131 155.825 102.12 158.357V158.579C102.122 161.413 102.028 164.249 101.918 167.08L101.807 169.882C101.663 173.619 101.569 177.358 101.932 181.075C104.682 178.637 107.592 176.383 110.641 174.33L111.625 173.672C112.803 172.881 114.011 172.068 115.301 171.502C116.989 170.761 118.595 171.016 120.224 171.775C121.847 172.532 123.422 173.41 125.014 174.23C126.633 175.063 128.255 175.89 129.877 176.719C130.951 177.268 132.525 177.763 133.313 178.774C133.363 178.551 133.422 178.328 133.49 178.105C133.404 177.749 133.455 177.373 133.632 177.052C136.279 172.186 138.728 167.204 141.16 162.228C142.392 159.709 143.562 157.161 144.795 154.645L145.994 152.193L146.598 150.97C146.9 150.36 147.215 149.756 147.521 149.147C147.65 148.89 147.812 148.635 147.938 148.375L147.998 148.245C148.001 148.238 148.291 147.324 148.067 147.411L148.048 147.421C147.933 147.486 147.841 147.342 147.916 147.25C148.233 146.857 148.675 147.205 148.856 147.568C149.355 148.568 148.441 150.137 148.089 151.095L148.07 151.148C146.979 154.238 145.743 157.27 144.477 160.291C142.05 166.084 139.442 171.787 136.841 177.501L136.81 177.599C137.365 177.173 137.957 176.787 138.464 176.411C139.744 175.463 141.061 174.562 142.376 173.663C144.79 172.023 147.26 170.467 149.782 168.997L150.286 168.702C151.544 167.969 152.79 167.374 154.282 167.594C155.669 167.799 156.959 168.544 158.212 169.15L158.341 169.212L162.212 171.053C161.796 169.402 161.353 167.758 160.883 166.122C159.117 159.946 157.021 153.869 154.603 147.917L154.253 147.054C153.78 145.87 153.308 144.578 151.954 144.214C150.601 143.849 149.049 144.39 147.812 143.618C147.7 143.548 147.714 143.362 147.85 143.328L148.613 143.136C150.046 142.779 151.726 142.42 153.081 142.767C154.555 143.145 155.775 144.383 156.49 145.67C157.286 147.102 157.847 148.704 158.45 150.23L158.546 150.471C159.239 152.198 159.905 153.937 160.543 155.685C161.816 159.182 162.978 162.718 164.028 166.288C164.535 168.009 165.015 169.737 165.476 171.47C165.609 171.968 165.828 172.573 166.007 173.203C166.213 173.404 166.408 173.628 166.591 173.883C166.894 174.307 166.676 174.804 166.299 175.058C166.285 175.492 166.189 175.9 165.958 176.249C165.059 177.614 162.683 177.263 162.779 175.428C162.794 175.147 162.903 174.879 163.069 174.652L163.064 174.615L163.045 174.548C162.633 174.35 162.219 174.13 161.782 173.914L157.719 171.905C156.542 171.324 155.238 170.425 153.929 170.203C152.709 169.996 151.422 170.906 150.374 171.454L150.306 171.49C147.773 172.794 145.254 174.126 142.751 175.485C141.528 176.146 140.32 176.834 139.102 177.503C138.083 178.062 136.984 178.865 135.839 179.18C135.35 179.561 134.769 179.51 134.302 179.222C134.515 180.544 134.502 181.901 134.568 183.252C134.656 185.059 134.669 186.871 134.698 188.681L134.71 189.359C134.787 193.359 134.828 197.36 134.843 201.361C134.897 215.608 134.74 229.859 134.703 244.105C134.685 251.263 134.543 258.427 134.357 265.583C134.278 268.615 134.113 271.643 133.935 274.67L133.838 276.322C133.63 279.806 133.508 283.328 132.863 286.766C132.779 287.214 132.021 287.225 131.946 286.766C131.353 283.082 131.32 279.319 131.206 275.592L131.182 274.848C131.045 270.847 130.98 266.848 130.993 262.846C131.044 248.593 131.415 234.35 131.717 220.101C131.87 212.942 131.972 205.78 132.209 198.624C132.327 195.043 132.461 191.464 132.62 187.885C132.691 186.287 132.759 184.69 132.865 183.094L132.913 182.41C132.946 181.964 132.973 181.524 133.005 181.087C131.564 181.614 130.245 180.638 128.949 179.971C127.454 179.202 125.96 178.432 124.465 177.664L122.969 176.898L119.974 175.369C118.626 174.681 117.587 173.996 116.149 174.803C110.968 177.711 106.207 181.58 101.893 185.64C101.065 186.419 99.3168 186.209 99.1078 184.904C98.2118 179.33 98.7568 173.675 99.2138 168.083L99.3818 166.007C99.5858 163.528 99.8088 161.049 100.105 158.579C100.238 157.475 100.37 156.371 100.516 155.268L100.628 154.442C100.81 153.135 100.93 151.836 101.319 150.583C101.189 150.542 101.071 150.471 100.972 150.378C99.8018 149.267 100.366 147.34 100.9 146.02C101.427 144.716 102.231 143.578 103.238 142.598C103.457 142.385 103.767 142.247 104.078 142.24C106.519 140.622 109.196 139.815 111.983 140.698C112.061 140.323 112.141 139.95 112.225 139.577L112.311 139.204C112.528 138.279 112.608 136.751 113.406 136.132ZM138.421 282.221C138.796 282.12 139.192 282.119 139.568 282.218C139.944 282.318 140.287 282.514 140.563 282.788C140.836 283.064 141.033 283.407 141.132 283.783C141.231 284.159 141.23 284.555 141.129 284.93C141.031 285.284 140.846 285.608 140.592 285.872C140.337 286.136 140.021 286.333 139.671 286.444L139.591 286.468L139.468 286.52C139.088 286.622 138.708 286.622 138.329 286.52C137.971 286.421 137.646 286.231 137.384 285.968C137.121 285.706 136.931 285.38 136.832 285.023C136.73 284.65 136.73 284.256 136.832 283.883L136.884 283.759C136.988 283.386 137.177 283.062 137.45 282.788C137.724 282.515 138.048 282.326 138.421 282.221ZM183.394 206.719C183.518 206.576 183.72 206.759 183.642 206.911C182.463 209.225 181.148 211.522 179.856 213.777C179.959 214.402 180.062 215.022 180.18 215.626C180.683 218.201 181.3 220.73 181.702 223.33C183.147 232.676 183.897 242.123 184.541 251.553C185.187 261.016 185.269 270.484 185.366 279.966C185.375 280.788 184.743 281.743 183.896 281.898C183.508 281.969 183.218 281.955 182.831 281.898C181.95 281.768 181.399 280.758 181.361 279.966C181.103 274.668 180.774 269.373 180.375 264.083C179.677 254.702 179.25 245.297 178.686 235.907L178.488 232.625C178.275 229.069 178.08 225.51 178.016 221.949C177.974 219.589 178.1 217.23 178.023 214.873C177.951 212.698 177.73 210.332 178.21 208.194C178.228 208.114 178.354 208.094 178.391 208.17C178.889 209.22 179.205 210.362 179.449 211.526C180.734 209.901 182.042 208.271 183.394 206.719ZM99.2248 149.243C99.4048 149.23 99.3988 149.501 99.2248 149.521C96.7038 149.814 94.2678 150.84 91.8868 151.713L91.6828 151.787C89.2768 152.66 86.9318 153.675 84.6748 154.886C80.2618 157.252 76.2098 160.303 72.6268 163.796C58.3228 177.739 51.8048 197.846 47.0278 216.741C44.3738 227.239 42.4868 237.914 41.2638 248.672C40.3489 256.721 39.8402 264.81 39.7398 272.91C39.7236 274.315 39.717 275.721 39.7198 277.126C39.7198 277.771 39.8348 278.582 39.6628 279.207C39.5028 279.786 39.0528 280.297 38.7198 280.779C38.3248 281.352 37.6148 281.322 37.2148 280.779L37.0668 280.582C36.6398 280.015 36.2228 279.473 36.1618 278.733C36.0958 277.939 36.1418 277.121 36.1388 276.323C36.1328 274.717 36.1528 273.11 36.1848 271.504C36.2468 268.426 36.3678 265.348 36.5478 262.274C36.9093 256.035 37.5198 249.813 38.3778 243.622C39.9171 232.617 42.2027 221.73 45.2188 211.035C48.0588 200.949 51.4218 190.894 56.2138 181.552C60.6638 172.878 66.5008 164.809 74.2028 158.747C77.7838 155.928 81.6828 153.578 85.8868 151.809C88.0068 150.917 90.2328 150.188 92.4968 149.773C94.7368 149.362 96.9658 149.42 99.2248 149.243ZM138.855 264.395C139.255 264.392 139.701 264.48 140.044 264.701L140.503 265.056C140.627 265.215 140.751 265.375 140.874 265.536C141.16 265.91 141.198 266.514 141.139 266.96C141.125 267.255 141.034 267.542 140.874 267.79L140.525 268.242C140.189 268.516 139.91 268.711 139.503 268.842C139.302 268.905 139.092 268.93 138.882 268.915L138.815 268.911L138.855 268.916L138.784 268.908C138.717 268.902 138.65 268.895 138.584 268.886C138.539 268.881 138.493 268.877 138.448 268.871C138.405 268.867 138.361 268.866 138.318 268.87C137.801 268.918 137.282 268.625 136.916 268.289C136.585 267.985 136.289 267.342 136.335 266.886L136.355 266.696C136.373 266.429 136.441 266.168 136.554 265.925C136.686 265.611 136.871 265.334 137.123 265.1C137.605 264.652 138.194 264.399 138.855 264.395ZM137.257 240.875C137.942 240.128 139.119 240.073 139.969 240.525C140.176 240.635 140.366 240.812 140.549 240.96C141.009 241.332 141.189 242.003 141.215 242.568C141.24 243.127 140.945 243.791 140.549 244.177L140.453 244.27C140.216 244.5 139.877 244.701 139.545 244.762C139.011 244.86 138.562 244.857 138.065 244.647C137.636 244.472 137.271 244.171 137.018 243.783L136.978 243.716C136.96 243.689 136.944 243.661 136.929 243.632L136.907 243.588C136.431 242.672 136.559 241.635 137.257 240.875ZM137.612 217.231C137.921 217.134 138.23 217.121 138.539 217.19C138.749 217.19 138.944 217.243 139.126 217.349C139.323 217.404 139.494 217.503 139.639 217.648C139.813 217.751 139.952 217.89 140.056 218.065C140.261 218.289 140.4 218.553 140.472 218.856L140.555 219.474L140.472 220.092L140.237 220.648L140.043 220.9C139.941 221.073 139.797 221.217 139.624 221.318C139.513 221.43 139.38 221.517 139.234 221.575C138.973 221.759 138.674 221.883 138.36 221.939C138.045 221.995 137.722 221.981 137.414 221.898C137.055 221.8 136.727 221.609 136.464 221.346C136.201 221.083 136.01 220.755 135.912 220.396L135.87 220.106C135.816 219.715 135.808 219.499 135.918 219.003C135.979 218.775 136.067 218.555 136.18 218.348C136.495 217.795 137.008 217.416 137.612 217.231ZM164.45 200.222C165.337 200.215 166.225 200.217 167.112 200.227L167.778 200.236C168.892 200.253 169.847 200.138 170.723 200.912C171.359 201.473 171.078 202.415 170.475 202.838C169.56 203.478 168.413 203.156 167.362 203.086C166.253 203.011 165.144 202.949 164.034 202.9C161.884 202.803 159.734 202.742 157.583 202.733C155.435 202.727 153.287 202.742 151.14 202.778C148.956 202.814 146.682 203.018 144.51 202.791C144.212 202.76 144.144 202.368 144.439 202.266C146.485 201.557 148.788 201.328 150.932 201.057C153.141 200.78 155.36 200.578 157.583 200.451C159.869 200.32 162.159 200.238 164.45 200.222ZM137.608 193.265L137.681 193.267C138.072 193.268 138.437 193.359 138.778 193.542L138.851 193.583L139.32 193.945C139.607 194.235 139.806 194.576 139.916 194.968L139.998 195.585C140.011 195.904 139.944 196.201 139.799 196.478C139.706 196.764 139.541 197.021 139.32 197.224C139.11 197.45 138.861 197.61 138.574 197.703C138.321 197.836 138.04 197.906 137.754 197.904L137.681 197.903C137.27 197.903 136.866 197.794 136.512 197.586L136.042 197.224C135.758 196.94 135.553 196.588 135.447 196.201L135.364 195.585C135.352 195.265 135.418 194.967 135.564 194.691C135.657 194.404 135.817 194.155 136.042 193.945C136.252 193.719 136.501 193.559 136.788 193.466C137.043 193.332 137.316 193.265 137.608 193.265ZM144.478 138.806C144.977 138.083 145.882 138.726 145.753 139.308C145.787 140.941 145.87 142.527 146.242 144.127C146.412 144.859 146.635 145.593 146.979 146.264L147.123 146.546C147.568 147.426 147.913 148.255 147.314 149.22C147.032 149.675 146.521 150.016 145.968 149.992C143.514 149.886 143.177 146.47 143.028 144.562C142.874 142.598 143.352 140.439 144.478 138.806Z" fill="black"/>
<path fill-rule="evenodd" clip-rule="evenodd" d="M169.838 95.119C169.038 81.972 164.773 67.068 152.223 60.613C124.556 49.505 88.1789 77.478 86.2529 106.055C85.5819 115.838 91.0109 126.527 100.932 129.246C103.138 132.17 106.474 133.955 109.766 135.505C148.983 155.859 174.316 139.314 169.838 95.119Z" fill="white"/>
<path fill-rule="evenodd" clip-rule="evenodd" d="M178.773 86.9409C177.387 83.0908 175.923 79.269 174.383 75.4779C172.883 71.7879 171.528 68.0179 169.665 64.5019C158.54 43.5069 138.309 43.5069 127.851 46.2499C122.428 43.9129 112.27 44.5719 106.623 46.6809C97.4808 50.0959 86.3368 63.5289 82.5258 69.5639C74.1138 82.8899 68.8638 100.626 74.4518 116.024C75.1818 118.036 76.1138 119.9 77.1618 121.697C76.4753 122.613 75.7187 123.475 74.8988 124.274C72.3958 126.752 69.8928 129.147 67.7308 131.942C65.5808 134.719 63.8008 137.672 62.4738 140.927C59.9738 147.068 59.8538 154.02 63.1588 159.879C66.0358 164.977 71.1308 168.773 76.8708 169.135C77.1658 169.176 77.4608 169.214 77.7568 169.243C78.5174 170.497 79.4412 171.645 80.5038 172.657C83.7468 175.742 91.4768 177.325 95.8858 177.427C96.1118 177.609 96.3398 177.79 96.5688 177.97C99.2658 180.094 102.097 182.237 105.195 183.748C107.292 184.773 110.043 185.629 112.232 184.89C113.225 185.553 114.854 185.414 115.838 184.871C117.457 183.979 118.773 182.372 119.573 180.728C121.515 176.736 121.048 172.367 120.55 168.102C120 163.391 119.472 158.678 118.935 153.967C118.515 150.283 118.076 146.538 116.956 142.989C116.377 141.151 115.619 139.384 114.638 137.723C114.665 137.587 114.658 137.446 114.619 137.313C114.298 136.268 113.635 135.721 112.849 135.011C112.746 134.92 112.646 134.827 112.547 134.732C112.164 134.288 111.741 133.881 111.283 133.515C111.11 133.339 110.938 133.162 110.768 132.984C109.346 131.494 108.002 129.928 106.809 128.25C105.651 126.622 104.605 124.923 103.61 123.192C102.598 121.432 101.928 119.489 100.919 117.742C100.897 117.706 100.868 117.676 100.833 117.653C100.798 117.631 100.759 117.616 100.718 117.611C100.676 117.605 100.634 117.61 100.595 117.623C100.556 117.636 100.52 117.658 100.49 117.687C100.177 118.01 99.9758 118.369 100.014 118.748L99.8578 118.771C99.7978 118.2 99.2728 117.735 98.5578 117.86C97.4898 118.046 96.6108 118.116 95.6848 117.761C95.8478 116.681 95.9978 115.598 96.1458 114.514C96.4158 112.519 96.6678 110.518 96.8828 108.516C97.4048 108.641 97.9228 108.82 98.4298 109.049C99.1574 109.371 99.8286 109.807 100.418 110.342C100.992 110.871 101.39 111.583 102.091 111.951C102.898 112.371 103.872 111.676 103.635 110.763C103.156 108.918 100.441 107.861 98.7608 107.512C98.1837 107.393 97.5949 107.34 97.0058 107.354C97.2037 105.462 97.3627 103.566 97.4828 101.668C98.7981 101.269 100.184 101.158 101.546 101.341C101.994 101.698 102.442 102.051 102.875 102.408C104.376 103.644 105.863 104.897 107.337 106.166C108.14 106.857 109.141 106.172 109.006 105.194C107.903 97.1749 112.813 90.7959 118.562 85.8549C124.925 80.3829 136.494 79.7459 144.061 70.2679C147.547 70.9779 155.328 73.0849 158.54 78.2039C163.035 85.3769 162.448 91.8039 162.79 99.9419C163.133 108.085 164.003 116.579 162.154 124.608C160.45 132.012 155.833 138.338 148.671 141.246C148.494 141.318 148.314 141.387 148.135 141.455C144.431 142.852 140.39 143.247 136.494 142.512C132.182 141.696 128.582 139.722 124.995 137.294C124.788 137.156 124.485 137.439 124.642 137.646C129.37 143.915 138.657 146.01 146.024 144.355C146.369 144.277 146.711 144.192 147.051 144.099C145.403 148.84 145.735 154.043 147.881 158.659C149.172 161.436 151.141 163.839 153.539 165.735C156.182 167.823 159.461 169.51 161.295 172.441C162.974 175.127 162.476 178.145 159.6 179.697C158.876 180.09 158.597 181.36 159.315 181.918C159.59 182.129 159.864 182.345 160.145 182.556C161.755 183.772 166.177 186.054 166.893 186.139C173.252 186.893 177.528 182.222 180.269 176.712C183.486 170.245 182.65 162.364 179.104 156.205C176.261 151.264 170.66 146.394 172.887 140.14C173.681 137.906 175.306 136.002 176.884 134.282C178.684 132.323 180.619 130.488 182.345 128.459C184.061 126.445 185.582 124.253 186.431 121.725C187.671 118.031 187.054 114.037 186.123 110.348C184.126 102.431 181.534 94.6199 178.773 86.9409Z" fill="black"/>
<path fill-rule="evenodd" clip-rule="evenodd" d="M143.152 128.274C141.719 127.689 140.47 126.729 139.538 125.493C139.395 125.312 139.291 125.103 139.233 124.88C139.175 124.657 139.164 124.424 139.2 124.196C139.276 123.729 139.552 123.307 139.928 123.023C140.305 122.739 140.777 122.599 141.233 122.67C141.63 122.732 142.024 122.949 142.337 123.4L142.402 123.49C142.945 124.234 143.661 124.835 144.488 125.241C145.288 125.635 146.184 125.792 147.07 125.695C148.808 125.499 150.005 124.559 151.278 123.282C151.436 123.121 151.594 122.955 151.752 122.786C151.845 122.643 151.984 122.536 152.146 122.483C152.322 122.428 152.511 122.43 152.686 122.49C152.86 122.55 153.011 122.664 153.116 122.815C153.213 122.958 153.269 123.135 153.251 123.339C153.134 124.662 152.443 125.842 151.461 126.769C150.37 127.799 148.924 128.511 147.563 128.761C146.064 129.036 144.536 128.839 143.152 128.274ZM148.271 107.866C149.866 108.837 152.297 111.099 150.581 113.504C148.56 115.624 145.652 113.193 144.219 112.093C142.89 111.241 141.396 113.433 142.629 114.428C152.987 122.099 157.19 108.12 149.078 106.726C148.184 106.572 147.853 107.566 148.271 107.866ZM129.711 98.9434C129.887 96.7544 133.219 96.2574 133.551 98.4234C133.847 100.363 133.498 102.146 132.624 103.893C131.79 105.561 129.692 104.783 129.533 103.263C129.32 101.226 129.601 100.305 129.711 98.9434ZM155.076 97.9744C155.541 97.3654 156.212 96.9504 157.015 97.1844C159.526 97.9194 158.786 101.485 157.904 103.221C157.425 104.163 155.876 104.402 155.176 103.572C154.036 102.219 153.489 99.5164 154.94 98.1824C154.979 98.1144 155.023 98.0444 155.076 97.9744ZM132.589 89.3664L132.986 89.2964C134.213 89.0844 135.738 88.8804 136.606 89.8664C137.067 90.3904 137.225 91.3634 136.606 91.8644C135.518 92.7444 134.314 92.4044 133.01 92.4784C131.946 92.5393 130.891 92.7191 129.867 93.0144C127.595 93.6644 125.744 94.8494 123.804 96.1514C123.55 96.3214 123.29 95.9964 123.411 95.7584C124.531 93.5634 126.701 91.7614 128.875 90.6624C130.036 90.0754 131.305 89.5894 132.589 89.3664ZM152.787 88.3834L153.091 88.4454C156.395 89.1354 160.687 90.5154 162.251 93.7624C162.311 94.2214 162.248 94.3194 162.197 94.3834L162.18 94.4054C162.137 94.4604 162.104 94.5354 161.905 94.5984C161.849 94.5849 161.793 94.5709 161.737 94.5564C161.02 94.3684 160.453 94.1094 159.904 93.8404L159.308 93.5474C158.617 93.2074 157.92 92.8814 157.181 92.6404C155.606 92.1242 153.983 91.7658 152.337 91.5704C151.986 91.5355 151.65 91.4078 151.365 91.2004C151.093 90.9962 150.901 90.7038 150.821 90.3734C150.705 89.9064 150.739 89.5534 150.989 89.1314C151.177 88.8154 151.447 88.5964 151.756 88.4704C152.084 88.341 152.442 88.3107 152.787 88.3834Z" fill="black"/>
</svg>
