<svg xmlns="http://www.w3.org/2000/svg" version="1.1" xmlns:xlink="http://www.w3.org/1999/xlink" xmlns:svgjs="http://svgjs.dev/svgjs" width="1440" height="560" preserveAspectRatio="none" viewBox="0 0 1440 560"><g mask="url(&quot;#SvgjsMask1288&quot;)" fill="none"><rect width="1440" height="560" x="0" y="0" fill="url(&quot;#SvgjsLinearGradient1289&quot;)"></rect><path d="M1261.858,168.189C1305.519,169.652,1343.024,138.059,1362.725,99.068C1380.632,63.628,1371.716,23.242,1352.712,-11.622C1332.637,-48.45,1303.792,-85.067,1261.858,-85.978C1218.8,-86.914,1183.237,-54.207,1163.896,-15.726C1146.454,18.975,1153.802,58.398,1172.06,92.677C1191.766,129.673,1219.965,166.785,1261.858,168.189" fill="rgba(28, 83, 142, 0.4)" class="triangle-float1"></path><path d="M1237.513,397.624C1257.276,397.635,1279.089,395.468,1289.474,378.653C1300.241,361.22,1296.144,338.387,1284.519,321.514C1274.296,306.677,1255.502,302.218,1237.513,303.237C1221.461,304.146,1208.02,313.117,1198.905,326.362C1187.991,342.221,1176.48,361.668,1185.651,378.595C1195.052,395.948,1217.777,397.613,1237.513,397.624" fill="rgba(28, 83, 142, 0.4)" class="triangle-float1"></path><path d="M582.736,78.16C607.356,79.205,633.976,73.653,646.804,52.613C660.037,30.909,654.703,3.42,641.574,-18.347C628.917,-39.332,607.243,-53.688,582.736,-53.611C558.355,-53.535,536.226,-39.375,524.533,-17.981C513.294,2.581,515.31,27.498,527.446,47.544C539.139,66.859,560.177,77.202,582.736,78.16" fill="rgba(28, 83, 142, 0.4)" class="triangle-float2"></path><path d="M891.5 371.45 a143.33 143.33 0 1 0 286.66 0 a143.33 143.33 0 1 0 -286.66 0z" fill="rgba(28, 83, 142, 0.4)" class="triangle-float3"></path><path d="M746.325,232.091C769.783,232.928,795.494,231.356,808.91,212.095C824.01,190.418,825.89,160.502,811.723,138.204C798.335,117.132,771.278,112.814,746.325,113.589C723.021,114.313,699.397,121.946,687.603,142.058C675.69,162.373,678.162,188.162,691.027,207.887C702.808,225.95,724.773,231.322,746.325,232.091" fill="rgba(28, 83, 142, 0.4)" class="triangle-float1"></path><path d="M454.34 135.3 a105.56 105.56 0 1 0 211.12 0 a105.56 105.56 0 1 0 -211.12 0z" fill="rgba(28, 83, 142, 0.4)" class="triangle-float2"></path></g><defs><mask id="SvgjsMask1288"><rect width="1440" height="560" fill="#ffffff"></rect></mask><linearGradient x1="15.28%" y1="139.29%" x2="84.72%" y2="-39.29%" gradientUnits="userSpaceOnUse" id="SvgjsLinearGradient1289"><stop stop-color="#0e2a47" offset="0"></stop><stop stop-color="rgba(37, 55, 184, 1)" offset="1"></stop></linearGradient><style>
                @keyframes float1 {
                    0%{transform: translate(0, 0)}
                    50%{transform: translate(-10px, 0)}
                    100%{transform: translate(0, 0)}
                }

                .triangle-float1 {
                    animation: float1 5s infinite;
                }

                @keyframes float2 {
                    0%{transform: translate(0, 0)}
                    50%{transform: translate(-5px, -5px)}
                    100%{transform: translate(0, 0)}
                }

                .triangle-float2 {
                    animation: float2 4s infinite;
                }

                @keyframes float3 {
                    0%{transform: translate(0, 0)}
                    50%{transform: translate(0, -10px)}
                    100%{transform: translate(0, 0)}
                }

                .triangle-float3 {
                    animation: float3 6s infinite;
                }
            </style></defs></svg>