<svg width="800" height="600" viewBox="0 0 800 600" fill="none" xmlns="http://www.w3.org/2000/svg">
<path d="M739.37 353.24C578.59 493.1 694.22 601.68 311.47 573.2C132.28 559.85 43.5302 423.65 22.9802 299.2C-2.49979 144.91 94.9902 35.3802 363.38 35.3802C484.45 35.3802 593.68 -1.14979 669.94 48.0302C776.24 116.61 818.47 284.44 739.37 353.24Z" fill="url(#paint0_linear_44_2)"/>
<path d="M150.84 130.24H564.13V543.53H150.84V130.24Z" fill="url(#paint1_radial_44_2)"/>
<path d="M545.01 358.779L495.47 387.649L496.19 388.889L545.73 360.019C546.44 359.599 546.88 358.859 546.89 358.029C546.9 357.199 546.49 356.449 545.78 356.009L539.73 352.259C539.595 352.177 539.485 352.061 539.409 351.922C539.334 351.784 539.296 351.627 539.3 351.469C539.31 351.149 539.48 350.859 539.76 350.709L558.34 340.259C558.87 340.389 559.45 340.479 560.08 340.479C562.27 340.479 564.04 339.579 564.04 338.459C564.04 337.349 562.27 336.439 560.08 336.439C557.89 336.439 556.12 337.339 556.12 338.459C556.12 338.849 556.35 339.209 556.72 339.519L539.05 349.449C538.32 349.859 537.88 350.599 537.86 351.439C537.84 352.269 538.25 353.039 538.97 353.479L545.02 357.229C545.3 357.399 545.45 357.679 545.45 358.009C545.45 358.329 545.29 358.609 545.01 358.779Z" fill="url(#paint2_linear_44_2)"/>
<path d="M565.31 358.2C567.49 358.2 569.27 357.3 569.27 356.18C569.27 355.07 567.5 354.16 565.31 354.16C563.12 354.16 561.35 355.06 561.35 356.18C561.35 356.58 561.59 356.96 561.99 357.28L501.19 392.65L501.91 393.89L563.61 358C564.13 358.12 564.7 358.2 565.31 358.2Z" fill="url(#paint3_linear_44_2)"/>
<path d="M564.99 298.71L455.94 361.67L456.66 362.91L566.61 299.43C567.13 299.56 567.7 299.63 568.31 299.63C570.49 299.63 572.27 298.73 572.27 297.61C572.27 296.5 570.5 295.59 568.31 295.59C566.12 295.59 564.35 296.49 564.35 297.61C564.35 298.03 564.59 298.4 564.99 298.71Z" fill="url(#paint4_linear_44_2)"/>
<path d="M474.15 321.809L430.33 347.789L431.06 349.019L474.88 323.039C475.422 322.72 475.871 322.264 476.18 321.716C476.489 321.168 476.648 320.548 476.64 319.919C476.639 319.29 476.472 318.672 476.156 318.128C475.84 317.584 475.386 317.133 474.84 316.819L468.94 313.419C468.614 313.235 468.342 312.968 468.152 312.645C467.962 312.322 467.862 311.954 467.86 311.579C467.852 311.206 467.942 310.837 468.121 310.508C468.3 310.18 468.562 309.905 468.88 309.709L482.06 301.479C482.55 301.589 483.09 301.649 483.66 301.649C485.85 301.649 487.62 300.749 487.62 299.629C487.62 298.519 485.85 297.609 483.66 297.609C481.48 297.609 479.7 298.509 479.7 299.629C479.7 300.059 479.98 300.459 480.43 300.789L468.12 308.479C467.59 308.806 467.156 309.267 466.859 309.814C466.563 310.361 466.415 310.977 466.43 311.599C466.45 312.879 467.13 314.019 468.23 314.659L474.13 318.059C474.8 318.449 475.21 319.149 475.21 319.919C475.21 320.709 474.81 321.409 474.15 321.809Z" fill="url(#paint5_linear_44_2)"/>
<path d="M527.1 407.48L598.24 366.41C599.287 365.807 600.484 365.516 601.69 365.571C602.897 365.626 604.063 366.025 605.05 366.72L611.56 371.32C612.81 372.209 614.297 372.706 615.83 372.747C617.364 372.788 618.875 372.371 620.17 371.55L630.16 365.25C630.59 365.33 631.05 365.38 631.54 365.38C633.73 365.38 635.5 364.48 635.5 363.36C635.5 362.24 633.73 361.34 631.54 361.34C629.36 361.34 627.58 362.24 627.58 363.36C627.58 363.84 627.92 364.27 628.46 364.62L619.4 370.34C618.343 371.009 617.111 371.348 615.861 371.314C614.611 371.28 613.399 370.875 612.38 370.15L605.87 365.55C604.657 364.698 603.227 364.209 601.747 364.14C600.266 364.071 598.797 364.424 597.51 365.16L526.37 406.23L527.1 407.48Z" fill="url(#paint6_linear_44_2)"/>
<path d="M251.42 358.89C251.284 358.812 251.171 358.7 251.092 358.565C251.013 358.43 250.971 358.276 250.97 358.12C250.97 357.8 251.12 357.51 251.4 357.34L257.45 353.59C257.796 353.377 258.08 353.077 258.275 352.72C258.469 352.364 258.568 351.963 258.559 351.557C258.551 351.151 258.437 350.754 258.229 350.405C258.02 350.057 257.724 349.769 257.37 349.57L239.7 339.64C240.08 339.33 240.3 338.97 240.3 338.58C240.3 337.47 238.53 336.56 236.34 336.56C234.16 336.56 232.38 337.46 232.38 338.58C232.38 339.7 234.15 340.6 236.34 340.6C236.97 340.6 237.55 340.52 238.08 340.39L256.66 350.83C256.95 350.99 257.11 351.27 257.12 351.6C257.13 351.92 256.97 352.21 256.69 352.38L250.64 356.13C250.297 356.342 250.014 356.639 249.819 356.993C249.624 357.347 249.525 357.745 249.53 358.149C249.535 358.553 249.644 358.948 249.848 359.297C250.051 359.646 250.341 359.936 250.69 360.14L300.23 389.01L300.95 387.77L251.42 358.89Z" fill="url(#paint7_linear_44_2)"/>
<path d="M235.08 356.29C235.08 355.17 233.31 354.27 231.12 354.27C228.93 354.27 227.16 355.17 227.16 356.29C227.16 357.4 228.93 358.31 231.12 358.31C231.73 358.31 232.3 358.23 232.81 358.11L294.51 394L295.23 392.76L234.44 357.4C234.84 357.07 235.08 356.7 235.08 356.29Z" fill="url(#paint8_linear_44_2)"/>
<path d="M164.88 365.489C165.37 365.489 165.83 365.439 166.26 365.359L176.25 371.659C177.547 372.481 179.06 372.898 180.595 372.857C182.13 372.816 183.618 372.319 184.87 371.429L191.38 366.829C192.367 366.134 193.533 365.736 194.74 365.681C195.946 365.626 197.143 365.917 198.19 366.519L269.33 407.589L270.05 406.349L198.91 365.279C197.625 364.54 196.155 364.183 194.675 364.251C193.194 364.318 191.763 364.807 190.55 365.659L184.04 370.259C183.02 370.983 181.807 371.386 180.557 371.418C179.307 371.45 178.076 371.11 177.02 370.439L167.96 364.719C168.5 364.369 168.84 363.939 168.84 363.459C168.84 362.349 167.07 361.439 164.88 361.439C162.69 361.439 160.92 362.339 160.92 363.459C160.93 364.589 162.7 365.489 164.88 365.489Z" fill="url(#paint9_linear_44_2)"/>
<path d="M228.12 299.75C228.73 299.75 229.31 299.67 229.82 299.55L339.77 363.03L340.49 361.79L231.44 298.83C231.84 298.52 232.07 298.14 232.07 297.74C232.07 296.63 230.3 295.72 228.11 295.72C225.92 295.72 224.15 296.62 224.15 297.74C224.16 298.85 225.93 299.75 228.12 299.75Z" fill="url(#paint10_linear_44_2)"/>
<path d="M321.22 320.05C321.22 319.27 321.63 318.58 322.3 318.19L328.2 314.79C329.3 314.15 329.98 313.01 330 311.73C330.02 310.45 329.39 309.29 328.3 308.61L315.99 300.92C316.45 300.59 316.72 300.19 316.72 299.76C316.72 298.64 314.95 297.74 312.76 297.74C310.57 297.74 308.8 298.64 308.8 299.76C308.8 300.87 310.57 301.78 312.76 301.78C313.33 301.78 313.87 301.72 314.36 301.61L327.54 309.84C327.857 310.038 328.118 310.314 328.296 310.642C328.475 310.97 328.565 311.339 328.559 311.712C328.553 312.086 328.451 312.451 328.262 312.773C328.073 313.095 327.803 313.363 327.48 313.55L321.58 316.95C321.034 317.263 320.581 317.715 320.265 318.259C319.949 318.803 319.782 319.421 319.78 320.05C319.77 321.34 320.43 322.51 321.55 323.17L365.37 349.16L366.1 347.92L322.28 321.93C321.61 321.53 321.22 320.82 321.22 320.05Z" fill="url(#paint11_linear_44_2)"/>
<path d="M251.42 490.3L300.96 461.44L300.24 460.2L250.7 489.07C250.35 489.271 250.058 489.561 249.854 489.91C249.651 490.259 249.542 490.656 249.54 491.06C249.53 491.89 249.94 492.64 250.65 493.08L256.7 496.83C256.98 497 257.13 497.29 257.13 497.61C257.13 497.768 257.087 497.923 257.006 498.058C256.925 498.194 256.809 498.305 256.67 498.38L238.09 508.82C237.56 508.69 236.98 508.6 236.35 508.6C234.17 508.6 232.39 509.5 232.39 510.62C232.39 511.73 234.16 512.64 236.35 512.64C238.54 512.64 240.31 511.74 240.31 510.62C240.31 510.23 240.08 509.87 239.71 509.56L257.38 499.63C258.11 499.22 258.55 498.48 258.57 497.64C258.59 496.8 258.17 496.04 257.46 495.6L251.41 491.85C251.276 491.77 251.165 491.656 251.089 491.519C251.014 491.382 250.976 491.227 250.98 491.07C250.97 490.74 251.14 490.46 251.42 490.3Z" fill="url(#paint12_linear_44_2)"/>
<path d="M231.12 490.87C228.93 490.87 227.16 491.77 227.16 492.89C227.16 494 228.93 494.91 231.12 494.91C233.31 494.91 235.08 494.01 235.08 492.89C235.08 492.48 234.84 492.11 234.44 491.79L295.23 456.42L294.51 455.18L232.82 491.07C232.3 490.95 231.73 490.87 231.12 490.87Z" fill="url(#paint13_linear_44_2)"/>
<path d="M231.44 550.36L340.49 487.4L339.77 486.16L229.82 549.64C229.3 549.51 228.73 549.44 228.11 549.44C225.92 549.44 224.15 550.34 224.15 551.46C224.15 552.57 225.92 553.48 228.11 553.48C230.3 553.48 232.07 552.58 232.07 551.46C232.07 551.05 231.84 550.67 231.44 550.36Z" fill="url(#paint14_linear_44_2)"/>
<path d="M322.28 527.26L366.1 501.27L365.37 500.04L321.55 526.02C321.008 526.34 320.56 526.796 320.249 527.344C319.938 527.891 319.777 528.511 319.78 529.14C319.79 530.43 320.46 531.59 321.58 532.24L327.48 535.64C328.14 536.02 328.55 536.71 328.56 537.48C328.57 538.25 328.19 538.95 327.54 539.35L314.36 547.57C313.87 547.46 313.33 547.4 312.76 547.4C310.57 547.4 308.8 548.3 308.8 549.42C308.8 550.53 310.57 551.44 312.76 551.44C314.94 551.44 316.72 550.54 316.72 549.42C316.72 548.98 316.44 548.58 315.99 548.25L328.3 540.56C328.831 540.233 329.266 539.773 329.564 539.226C329.863 538.679 330.013 538.063 330 537.44C329.98 536.17 329.3 535.02 328.2 534.38L322.3 530.98C321.974 530.792 321.702 530.522 321.513 530.197C321.323 529.872 321.223 529.502 321.221 529.126C321.219 528.749 321.315 528.379 321.501 528.051C321.687 527.724 321.956 527.451 322.28 527.26Z" fill="url(#paint15_linear_44_2)"/>
<path d="M269.33 441.59L198.19 482.66C197.144 483.263 195.946 483.554 194.74 483.499C193.533 483.444 192.368 483.045 191.38 482.35L184.87 477.75C182.3 475.93 178.92 475.85 176.25 477.52L166.25 483.82C165.795 483.734 165.333 483.691 164.87 483.69C162.68 483.69 160.91 484.59 160.91 485.71C160.91 486.83 162.68 487.73 164.87 487.73C167.06 487.73 168.83 486.83 168.83 485.71C168.83 485.23 168.49 484.8 167.95 484.46L177.01 478.74C178.067 478.071 179.299 477.732 180.549 477.766C181.799 477.8 183.011 478.205 184.03 478.93L190.54 483.53C191.753 484.383 193.184 484.872 194.665 484.939C196.146 485.006 197.615 484.649 198.9 483.91L270.04 442.84L269.33 441.59Z" fill="url(#paint16_linear_44_2)"/>
<path d="M569.26 492.78C569.26 491.67 567.49 490.76 565.3 490.76C564.69 490.76 564.12 490.84 563.61 490.96L501.91 455.07L501.19 456.31L561.99 491.68C561.59 492 561.35 492.37 561.35 492.78C561.35 493.9 563.12 494.8 565.31 494.8C567.49 494.8 569.26 493.89 569.26 492.78Z" fill="url(#paint17_linear_44_2)"/>
<path d="M556.13 510.5C556.13 511.61 557.9 512.52 560.09 512.52C562.28 512.52 564.05 511.62 564.05 510.5C564.05 509.39 562.28 508.48 560.09 508.48C559.46 508.48 558.88 508.56 558.35 508.69L539.77 498.25C539.633 498.173 539.518 498.062 539.437 497.927C539.357 497.792 539.313 497.638 539.31 497.48C539.304 497.323 539.34 497.168 539.416 497.03C539.492 496.893 539.604 496.779 539.74 496.7L545.79 492.95C546.5 492.52 546.91 491.76 546.9 490.93C546.89 490.1 546.45 489.36 545.74 488.94L496.2 460.07L495.48 461.31L545.02 490.18C545.3 490.34 545.46 490.62 545.47 490.95C545.47 491.27 545.32 491.56 545.04 491.73L538.99 495.48C538.28 495.92 537.87 496.68 537.88 497.52C537.9 498.36 538.34 499.1 539.07 499.51L556.74 509.44C556.36 509.75 556.13 510.11 556.13 510.5Z" fill="url(#paint18_linear_44_2)"/>
<path d="M631.54 483.579C631.05 483.579 630.59 483.63 630.16 483.71L620.17 477.41C618.875 476.588 617.364 476.171 615.83 476.212C614.297 476.253 612.81 476.75 611.56 477.639L605.05 482.24C604.063 482.935 602.897 483.333 601.691 483.388C600.484 483.443 599.287 483.152 598.24 482.549L527.1 441.479L526.38 442.719L597.52 483.789C598.805 484.529 600.275 484.885 601.756 484.818C603.237 484.751 604.668 484.262 605.88 483.41L612.39 478.809C613.41 478.087 614.622 477.683 615.872 477.65C617.121 477.616 618.353 477.953 619.41 478.619L628.47 484.339C627.93 484.689 627.59 485.12 627.59 485.6C627.59 486.71 629.36 487.619 631.55 487.619C633.74 487.619 635.51 486.72 635.51 485.6C635.5 484.48 633.73 483.579 631.54 483.579Z" fill="url(#paint19_linear_44_2)"/>
<path d="M483.66 547.3C483.09 547.3 482.55 547.36 482.06 547.47L468.88 539.24C468.563 539.043 468.303 538.766 468.125 538.438C467.946 538.11 467.855 537.742 467.861 537.368C467.867 536.995 467.97 536.629 468.159 536.307C468.348 535.985 468.617 535.717 468.94 535.53L474.84 532.12C475.388 531.809 475.843 531.358 476.159 530.813C476.475 530.269 476.641 529.65 476.64 529.02C476.65 527.73 475.99 526.56 474.87 525.9L431.05 499.91L430.32 501.15L474.14 527.13C474.81 527.53 475.21 528.23 475.2 529.01C475.2 529.79 474.79 530.48 474.12 530.87L468.22 534.27C467.12 534.91 466.44 536.05 466.42 537.33C466.4 538.61 467.03 539.77 468.11 540.45L480.42 548.14C479.96 548.47 479.69 548.87 479.69 549.3C479.69 550.41 481.46 551.32 483.65 551.32C485.84 551.32 487.61 550.42 487.61 549.3C487.61 548.2 485.84 547.3 483.66 547.3Z" fill="url(#paint20_linear_44_2)"/>
<path d="M568.31 549.32C567.7 549.32 567.12 549.4 566.6 549.52L456.65 486.04L455.93 487.28L564.98 550.24C564.58 550.56 564.35 550.93 564.35 551.33C564.35 552.44 566.12 553.35 568.31 553.35C570.49 553.35 572.27 552.45 572.27 551.33C572.27 550.21 570.5 549.32 568.31 549.32Z" fill="url(#paint21_linear_44_2)"/>
<path d="M618.94 180.851C618.94 180.851 539.25 131.861 373.21 131.111C317.87 130.861 218.43 145.631 159.09 174.431C89.9704 207.991 86.9704 251.061 86.9704 251.061L86.9604 256.791C90.7004 268.201 101.28 295.441 120.9 309.971C146.14 328.671 161.1 336.211 161.1 336.211L169.5 331.471L610.32 183.791L618.94 180.851Z" fill="url(#paint22_linear_44_2)"/>
<path d="M90.6802 465.031C90.6802 465.031 121.23 373.871 339.61 356.341C490.4 344.231 610.33 397.161 610.33 397.161V183.791C610.33 183.791 540.66 138.861 374.62 138.108C319.28 137.861 219.84 152.631 160.5 181.431C91.3802 215.001 91.1802 260.181 91.1802 260.181L90.6802 465.031Z" fill="url(#paint23_linear_44_2)"/>
<g opacity="0.3">
<path opacity="0.56" d="M315.61 179.021V189.851L204.81 213.891L204.57 202.761L315.61 179.021ZM315.61 195.701V206.531L204.81 230.561L204.57 219.451L315.61 195.701ZM315.61 212.371V223.201L204.81 247.241L204.57 236.121L315.61 212.371ZM315.61 229.051V239.881L204.81 263.911L204.57 252.791L315.61 229.051ZM315.61 245.731V256.561L265.94 267.751L265.7 256.631L315.61 245.731ZM315.61 262.4V273.23L204.81 297.26L204.57 286.15L315.61 262.4ZM315.61 279.081V289.911L204.81 313.941L204.57 302.821L315.61 279.081ZM315.61 295.751V306.581L204.81 330.62L204.57 319.501L315.61 295.751ZM315.61 312.43V323.26L204.81 347.29L204.57 336.18L315.61 312.43Z" fill="white"/>
</g>
<g opacity="0.7">
<path d="M519.91 329.54L560.97 305.83L602.03 329.54L560.4 352.91L519.91 329.54Z" fill="#2B73B5"/>
<path d="M519.91 315.43L560.97 291.73L602.03 315.43L560.4 338.81L519.91 315.43Z" fill="#56ABDD"/>
<path d="M519.91 297.73L560.97 274.03L602.03 297.73L560.4 321.11L519.91 297.73Z" fill="#951AAC"/>
<path d="M519.91 282.45L560.97 258.75L602.03 282.45L560.4 305.83L519.91 282.45Z" fill="#741AAC"/>
<path d="M519.91 267.181L560.97 243.471L602.03 267.181L560.4 290.551L519.91 267.181Z" fill="#A91AAC"/>
<path d="M519.91 252.75L560.97 229.04L602.03 252.75L560.4 276.12L519.91 252.75Z" fill="#00DDD2"/>
<path d="M519.91 238.32L560.97 214.62L602.03 238.32L560.4 261.7L519.91 238.32Z" fill="#00CCBD"/>
<path d="M519.91 223.9L560.97 200.19L602.03 223.9L560.4 247.27L519.91 223.9Z" fill="#00DDD2"/>
</g>
<g opacity="0.6">
<path opacity="0.56" d="M445.02 154.66V161.33L513.24 173.61L513.39 166.76L445.02 154.66ZM445.02 164.93V171.59L513.24 183.88L513.39 177.03L445.02 164.93ZM445.02 175.19V181.86L513.24 194.14L513.39 187.29L445.02 175.19ZM445.02 185.46V192.13L513.24 204.41L513.39 197.56L445.02 185.46ZM445.02 195.73V202.39L475.61 208.16L475.75 201.31L445.02 195.73ZM445.02 205.99V212.66L513.24 224.95L513.39 218.1L445.02 205.99ZM445.02 216.26V222.93L513.24 235.21L513.39 228.36L445.02 216.26ZM445.02 226.53V233.19L513.24 245.48L513.39 238.63L445.02 226.53ZM445.02 236.79V243.46L513.24 255.75L513.39 248.9L445.02 236.79Z" fill="white"/>
</g>
<g opacity="0.6">
<path opacity="0.56" d="M445.02 252.271V258.941L513.24 271.231L513.39 264.381L445.02 252.271ZM445.02 262.541V269.211L513.24 281.491L513.39 274.641L445.02 262.541ZM445.02 272.811V279.471L513.24 291.761L513.39 284.911L445.02 272.811ZM445.02 283.071V289.741L513.24 302.031L513.39 295.181L445.02 283.071ZM445.02 293.341V300.011L475.61 305.771L475.75 298.921L445.02 293.341ZM445.02 303.611V310.271L513.24 322.561L513.39 315.711L445.02 303.611ZM445.02 313.871V320.541L513.24 332.831L513.39 325.981L445.02 313.871ZM445.02 324.141V330.811L513.24 343.091L513.39 336.241L445.02 324.141ZM445.02 334.411V341.071L513.24 353.361L513.39 346.511L445.02 334.411Z" fill="white"/>
</g>
<path d="M133.08 293.27C145.611 293.27 155.77 276.212 155.77 255.17C155.77 234.128 145.611 217.07 133.08 217.07C120.549 217.07 110.39 234.128 110.39 255.17C110.39 276.212 120.549 293.27 133.08 293.27Z" fill="#701AAC"/>
<path d="M136.51 380.89C149.042 380.89 159.2 363.832 159.2 342.79C159.2 321.748 149.042 304.69 136.51 304.69C123.979 304.69 113.82 321.748 113.82 342.79C113.82 363.832 123.979 380.89 136.51 380.89Z" fill="url(#paint24_linear_44_2)"/>
<path d="M353.4 292.701L352.63 328.801L367.92 328.001L368.7 291.931L353.4 292.701Z" fill="#00DDD2"/>
<path d="M339.16 275.461L353.4 292.701L352.63 328.801L337.75 310.331L339.16 275.461Z" fill="#00CCBD"/>
<path d="M339.16 275.46L354.19 274.57L368.7 291.93L353.4 292.7L339.16 275.46Z" fill="#00FFEC"/>
<path d="M385.44 259.76L383.99 327L399.28 326.21L400.73 258.99L385.44 259.76Z" fill="#951AAC"/>
<path d="M371.19 242.521L385.44 259.761L383.99 327.001L369.11 308.541L371.19 242.521Z" fill="#741AAC"/>
<path d="M371.19 242.521L386.23 241.631L400.73 258.991L385.44 259.761L371.19 242.521Z" fill="#A91AAC"/>
<path d="M417.47 215.271L415.07 327.081L430.37 326.291L432.77 214.501L417.47 215.271Z" fill="#56ABDD"/>
<path d="M403.23 198.03L417.47 215.27L415.07 327.08L400.19 308.61L403.23 198.03Z" fill="#2B73B5"/>
<path d="M403.23 198.031L418.26 197.141L432.77 214.501L417.47 215.271L403.23 198.031Z" fill="#009BDD"/>
<path d="M160.61 544.111L161.1 336.211C161.1 336.211 142.07 330.201 115.02 305.161C87.9702 280.121 87.4702 248.561 87.4702 248.561L85.4702 458.421C85.4702 458.421 86.4102 481.651 108.01 512.511C120.43 530.251 141.63 541.201 152.95 546.081L160.61 544.111Z" fill="url(#paint25_linear_44_2)"/>
<g opacity="0.8">
<path opacity="0.56" d="M92.2402 315.141V321.801L142.9 359.011L143.01 352.221L92.2402 315.141ZM92.2402 325.401V332.071L142.9 369.281L143.01 362.481L92.2402 325.401ZM92.2402 335.671V342.341L142.9 379.551L143.01 372.751L92.2402 335.671ZM92.2402 345.941V352.601L142.9 389.811L143.01 383.021L92.2402 345.941ZM92.2402 356.201V362.871L114.95 379.811L115.06 373.011L92.2402 356.201ZM92.2402 366.471V373.141L142.9 410.351L143.01 403.551L92.2402 366.471ZM92.2402 376.741V383.401L142.9 420.611L143.01 413.821L92.2402 376.741ZM92.2402 387.001V393.671L142.9 430.881L143.01 424.081L92.2402 387.001ZM92.2402 397.271V403.941L142.9 441.151L143.01 434.351L92.2402 397.271ZM92.2402 427.551V434.221L142.9 471.431L143.01 464.631L92.2402 427.551ZM92.2402 437.821V444.481L142.9 481.691L143.01 474.901L92.2402 437.821ZM92.2402 448.081V454.751L142.9 491.961L143.01 485.161L92.2402 448.081ZM92.2402 458.351V465.021L142.9 502.231L143.01 495.431L92.2402 458.351Z" fill="white"/>
</g>
<path d="M87.4704 248.561L87.2104 275.991C97.1004 297.651 118.25 328.791 161.08 343.081L161.1 336.211C161.1 336.211 142.07 330.201 115.02 305.161C87.9804 280.121 87.4704 248.561 87.4704 248.561Z" fill="url(#paint26_linear_44_2)"/>
<path d="M161.1 336.211L153.51 340.691V545.811L161.13 544.291L161.1 336.211Z" fill="url(#paint27_linear_44_2)"/>
<path d="M610.32 183.791V397.161L618.94 392.631V180.851L610.32 183.791Z" fill="url(#paint28_linear_44_2)"/>
<path d="M692.01 178.191C695.164 178.191 697.72 175.634 697.72 172.48C697.72 169.327 695.164 166.771 692.01 166.771C688.857 166.771 686.3 169.327 686.3 172.48C686.3 175.634 688.857 178.191 692.01 178.191Z" fill="#B3EFFF"/>
<path d="M179.39 137.09C182.544 137.09 185.1 134.533 185.1 131.38C185.1 128.226 182.544 125.67 179.39 125.67C176.237 125.67 173.68 128.226 173.68 131.38C173.68 134.533 176.237 137.09 179.39 137.09Z" fill="#B3EFFF"/>
<path d="M573.48 100.8C587.13 114.51 609.29 114.57 623.01 100.93C636.72 87.2902 636.78 65.1202 623.14 51.4102C609.5 37.7002 587.33 37.6402 573.62 51.2802C559.89 64.9202 559.84 87.0902 573.48 100.8Z" fill="url(#paint29_linear_44_2)"/>
<path d="M267.3 86.8505C274.237 86.8505 279.86 81.2272 279.86 74.2905C279.86 67.3538 274.237 61.7305 267.3 61.7305C260.364 61.7305 254.74 67.3538 254.74 74.2905C254.74 81.2272 260.364 86.8505 267.3 86.8505Z" fill="url(#paint30_linear_44_2)"/>
<path opacity="0.6" d="M65.6602 210.33C70.8628 210.33 75.0802 206.113 75.0802 200.91C75.0802 195.708 70.8628 191.49 65.6602 191.49C60.4577 191.49 56.2402 195.708 56.2402 200.91C56.2402 206.113 60.4577 210.33 65.6602 210.33Z" fill="url(#paint31_linear_44_2)"/>
<path d="M430.56 86.8507C433.714 86.8507 436.27 84.2942 436.27 81.1407C436.27 77.9871 433.714 75.4307 430.56 75.4307C427.407 75.4307 424.85 77.9871 424.85 81.1407C424.85 84.2942 427.407 86.8507 430.56 86.8507Z" fill="#125CAE"/>
<path d="M346.08 77.9502L347.28 80.3902L349.97 80.7802L348.02 82.6702L348.48 85.3502L346.08 84.0902L343.68 85.3502L344.13 82.6702L342.19 80.7802L344.88 80.3902L346.08 77.9502Z" fill="white"/>
<path opacity="0.4" d="M103.34 139.96L104.54 142.4L107.23 142.79L105.28 144.69L105.74 147.36L103.34 146.1L100.93 147.36L101.39 144.69L99.4502 142.79L102.14 142.4L103.34 139.96Z" fill="white"/>
<path d="M60.5204 285.541L61.7204 287.981L64.4104 288.371L62.4704 290.271L62.9204 292.941L60.5204 291.681L58.1204 292.941L58.5804 290.271L56.6304 288.371L59.3204 287.981L60.5204 285.541ZM744.91 236.321L746.11 238.761L748.8 239.151L746.86 241.051L747.31 243.721L744.91 242.461L742.51 243.721L742.97 241.051L741.02 239.151L743.71 238.761L744.91 236.321ZM707.19 106.101L708.39 108.541L711.08 108.931L709.14 110.831L709.6 113.501L707.19 112.241L704.79 113.501L705.25 110.831L703.3 108.931L705.99 108.541L707.19 106.101Z" fill="white"/>
<path d="M647.85 371.11V381.52L666.07 392.25V381.52L647.85 371.11Z" fill="#56ABDD"/>
<path d="M647.85 371.11L666.07 360.38L684.46 371L666.07 381.52L647.85 371.11Z" fill="#009BDD"/>
<path d="M684.46 371V381.52L666.07 392.25V381.52L684.46 371Z" fill="#2B73B5"/>
<path d="M620.35 387.05V397.45L638.56 408.18V397.45L620.35 387.05Z" fill="#56ABDD"/>
<path d="M620.35 387.05L638.56 376.32L656.96 386.94L638.56 397.45L620.35 387.05Z" fill="#009BDD"/>
<path d="M656.96 386.94V397.45L638.56 408.18V397.45L656.96 386.94Z" fill="#2B73B5"/>
<path d="M675.41 387.05V397.45L693.62 408.18V397.45L675.41 387.05Z" fill="#56ABDD"/>
<path d="M675.41 387.05L693.62 376.32L712.02 386.94L693.62 397.45L675.41 387.05Z" fill="#009BDD"/>
<path d="M712.02 386.94V397.45L693.62 408.18V397.45L712.02 386.94Z" fill="#2B73B5"/>
<path d="M647.9 402.98V413.39L666.11 424.12V413.39L647.9 402.98Z" fill="#56ABDD"/>
<path d="M647.9 402.98L666.11 392.25L684.51 402.87L666.11 413.39L647.9 402.98Z" fill="#009BDD"/>
<path d="M684.51 402.87V413.39L666.11 424.12V413.39L684.51 402.87Z" fill="#2B73B5"/>
<path opacity="0.73" d="M621.35 384.14L620.42 75.7803C620.42 75.7803 647.99 80.4703 656.38 84.3403C672.51 91.7903 713.75 131.43 713.75 131.43L712.79 384.14L667.07 410.54L621.35 384.14Z" fill="url(#paint32_linear_44_2)"/>
<path d="M184.5 524.66V535.07L202.71 545.8V535.07L184.5 524.66Z" fill="#56ABDD"/>
<path d="M184.5 524.661L202.71 513.931L221.11 524.561L202.71 535.071L184.5 524.661Z" fill="#009BDD"/>
<path d="M221.11 524.561V535.071L202.71 545.801V535.071L221.11 524.561Z" fill="#2B73B5"/>
<path d="M156.99 540.601V551.001L175.2 561.741V551.001L156.99 540.601Z" fill="#56ABDD"/>
<path d="M156.99 540.601L175.2 529.871L193.6 540.491L175.2 551.001L156.99 540.601Z" fill="#009BDD"/>
<path d="M193.6 540.49V551L175.2 561.74V551L193.6 540.49Z" fill="#2B73B5"/>
<path d="M212.05 540.601V551.001L230.26 561.741V551.001L212.05 540.601Z" fill="#56ABDD"/>
<path d="M212.05 540.601L230.26 529.871L248.66 540.491L230.26 551.001L212.05 540.601Z" fill="#009BDD"/>
<path d="M248.66 540.49V551L230.26 561.74V551L248.66 540.49Z" fill="#2B73B5"/>
<path d="M184.54 556.53V566.94L202.75 577.67V566.94L184.54 556.53Z" fill="#56ABDD"/>
<path d="M184.54 556.531L202.75 545.801L221.15 556.421L202.75 566.941L184.54 556.531Z" fill="#009BDD"/>
<path d="M221.15 556.421V566.941L202.75 577.671V566.941L221.15 556.421Z" fill="#2B73B5"/>
<path opacity="0.73" d="M156.99 540.69L156.06 69.9104C156.06 69.9104 183.01 62.5404 192.02 60.4904C229.63 51.9304 249.39 47.6504 249.39 47.6504L248.43 540.7L202.71 567.1L156.99 540.69Z" fill="url(#paint33_linear_44_2)"/>
<g opacity="0.5">
<path d="M204.241 481.18C201.121 480.98 198.761 478.27 198.961 475.14C199.151 472.01 201.831 469.61 204.951 469.81C208.041 470.01 210.401 472.73 210.211 475.85C210.011 478.99 207.341 481.38 204.241 481.18Z" fill="url(#paint34_radial_44_2)"/>
<path d="M204.96 515.57C202.14 515.39 200.01 512.94 200.18 510.1C200.36 507.26 202.78 505.09 205.6 505.27C208.41 505.45 210.54 507.9 210.37 510.74C210.19 513.59 207.77 515.75 204.96 515.57Z" fill="url(#paint35_radial_44_2)"/>
<path d="M192.98 503.63C191.22 503.52 189.87 501.99 189.98 500.21C190.09 498.42 191.61 497.07 193.38 497.18C195.14 497.29 196.49 498.82 196.37 500.61C196.26 502.39 194.74 503.74 192.98 503.63Z" fill="url(#paint36_radial_44_2)"/>
<path d="M187.5 456.94C184.69 456.76 182.54 454.31 182.72 451.47C182.9 448.63 185.32 446.46 188.14 446.64C190.95 446.82 193.08 449.27 192.91 452.11C192.73 454.96 190.31 457.12 187.5 456.94Z" fill="url(#paint37_radial_44_2)"/>
<path d="M186.22 477.49C184.46 477.38 183.12 475.85 183.23 474.07C183.34 472.29 184.86 470.93 186.62 471.04C188.38 471.15 189.73 472.69 189.62 474.47C189.5 476.25 187.98 477.6 186.22 477.49Z" fill="url(#paint38_radial_44_2)"/>
<path d="M165.42 453.41C163.66 453.3 162.31 451.77 162.42 449.98C162.445 449.558 162.552 449.145 162.736 448.765C162.92 448.385 163.178 448.045 163.494 447.764C163.809 447.484 164.178 447.268 164.577 447.13C164.976 446.992 165.399 446.934 165.82 446.96C167.58 447.07 168.93 448.6 168.81 450.39C168.7 452.17 167.18 453.52 165.42 453.41Z" fill="url(#paint39_radial_44_2)"/>
<path d="M176.19 429.02C174.43 428.91 173.09 427.38 173.2 425.59C173.31 423.81 174.83 422.45 176.59 422.57C178.35 422.68 179.7 424.22 179.58 426C179.558 426.421 179.452 426.834 179.269 427.215C179.086 427.595 178.829 427.935 178.514 428.216C178.199 428.497 177.832 428.712 177.433 428.85C177.034 428.988 176.611 429.046 176.19 429.02Z" fill="url(#paint40_radial_44_2)"/>
<path d="M207.54 438.23C204.73 438.05 202.59 435.6 202.76 432.76C202.94 429.92 205.37 427.76 208.18 427.93C210.99 428.11 213.12 430.56 212.95 433.4C212.77 436.25 210.35 438.41 207.54 438.23Z" fill="url(#paint41_radial_44_2)"/>
<path d="M216.361 450.38C214.601 450.27 213.261 448.74 213.371 446.95C213.481 445.17 215.001 443.81 216.761 443.92C218.521 444.03 219.871 445.57 219.761 447.35C219.651 449.14 218.121 450.49 216.361 450.38Z" fill="url(#paint42_radial_44_2)"/>
<path d="M195.56 426.3C193.8 426.19 192.45 424.65 192.56 422.87C192.67 421.08 194.2 419.73 195.96 419.84C197.72 419.95 199.06 421.48 198.95 423.27C198.84 425.06 197.32 426.41 195.56 426.3Z" fill="url(#paint43_radial_44_2)"/>
<path d="M214.49 516.16C205.99 515.62 199.54 508.23 200.08 499.64C200.61 491.06 207.93 484.53 216.42 485.07C224.91 485.61 231.36 493.01 230.83 501.59C230.3 510.17 222.99 516.69 214.49 516.16Z" fill="url(#paint44_radial_44_2)"/>
<path d="M231.63 521.99C223.14 521.45 216.68 514.05 217.22 505.47C217.75 496.89 225.07 490.36 233.56 490.9C242.05 491.44 248.51 498.83 247.97 507.42C247.44 516 240.12 522.53 231.63 521.99Z" fill="url(#paint45_radial_44_2)"/>
<path d="M229.46 501.21C220.97 500.67 214.52 493.27 215.05 484.69C215.58 476.11 222.9 469.58 231.39 470.12C239.88 470.66 246.33 478.05 245.8 486.64C245.26 495.22 237.95 501.74 229.46 501.21Z" fill="url(#paint46_radial_44_2)"/>
<path d="M194.12 476.42C188.76 476.08 184.68 471.41 185.02 465.99C185.36 460.58 189.98 456.45 195.34 456.8C200.7 457.14 204.78 461.82 204.44 467.22C204.1 472.64 199.49 476.76 194.12 476.42Z" fill="url(#paint47_radial_44_2)"/>
<path d="M226.443 416.121C217.953 415.581 211.493 408.181 212.033 399.601C212.563 391.021 219.883 384.491 228.373 385.031C236.863 385.571 243.313 392.971 242.783 401.551C242.253 410.131 234.933 416.661 226.443 416.121Z" fill="url(#paint48_radial_44_2)"/>
<path d="M188.7 502.47C180.21 501.93 173.75 494.53 174.29 485.95C174.82 477.37 182.14 470.84 190.63 471.38C199.12 471.92 205.57 479.32 205.04 487.9C204.5 496.48 197.19 503 188.7 502.47Z" fill="url(#paint49_radial_44_2)"/>
<path d="M202.59 421.11C197.89 420.81 194.32 416.72 194.61 411.97C194.91 407.23 198.96 403.62 203.66 403.91C208.35 404.21 211.93 408.3 211.63 413.05C211.34 417.8 207.29 421.41 202.59 421.11Z" fill="url(#paint50_radial_44_2)"/>
<path d="M191.16 431.52C189.39 431.41 188.06 429.87 188.17 428.09C188.28 426.3 189.8 424.95 191.56 425.06C193.32 425.17 194.66 426.7 194.55 428.49C194.44 430.28 192.92 431.63 191.16 431.52Z" fill="url(#paint51_radial_44_2)"/>
<path d="M178.091 478.82C176.331 478.71 174.991 477.18 175.101 475.4C175.211 473.61 176.731 472.26 178.491 472.38C180.251 472.49 181.601 474.02 181.491 475.81C181.465 476.231 181.357 476.643 181.172 477.022C180.988 477.401 180.73 477.74 180.414 478.02C180.098 478.299 179.731 478.514 179.332 478.651C178.933 478.789 178.511 478.846 178.091 478.82Z" fill="url(#paint52_radial_44_2)"/>
</g>
<path d="M195.241 377.41C192.121 377.21 189.761 374.5 189.961 371.37C190.151 368.24 192.831 365.84 195.951 366.04C199.041 366.24 201.401 368.96 201.211 372.08C201.011 375.21 198.341 377.6 195.241 377.41Z" fill="url(#paint53_radial_44_2)"/>
<path d="M195.96 411.801C193.14 411.621 191.01 409.171 191.18 406.331C191.36 403.491 193.78 401.321 196.6 401.501C199.41 401.681 201.54 404.131 201.37 406.971C201.19 409.811 198.77 411.971 195.96 411.801Z" fill="url(#paint54_radial_44_2)"/>
<path d="M183.98 399.861C182.22 399.751 180.87 398.221 180.98 396.441C181.09 394.651 182.61 393.301 184.38 393.411C186.14 393.521 187.49 395.051 187.37 396.841C187.26 398.621 185.74 399.971 183.98 399.861Z" fill="url(#paint55_radial_44_2)"/>
<path d="M178.5 353.16C175.69 352.98 173.54 350.53 173.72 347.69C173.9 344.85 176.32 342.68 179.14 342.86C181.95 343.04 184.08 345.49 183.91 348.33C183.73 351.18 181.31 353.34 178.5 353.16Z" fill="url(#paint56_radial_44_2)"/>
<path d="M177.22 373.71C175.46 373.6 174.12 372.07 174.23 370.28C174.34 368.5 175.86 367.14 177.62 367.26C179.38 367.37 180.73 368.91 180.62 370.69C180.5 372.47 178.98 373.82 177.22 373.71Z" fill="url(#paint57_radial_44_2)"/>
<path d="M156.42 349.631C154.66 349.521 153.31 347.991 153.42 346.201C153.445 345.779 153.552 345.366 153.736 344.986C153.92 344.606 154.178 344.266 154.494 343.985C154.809 343.705 155.178 343.489 155.577 343.351C155.976 343.213 156.399 343.155 156.82 343.181C158.58 343.291 159.93 344.821 159.81 346.611C159.7 348.391 158.18 349.741 156.42 349.631Z" fill="url(#paint58_radial_44_2)"/>
<path d="M167.19 325.241C165.43 325.131 164.09 323.601 164.2 321.811C164.31 320.031 165.83 318.671 167.59 318.781C169.35 318.891 170.7 320.431 170.58 322.211C170.559 322.633 170.454 323.047 170.271 323.428C170.089 323.81 169.833 324.151 169.517 324.433C169.202 324.715 168.834 324.931 168.435 325.07C168.035 325.209 167.612 325.267 167.19 325.241Z" fill="url(#paint59_radial_44_2)"/>
<path d="M198.54 334.461C195.73 334.281 193.59 331.831 193.76 328.991C193.94 326.151 196.37 323.991 199.18 324.161C201.99 324.341 204.12 326.791 203.95 329.631C203.77 332.481 201.35 334.641 198.54 334.461Z" fill="url(#paint60_radial_44_2)"/>
<path d="M207.361 346.6C205.601 346.49 204.261 344.96 204.371 343.17C204.481 341.39 206.001 340.03 207.761 340.14C209.521 340.25 210.871 341.79 210.761 343.57C210.651 345.36 209.121 346.71 207.361 346.6Z" fill="url(#paint61_radial_44_2)"/>
<path d="M186.56 322.521C184.8 322.411 183.45 320.871 183.56 319.101C183.67 317.311 185.2 315.961 186.96 316.071C188.72 316.181 190.06 317.711 189.95 319.501C189.84 321.281 188.32 322.631 186.56 322.521Z" fill="url(#paint62_radial_44_2)"/>
<path d="M206.49 412.38C197.99 411.84 191.54 404.45 192.08 395.86C192.61 387.28 199.93 380.75 208.42 381.29C216.91 381.83 223.36 389.23 222.83 397.81C222.3 406.39 214.99 412.92 206.49 412.38Z" fill="url(#paint63_radial_44_2)"/>
<path d="M223.63 418.221C215.14 417.681 208.68 410.281 209.22 401.701C209.75 393.121 217.07 386.591 225.56 387.131C234.05 387.671 240.51 395.071 239.97 403.651C239.44 412.231 232.12 418.751 223.63 418.221Z" fill="url(#paint64_radial_44_2)"/>
<path d="M221.46 397.431C212.97 396.891 206.52 389.491 207.05 380.911C207.58 372.331 214.9 365.801 223.39 366.341C231.88 366.881 238.33 374.271 237.8 382.861C237.26 391.441 229.95 397.971 221.46 397.431Z" fill="url(#paint65_radial_44_2)"/>
<path d="M184.91 372.641C179.55 372.301 175.47 367.631 175.81 362.211C176.15 356.801 180.77 352.671 186.13 353.021C191.49 353.361 195.57 358.041 195.23 363.441C194.89 368.861 190.28 372.981 184.91 372.641Z" fill="url(#paint66_radial_44_2)"/>
<path d="M172.443 353.121C163.953 352.581 157.493 345.181 158.033 336.601C158.563 328.021 165.883 321.491 174.373 322.031C182.863 322.571 189.313 329.971 188.783 338.551C188.253 347.131 180.933 353.661 172.443 353.121ZM178.443 406.121C169.953 405.581 163.493 398.181 164.033 389.601C164.563 381.021 171.883 374.491 180.373 375.031C188.863 375.571 195.313 382.971 194.783 391.551C194.243 400.131 186.933 406.661 178.443 406.121Z" fill="url(#paint67_radial_44_2)"/>
<path d="M193.38 317.34C188.68 317.04 185.11 312.95 185.4 308.2C185.7 303.46 189.75 299.85 194.45 300.14C199.14 300.44 202.72 304.53 202.42 309.28C202.13 314.02 198.08 317.64 193.38 317.34Z" fill="url(#paint68_radial_44_2)"/>
<path d="M181.95 327.741C180.18 327.631 178.85 326.091 178.96 324.311C179.07 322.521 180.59 321.171 182.35 321.281C184.11 321.391 185.45 322.921 185.34 324.711C185.23 326.501 183.71 327.861 181.95 327.741Z" fill="url(#paint69_radial_44_2)"/>
<path d="M170.091 375.05C168.331 374.94 166.991 373.41 167.101 371.63C167.211 369.84 168.731 368.49 170.491 368.61C172.251 368.72 173.601 370.25 173.491 372.04C173.437 372.889 173.05 373.683 172.412 374.247C171.775 374.811 170.94 375.1 170.091 375.05Z" fill="url(#paint70_radial_44_2)"/>
<path d="M186.27 483.54L223.89 434.17L187.87 388.28L218.08 327.71" stroke="white" stroke-width="2.127"/>
<path d="M182.52 465.19L174 476.69L179.62 489.81L188.18 478.26L182.52 465.19Z" fill="#00DDD2"/>
<path d="M202.48 479.891L188.18 478.261L179.62 489.811L193.97 491.591L202.48 479.891Z" fill="#00CCBD"/>
<path d="M196.75 466.7L182.52 465.19L188.18 478.26L202.48 479.89L196.75 466.7Z" fill="#00FFEC"/>
<path d="M209.86 436.581L219.01 447.591L233.09 445.231L223.89 434.171L209.86 436.581Z" fill="#00DDD2"/>
<path d="M228.88 420.681L223.89 434.171L233.09 445.231L238.22 431.711L228.88 420.681Z" fill="#00CCBD"/>
<path d="M214.7 423.111L209.86 436.581L223.89 434.171L228.88 420.681L214.7 423.111Z" fill="#00FFEC"/>
<path d="M193.38 375.15L179.18 376.96L173.6 390.1L187.87 388.28L193.38 375.15Z" fill="#FF277F"/>
<path d="M196.58 399.73L187.87 388.28L173.6 390.1L182.25 401.68L196.58 399.73Z" fill="#741AAC"/>
<path d="M202.14 386.47L193.38 375.15L187.87 388.28L196.58 399.73L202.14 386.47Z" fill="#C71AAC"/>
<path d="M223.59 314.58L209.39 316.39L203.81 329.53L218.08 327.71L223.59 314.58Z" fill="#009BDD"/>
<path d="M226.79 339.17L218.08 327.71L203.81 329.53L212.46 341.12L226.79 339.17Z" fill="#2B73B5"/>
<path d="M232.35 325.9L223.59 314.58L218.08 327.71L226.79 339.17L232.35 325.9Z" fill="#56ABDD"/>
<path opacity="0.2" d="M291.91 268.88C291.91 276.59 285.66 282.84 277.95 282.84C270.24 282.84 263.99 276.59 263.99 268.88C263.99 261.17 270.24 254.92 277.95 254.92C285.66 254.92 291.91 261.17 291.91 268.88Z" fill="white"/>
<path opacity="0.3" d="M287.63 268.88C287.63 274.22 283.3 278.56 277.95 278.56C272.61 278.56 268.27 274.23 268.27 268.88C268.27 263.54 272.6 259.2 277.95 259.2C283.29 259.2 287.63 263.54 287.63 268.88Z" fill="white"/>
<path d="M457.56 369.05C457.56 369.05 490.86 393.79 499.74 397.28C508.62 400.77 511.79 400.13 522.89 402.99C533.99 405.84 557.46 409.33 570.46 413.77C583.46 418.21 593.61 423.92 593.61 423.92C593.61 423.92 588.22 414.72 589.17 410.92C590.12 407.12 590.12 404.89 590.12 404.89C590.12 404.89 584.09 404.26 575.85 398.86C567.6 393.47 552.38 380.78 533.99 376.98C515.6 373.17 508.3 374.44 508.3 374.44L471.2 337.65L457.56 369.05Z" fill="url(#paint71_linear_44_2)"/>
<path d="M590.12 404.881L597.31 402.031C597.31 402.031 602.81 398.651 608.09 402.881C613.38 407.111 617.18 416.201 619.3 418.311C621.41 420.421 627.54 421.691 630.93 429.521C634.31 437.341 632.62 445.171 630.51 449.391C628.4 453.621 625.44 454.251 624.17 453.831C622.9 453.411 610.64 437.971 607.04 435.011C603.45 432.051 593.61 423.911 593.61 423.911C593.61 423.911 587.8 415.771 589.17 410.911C590.55 406.051 590.12 404.881 590.12 404.881Z" fill="#A91AAC"/>
<path d="M619.3 418.311C617.19 416.201 613.38 407.101 608.09 402.881C602.8 398.651 597.31 402.031 597.31 402.031L596.19 402.481C595.01 404.031 593.54 406.631 593.93 409.641C594.56 414.501 598.79 419.371 603.66 424.021C608.52 428.671 614.65 434.801 616.77 438.611C618.11 441.021 620.72 447.741 623.04 452.841C623.59 453.411 623.99 453.771 624.17 453.831C625.44 454.251 628.4 453.621 630.51 449.391C632.62 445.161 634.32 437.341 630.93 429.521C627.55 421.691 621.42 420.421 619.3 418.311Z" fill="black"/>
<path d="M458.62 372.221L473.84 395.691C473.84 395.691 493.5 429.101 493.29 432.691C493.08 436.281 485.68 446.011 478.91 442.631C472.14 439.251 467.49 432.271 462.84 427.411C458.19 422.551 426.9 392.951 426.9 392.951L458.62 372.221Z" fill="url(#paint72_linear_44_2)"/>
<path d="M501.54 357.42C501.54 357.42 497.52 351.45 496.73 350.02C495.94 348.59 492.45 340.98 497.52 336.86C502.59 332.74 509.41 333.85 514.17 334.48C518.93 335.11 520.83 337.18 522.26 336.38C523.69 335.59 526.07 331.62 530.51 330.99C534.95 330.36 545.57 332.1 551.44 336.86C557.31 341.62 550.49 347.48 542.08 349.23C533.68 350.97 526.06 356.68 522.73 359.06C519.4 361.44 516.12 363.34 516.12 363.34C516.12 363.34 514.8 357.63 511.15 356.52C507.51 355.41 501.54 357.42 501.54 357.42Z" fill="#A91AAC"/>
<path d="M551.43 336.86C545.56 332.1 534.94 330.36 530.5 330.99C526.06 331.62 523.68 335.59 522.25 336.38C520.82 337.17 518.92 335.11 514.16 334.48C509.4 333.85 502.58 332.74 497.51 336.86C492.44 340.98 495.92 348.59 496.72 350.02C496.8 350.16 496.91 350.35 497.04 350.57C499.61 351.1 504.5 351.94 508.29 351.61C513.68 351.13 516.85 348.44 523.2 348.76C529.05 349.05 547.73 348.66 553.56 341.38C553.83 339.86 553.22 338.31 551.43 336.86Z" fill="black"/>
<path d="M315.7 239.88C315.7 239.88 316.26 245.82 317.43 248.41C318.61 251 322.35 255.29 324.53 258.2C326.71 261.11 326.62 263.52 329.94 262.13C333.26 260.74 340.47 255.49 340.47 255.49L315.7 239.88Z" fill="url(#paint73_linear_44_2)"/>
<path d="M366.41 266.63C366.41 266.63 361.8 288.7 358.94 298.27C356.07 307.84 351.32 317.03 348.04 317.26C344.77 317.48 337.1 316.99 327.18 308.61C317.26 300.23 305.64 293.54 303.01 292.95C300.38 292.36 294.55 292.42 291.88 288.61C289.21 284.8 284.55 279.16 285.05 277.5C285.55 275.84 291.93 272.38 293.82 272.75C295.71 273.12 303.66 276.7 306.02 280.21C308.38 283.72 310.18 287.07 316.18 290.47C322.18 293.87 328.03 294.42 334.41 296.53L340.79 298.64C340.79 298.64 345.12 273.48 348.08 268.95C351.04 264.42 354.42 259.82 360.9 260.96C367.36 262.11 366.41 266.63 366.41 266.63Z" fill="url(#paint74_linear_44_2)"/>
<path d="M391.6 342.41C391.6 342.41 393.82 353.83 400.48 366.51C407.14 379.2 410.63 387.76 412.85 391.88C415.07 396 418.56 395.37 425.22 393.78C431.88 392.19 432.83 390.29 437.59 388.71C442.35 387.12 454.4 383 457.57 375.07C460.74 367.14 460.11 363.02 463.6 360.16C467.09 357.31 469.94 351.6 471.21 344.3C472.48 337.01 473.75 330.03 473.11 325.27C472.48 320.51 468.04 316.71 468.04 316.71C468.04 316.71 462.01 318.3 452.18 312.9C442.35 307.51 436.32 307.83 429.03 306.56C421.74 305.29 414.44 305.29 414.44 305.29" fill="url(#paint75_linear_44_2)"/>
<path d="M345.51 267.351C345.51 267.351 341.92 284.051 343.4 289.761C344.88 295.471 347.63 307.101 353.34 308.791C359.05 310.481 364.97 309.001 364.97 309.001C364.97 309.001 377.44 321.901 382.73 329.931C388.02 337.961 391.61 342.401 391.61 342.401C391.61 342.401 398.59 344.301 405.56 333.311C412.54 322.321 416.77 305.611 412.96 302.441C409.15 299.271 407.89 299.271 405.77 297.151C403.66 295.041 371.73 269.881 371.73 269.881L345.51 267.351Z" fill="url(#paint76_linear_44_2)"/>
<path d="M356.91 275.851C356.91 275.851 380.91 282.191 391.27 285.891C401.62 289.591 411.46 295.351 411.52 298.971C411.58 302.581 410.59 310.991 400.8 321.411C391.01 331.831 382.99 344.231 382.19 347.091C381.39 349.951 381.12 356.361 376.78 359.081C372.44 361.791 365.79 363.461 363.99 362.821C362.2 362.181 358.94 358.101 359.46 356.041C359.97 353.981 364.37 345.451 368.37 343.061C372.37 340.671 376.15 338.881 380.23 332.481C384.31 326.081 385.25 319.681 387.94 312.781L390.63 305.881C390.63 305.881 363.21 299.671 358.41 296.161C353.6 292.651 348.74 288.661 350.36 281.611C351.99 274.541 356.91 275.851 356.91 275.851Z" fill="url(#paint77_linear_44_2)"/>
<path d="M477.65 441.99C477.65 441.99 469.19 429.94 469.83 417.25C470.46 404.56 471.94 396.95 475.96 391.03C479.98 385.11 490.13 375.81 495.62 367.99C501.12 360.17 501.54 357.42 501.54 357.42C501.54 357.42 508.73 355.09 512.53 357.42C516.34 359.75 516.12 363.34 516.12 363.34C516.12 363.34 501.11 398.65 497.94 409.22C494.77 419.79 494.34 430.15 493.29 433.53C492.24 436.91 486.95 446.64 477.65 441.99Z" fill="url(#paint78_linear_44_2)"/>
<path d="M306.4 293.781C306.4 293.781 303.01 292.941 300.06 292.511C297.11 292.081 294.77 291.241 292.66 290.401C290.55 289.551 289.28 295.051 287.59 295.471C285.9 295.891 286.32 291.881 286.74 290.401C287.16 288.921 290.55 285.111 292.66 282.151C294.77 279.191 291.6 276.231 291.6 276.231C291.6 276.231 280.18 271.161 279.13 269.041C278.07 266.931 281.03 267.141 288.01 269.671C294.99 272.211 299.85 274.741 299.85 274.741C299.85 274.741 304.16 276.991 306.02 280.201" fill="white"/>
<path d="M316 196.61C316 196.61 328.53 184.72 347.74 193.03C363.83 199.99 364.01 209.94 374 216.88C380.88 221.66 401.38 232.66 422.38 228.33C443.38 224.01 464.14 230.92 479.58 250.45C495.01 269.98 499.79 281.14 499.79 281.14C499.79 281.14 474.47 278.1 457.43 292C440.38 305.89 402.57 305.55 381.49 297.54C360.41 289.53 346.85 274.58 342.94 268.02C339.03 261.46 336.24 255.58 329.47 252.77C322.71 249.96 304.64 235.59 305.15 222.44C305.65 209.31 308.27 203.15 316 196.61Z" fill="url(#paint79_linear_44_2)"/>
<path opacity="0.3" d="M422.38 228.34C401.38 232.66 380.88 221.66 374 216.89C364 209.95 363.82 200 347.74 193.04C328.66 184.79 316.18 196.45 316.01 196.61C335.24 189.61 344.02 196.02 353.51 207.87C369.49 227.85 385.46 247.06 408.88 245.55C426.58 244.41 447.13 239.84 461.4 249.55C475.67 259.25 480.81 267.25 480.81 267.25C480.81 267.25 460.26 256.4 438 257.55C415.74 258.69 394.62 255.84 379.77 246.7C364.93 237.57 355.22 222.72 355.22 222.72C355.22 222.72 361.65 263.3 414.59 264.39C469.96 265.53 464.82 269.53 478.71 282.39C490.12 279.99 499.8 281.15 499.8 281.15C499.8 281.15 495.02 269.99 479.59 250.46C464.14 230.93 443.38 224.01 422.38 228.34Z" fill="url(#paint80_linear_44_2)"/>
<g opacity="0.5">
<path d="M669.24 332.18C666.12 331.98 663.76 329.27 663.96 326.14C664.15 323.01 666.83 320.61 669.95 320.81C673.04 321.01 675.4 323.73 675.21 326.85C675.01 329.99 672.34 332.38 669.24 332.18Z" fill="url(#paint81_radial_44_2)"/>
<path d="M669.96 366.57C667.14 366.39 665.01 363.94 665.18 361.1C665.36 358.26 667.78 356.09 670.6 356.27C673.41 356.45 675.54 358.9 675.37 361.74C675.19 364.59 672.77 366.75 669.96 366.57Z" fill="url(#paint82_radial_44_2)"/>
<path d="M657.98 354.63C656.22 354.52 654.87 352.99 654.98 351.21C655.09 349.42 656.61 348.07 658.38 348.18C660.14 348.29 661.49 349.82 661.37 351.61C661.26 353.39 659.74 354.74 657.98 354.63Z" fill="url(#paint83_radial_44_2)"/>
<path d="M652.5 307.94C649.69 307.76 647.54 305.31 647.72 302.47C647.9 299.63 650.32 297.46 653.14 297.64C655.95 297.82 658.08 300.27 657.91 303.11C657.73 305.96 655.31 308.12 652.5 307.94Z" fill="url(#paint84_radial_44_2)"/>
<path d="M651.22 328.49C649.46 328.38 648.12 326.85 648.23 325.07C648.34 323.29 649.86 321.93 651.62 322.04C653.38 322.15 654.73 323.69 654.62 325.47C654.5 327.25 652.98 328.6 651.22 328.49Z" fill="url(#paint85_radial_44_2)"/>
<path d="M630.42 304.41C628.66 304.3 627.31 302.77 627.42 300.98C627.445 300.558 627.552 300.145 627.736 299.765C627.92 299.385 628.178 299.045 628.494 298.764C628.809 298.484 629.178 298.268 629.577 298.13C629.976 297.992 630.399 297.934 630.82 297.96C632.58 298.07 633.93 299.6 633.81 301.39C633.7 303.17 632.18 304.52 630.42 304.41Z" fill="url(#paint86_radial_44_2)"/>
<path d="M641.19 280.02C639.43 279.91 638.09 278.38 638.2 276.59C638.31 274.81 639.83 273.45 641.59 273.57C643.35 273.68 644.7 275.22 644.58 277C644.558 277.421 644.452 277.834 644.269 278.215C644.086 278.595 643.829 278.935 643.514 279.216C643.199 279.497 642.832 279.712 642.433 279.85C642.034 279.988 641.611 280.046 641.19 280.02Z" fill="url(#paint87_radial_44_2)"/>
<path d="M672.54 289.23C669.73 289.05 667.59 286.6 667.76 283.76C667.94 280.92 670.37 278.76 673.18 278.93C675.99 279.11 678.12 281.56 677.95 284.4C677.77 287.25 675.35 289.41 672.54 289.23Z" fill="url(#paint88_radial_44_2)"/>
<path d="M681.361 301.38C679.601 301.27 678.261 299.74 678.371 297.95C678.481 296.17 680.001 294.81 681.761 294.92C683.521 295.03 684.871 296.57 684.761 298.35C684.651 300.14 683.121 301.49 681.361 301.38Z" fill="url(#paint89_radial_44_2)"/>
<path d="M660.56 277.3C658.8 277.19 657.45 275.65 657.56 273.87C657.67 272.08 659.2 270.73 660.96 270.84C662.72 270.95 664.06 272.48 663.95 274.27C663.84 276.06 662.32 277.41 660.56 277.3Z" fill="url(#paint90_radial_44_2)"/>
<path d="M679.49 367.16C670.99 366.62 664.54 359.23 665.08 350.64C665.61 342.06 672.93 335.53 681.42 336.07C689.91 336.61 696.36 344.01 695.83 352.59C695.3 361.17 687.99 367.69 679.49 367.16Z" fill="url(#paint91_radial_44_2)"/>
<path d="M696.63 372.99C688.14 372.45 681.68 365.05 682.22 356.47C682.75 347.89 690.07 341.36 698.56 341.9C707.05 342.44 713.51 349.83 712.97 358.42C712.44 367 705.12 373.53 696.63 372.99Z" fill="url(#paint92_radial_44_2)"/>
<path d="M694.46 352.21C685.97 351.67 679.52 344.27 680.05 335.69C680.58 327.11 687.9 320.58 696.39 321.12C704.88 321.66 711.33 329.05 710.8 337.64C710.26 346.22 702.95 352.74 694.46 352.21Z" fill="url(#paint93_radial_44_2)"/>
<path d="M659.12 327.42C653.76 327.08 649.68 322.41 650.02 316.99C650.36 311.58 654.98 307.45 660.34 307.8C665.7 308.14 669.78 312.82 669.44 318.22C669.1 323.64 664.49 327.76 659.12 327.42Z" fill="url(#paint94_radial_44_2)"/>
<path d="M691.443 267.121C682.953 266.581 676.493 259.181 677.033 250.601C677.563 242.021 684.883 235.491 693.373 236.031C701.863 236.571 708.313 243.971 707.783 252.551C707.253 261.131 699.933 267.661 691.443 267.121Z" fill="url(#paint95_radial_44_2)"/>
<path d="M653.7 353.47C645.21 352.93 638.75 345.53 639.29 336.95C639.82 328.37 647.14 321.84 655.63 322.38C664.12 322.92 670.57 330.32 670.04 338.9C669.5 347.48 662.19 354 653.7 353.47Z" fill="url(#paint96_radial_44_2)"/>
<path d="M667.59 272.11C662.89 271.81 659.32 267.72 659.61 262.97C659.91 258.23 663.96 254.62 668.66 254.91C673.35 255.21 676.93 259.3 676.63 264.05C676.34 268.8 672.29 272.41 667.59 272.11Z" fill="url(#paint97_radial_44_2)"/>
<path d="M656.16 282.52C654.39 282.41 653.06 280.87 653.17 279.09C653.28 277.3 654.8 275.95 656.56 276.06C658.32 276.17 659.66 277.7 659.55 279.49C659.44 281.28 657.92 282.63 656.16 282.52Z" fill="url(#paint98_radial_44_2)"/>
<path d="M643.09 329.82C641.33 329.71 639.99 328.18 640.1 326.4C640.21 324.61 641.73 323.26 643.49 323.38C645.25 323.49 646.6 325.02 646.49 326.81C646.465 327.231 646.356 327.643 646.172 328.022C645.987 328.401 645.729 328.74 645.414 329.02C645.098 329.299 644.73 329.514 644.332 329.651C643.933 329.789 643.511 329.846 643.09 329.82Z" fill="url(#paint99_radial_44_2)"/>
</g>
<path d="M661.24 222.41C658.12 222.21 655.76 219.5 655.96 216.37C656.15 213.24 658.83 210.84 661.95 211.04C665.04 211.24 667.4 213.96 667.21 217.08C667.01 220.21 664.34 222.6 661.24 222.41Z" fill="url(#paint100_radial_44_2)"/>
<path d="M661.96 256.801C659.14 256.621 657.01 254.171 657.18 251.331C657.36 248.491 659.78 246.321 662.6 246.501C665.41 246.681 667.54 249.131 667.37 251.971C667.19 254.811 664.77 256.971 661.96 256.801Z" fill="url(#paint101_radial_44_2)"/>
<path d="M649.98 244.861C648.22 244.751 646.87 243.221 646.98 241.441C647.09 239.651 648.61 238.301 650.38 238.411C652.14 238.521 653.49 240.051 653.37 241.841C653.26 243.621 651.74 244.971 649.98 244.861Z" fill="url(#paint102_radial_44_2)"/>
<path d="M644.5 198.16C641.69 197.98 639.54 195.53 639.72 192.69C639.9 189.85 642.32 187.68 645.14 187.86C647.95 188.04 650.08 190.49 649.91 193.33C649.73 196.18 647.31 198.34 644.5 198.16Z" fill="url(#paint103_radial_44_2)"/>
<path d="M643.22 218.71C641.46 218.6 640.12 217.07 640.23 215.28C640.34 213.5 641.86 212.14 643.62 212.26C645.38 212.37 646.73 213.91 646.62 215.69C646.5 217.47 644.98 218.82 643.22 218.71Z" fill="url(#paint104_radial_44_2)"/>
<path d="M622.42 194.631C620.66 194.521 619.31 192.991 619.42 191.201C619.445 190.779 619.552 190.366 619.736 189.986C619.92 189.606 620.178 189.266 620.494 188.985C620.809 188.705 621.178 188.489 621.577 188.351C621.976 188.213 622.399 188.155 622.82 188.181C624.58 188.291 625.93 189.821 625.81 191.611C625.7 193.391 624.18 194.741 622.42 194.631Z" fill="url(#paint105_radial_44_2)"/>
<path d="M633.19 170.241C631.43 170.131 630.09 168.601 630.2 166.811C630.31 165.031 631.83 163.671 633.59 163.781C635.35 163.891 636.7 165.431 636.58 167.211C636.559 167.633 636.454 168.047 636.271 168.428C636.089 168.81 635.833 169.151 635.517 169.433C635.202 169.715 634.834 169.931 634.435 170.07C634.035 170.209 633.612 170.267 633.19 170.241Z" fill="url(#paint106_radial_44_2)"/>
<path d="M664.54 179.461C661.73 179.281 659.59 176.831 659.76 173.991C659.94 171.151 662.37 168.991 665.18 169.161C667.99 169.341 670.12 171.791 669.95 174.631C669.77 177.481 667.35 179.641 664.54 179.461Z" fill="url(#paint107_radial_44_2)"/>
<path d="M673.361 191.6C671.601 191.49 670.261 189.96 670.371 188.17C670.481 186.39 672.001 185.03 673.761 185.14C675.521 185.25 676.871 186.79 676.761 188.57C676.651 190.36 675.121 191.71 673.361 191.6Z" fill="url(#paint108_radial_44_2)"/>
<path d="M652.56 167.521C650.8 167.411 649.45 165.871 649.56 164.101C649.67 162.311 651.2 160.961 652.96 161.071C654.72 161.181 656.06 162.711 655.95 164.501C655.84 166.281 654.32 167.631 652.56 167.521Z" fill="url(#paint109_radial_44_2)"/>
<path d="M672.49 257.38C663.99 256.84 657.54 249.45 658.08 240.86C658.61 232.28 665.93 225.75 674.42 226.29C682.91 226.83 689.36 234.23 688.83 242.81C688.3 251.39 680.99 257.92 672.49 257.38Z" fill="url(#paint110_radial_44_2)"/>
<path d="M689.63 263.221C681.14 262.681 674.68 255.281 675.22 246.701C675.75 238.121 683.07 231.591 691.56 232.131C700.05 232.671 706.51 240.071 705.97 248.651C705.44 257.231 698.12 263.751 689.63 263.221Z" fill="url(#paint111_radial_44_2)"/>
<path d="M687.46 242.431C678.97 241.891 672.52 234.491 673.05 225.911C673.58 217.331 680.9 210.801 689.39 211.341C697.88 211.881 704.33 219.271 703.8 227.861C703.26 236.441 695.95 242.971 687.46 242.431Z" fill="url(#paint112_radial_44_2)"/>
<path d="M650.91 217.641C645.55 217.301 641.47 212.631 641.81 207.211C642.15 201.801 646.77 197.671 652.13 198.021C657.49 198.361 661.57 203.041 661.23 208.441C660.89 213.861 656.28 217.981 650.91 217.641Z" fill="url(#paint113_radial_44_2)"/>
<path d="M638.443 198.121C629.953 197.581 623.493 190.181 624.033 181.601C624.563 173.021 631.883 166.491 640.373 167.031C648.863 167.571 655.313 174.971 654.783 183.551C654.253 192.131 646.933 198.661 638.443 198.121ZM644.443 251.121C635.953 250.581 629.493 243.181 630.033 234.601C630.563 226.021 637.883 219.491 646.373 220.031C654.863 220.571 661.313 227.971 660.783 236.551C660.243 245.131 652.933 251.661 644.443 251.121Z" fill="url(#paint114_radial_44_2)"/>
<path d="M659.38 162.34C654.68 162.04 651.11 157.95 651.4 153.2C651.7 148.46 655.75 144.85 660.45 145.14C665.14 145.44 668.72 149.53 668.42 154.28C668.13 159.02 664.08 162.64 659.38 162.34Z" fill="url(#paint115_radial_44_2)"/>
<path d="M647.95 172.741C646.18 172.631 644.85 171.091 644.96 169.311C645.07 167.521 646.59 166.171 648.35 166.281C650.11 166.391 651.45 167.921 651.34 169.711C651.23 171.501 649.71 172.861 647.95 172.741Z" fill="url(#paint116_radial_44_2)"/>
<path d="M636.09 220.05C634.33 219.94 632.99 218.41 633.1 216.63C633.21 214.84 634.73 213.49 636.49 213.61C638.25 213.72 639.6 215.25 639.49 217.04C639.437 217.889 639.049 218.683 638.412 219.247C637.775 219.811 636.94 220.1 636.09 220.05Z" fill="url(#paint117_radial_44_2)"/>
<path d="M647.63 329.99L685.25 280.62L649.23 234.73L679.44 174.16" stroke="white" stroke-width="2.127"/>
<path d="M643.88 311.641L635.35 323.141L640.98 336.261L649.54 324.701L643.88 311.641Z" fill="#00DDD2"/>
<path d="M663.83 326.34L649.54 324.7L640.98 336.26L655.33 338.03L663.83 326.34Z" fill="#00CCBD"/>
<path d="M658.11 313.151L643.88 311.641L649.54 324.701L663.83 326.341L658.11 313.151Z" fill="#00FFEC"/>
<path d="M671.22 283.03L680.37 294.04L694.45 291.68L685.25 280.62L671.22 283.03Z" fill="#00DDD2"/>
<path d="M690.24 267.13L685.25 280.62L694.45 291.68L699.58 278.16L690.24 267.13Z" fill="#00CCBD"/>
<path d="M676.06 269.56L671.22 283.03L685.25 280.62L690.24 267.13L676.06 269.56Z" fill="#00FFEC"/>
<path d="M654.74 221.601L640.54 223.411L634.96 236.551L649.23 234.731L654.74 221.601Z" fill="#D9007F"/>
<path d="M657.94 246.18L649.23 234.73L634.96 236.55L643.61 248.13L657.94 246.18Z" fill="#AC006B"/>
<path d="M663.5 232.921L654.74 221.601L649.23 234.731L657.94 246.181L663.5 232.921Z" fill="#FF00A6"/>
<path d="M684.95 161.03L670.75 162.84L665.17 175.98L679.44 174.16L684.95 161.03Z" fill="#009BDD"/>
<path d="M688.15 185.61L679.44 174.16L665.17 175.98L673.82 187.57L688.15 185.61Z" fill="#2B73B5"/>
<path d="M693.71 172.35L684.95 161.03L679.44 174.16L688.15 185.61L693.71 172.35Z" fill="#56ABDD"/>
<defs>
<linearGradient id="paint0_linear_44_2" x1="21396.7" y1="13262.2" x2="45302.1" y2="47560.6" gradientUnits="userSpaceOnUse">
<stop stop-color="#270036"/>
<stop offset="0.5936" stop-color="#4F008B"/>
<stop offset="1" stop-color="#4C24B1"/>
</linearGradient>
<radialGradient id="paint1_radial_44_2" cx="0" cy="0" r="1" gradientUnits="userSpaceOnUse" gradientTransform="translate(20815.3 20794.3) scale(20664.5 20664.5)">
<stop stop-color="#3E82BF"/>
<stop offset="1" stop-color="#3E82BF" stop-opacity="0"/>
</radialGradient>
<linearGradient id="paint2_linear_44_2" x1="2421.12" y1="1450.84" x2="4659.29" y2="4817.27" gradientUnits="userSpaceOnUse">
<stop stop-color="#270036"/>
<stop offset="0.5936" stop-color="#4F008B"/>
<stop offset="1" stop-color="#4C24B1"/>
</linearGradient>
<linearGradient id="paint3_linear_44_2" x1="2413.08" y1="1675.74" x2="4363.59" y2="3913.98" gradientUnits="userSpaceOnUse">
<stop stop-color="#270036"/>
<stop offset="0.5936" stop-color="#4F008B"/>
<stop offset="1" stop-color="#4C24B1"/>
</linearGradient>
<linearGradient id="paint4_linear_44_2" x1="455.824" y1="3662.67" x2="11936.2" y2="3662.67" gradientUnits="userSpaceOnUse">
<stop stop-color="#B208AB"/>
<stop offset="1" stop-color="#4E0D98"/>
</linearGradient>
<linearGradient id="paint5_linear_44_2" x1="2039.21" y1="833.662" x2="4277.6" y2="4783.43" gradientUnits="userSpaceOnUse">
<stop stop-color="#270036"/>
<stop offset="0.5936" stop-color="#4F008B"/>
<stop offset="1" stop-color="#4C24B1"/>
</linearGradient>
<linearGradient id="paint6_linear_44_2" x1="3591.07" y1="2263" x2="6913.53" y2="5025.21" gradientUnits="userSpaceOnUse">
<stop stop-color="#270036"/>
<stop offset="0.5936" stop-color="#4F008B"/>
<stop offset="1" stop-color="#4C24B1"/>
</linearGradient>
<linearGradient id="paint7_linear_44_2" x1="256.037" y1="2958.9" x2="7048.1" y2="2958.9" gradientUnits="userSpaceOnUse">
<stop stop-color="#3F499C"/>
<stop offset="1" stop-color="#C619BB"/>
</linearGradient>
<linearGradient id="paint8_linear_44_2" x1="250.644" y1="2340.65" x2="6993.18" y2="2340.65" gradientUnits="userSpaceOnUse">
<stop stop-color="#3F499C"/>
<stop offset="1" stop-color="#C619BB"/>
</linearGradient>
<linearGradient id="paint9_linear_44_2" x1="198.57" y1="2668.8" x2="11008.2" y2="2668.8" gradientUnits="userSpaceOnUse">
<stop stop-color="#3F499C"/>
<stop offset="1" stop-color="#C619BB"/>
</linearGradient>
<linearGradient id="paint10_linear_44_2" x1="264.288" y1="3661.02" x2="11788.1" y2="3661.02" gradientUnits="userSpaceOnUse">
<stop stop-color="#3F499C"/>
<stop offset="1" stop-color="#C619BB"/>
</linearGradient>
<linearGradient id="paint11_linear_44_2" x1="328.569" y1="2868.59" x2="6004.31" y2="2868.59" gradientUnits="userSpaceOnUse">
<stop stop-color="#3F499C"/>
<stop offset="1" stop-color="#C619BB"/>
</linearGradient>
<linearGradient id="paint12_linear_44_2" x1="233.762" y1="3082.72" x2="7048.39" y2="3082.72" gradientUnits="userSpaceOnUse">
<stop stop-color="#4D1AA6"/>
<stop offset="1" stop-color="#E42D97"/>
</linearGradient>
<linearGradient id="paint13_linear_44_2" x1="228.522" y1="2442.08" x2="6993.45" y2="2442.08" gradientUnits="userSpaceOnUse">
<stop stop-color="#4D1AA6"/>
<stop offset="1" stop-color="#E42D97"/>
</linearGradient>
<linearGradient id="paint14_linear_44_2" x1="226.477" y1="3852.83" x2="11788.6" y2="3852.83" gradientUnits="userSpaceOnUse">
<stop stop-color="#4D1AA6"/>
<stop offset="1" stop-color="#E42D97"/>
</linearGradient>
<linearGradient id="paint15_linear_44_2" x1="309.946" y1="3070.55" x2="6004.54" y2="3070.55" gradientUnits="userSpaceOnUse">
<stop stop-color="#4D1AA6"/>
<stop offset="1" stop-color="#E42D97"/>
</linearGradient>
<linearGradient id="paint16_linear_44_2" x1="163.093" y1="2749.05" x2="11008.7" y2="2749.05" gradientUnits="userSpaceOnUse">
<stop stop-color="#4D1AA6"/>
<stop offset="1" stop-color="#E42D97"/>
</linearGradient>
<linearGradient id="paint17_linear_44_2" x1="597.645" y1="2441.77" x2="7267.21" y2="2441.77" gradientUnits="userSpaceOnUse">
<stop stop-color="#B32AFF"/>
<stop offset="1" stop-color="#4C24B1"/>
</linearGradient>
<linearGradient id="paint18_linear_44_2" x1="592.644" y1="3082.83" x2="7311.2" y2="3082.83" gradientUnits="userSpaceOnUse">
<stop stop-color="#B32AFF"/>
<stop offset="1" stop-color="#4C24B1"/>
</linearGradient>
<linearGradient id="paint19_linear_44_2" x1="681.018" y1="2748.71" x2="11373.7" y2="2748.71" gradientUnits="userSpaceOnUse">
<stop stop-color="#B32AFF"/>
<stop offset="1" stop-color="#4C24B1"/>
</linearGradient>
<linearGradient id="paint20_linear_44_2" x1="511.5" y1="3070.67" x2="6124.83" y2="3070.67" gradientUnits="userSpaceOnUse">
<stop stop-color="#B32AFF"/>
<stop offset="1" stop-color="#4C24B1"/>
</linearGradient>
<linearGradient id="paint21_linear_44_2" x1="620.784" y1="3851.88" x2="12019.9" y2="3851.88" gradientUnits="userSpaceOnUse">
<stop stop-color="#B32AFF"/>
<stop offset="1" stop-color="#4C24B1"/>
</linearGradient>
<linearGradient id="paint22_linear_44_2" x1="86.9604" y1="10386.3" x2="53285.5" y2="10386.3" gradientUnits="userSpaceOnUse">
<stop stop-color="#A1BAFF"/>
<stop offset="0.4332" stop-color="white"/>
</linearGradient>
<linearGradient id="paint23_linear_44_2" x1="90.6802" y1="16484.4" x2="52055.2" y2="16484.4" gradientUnits="userSpaceOnUse">
<stop stop-color="#3133AB"/>
<stop offset="0.1825" stop-color="#2E38B0"/>
<stop offset="0.4069" stop-color="#2647BD"/>
<stop offset="0.6533" stop-color="#1960D4"/>
<stop offset="0.9137" stop-color="#0783F3"/>
<stop offset="1" stop-color="#0090FF"/>
</linearGradient>
<linearGradient id="paint24_linear_44_2" x1="2382.55" y1="475.378" x2="2382.55" y2="9637.28" gradientUnits="userSpaceOnUse">
<stop stop-color="#311341"/>
<stop offset="0.2299" stop-color="#3113C2"/>
<stop offset="0.3479" stop-color="#2F18C5"/>
<stop offset="0.4931" stop-color="#2927CC"/>
<stop offset="0.6524" stop-color="#1F40D8"/>
<stop offset="0.8219" stop-color="#1263E9"/>
<stop offset="0.9978" stop-color="#008FFF"/>
<stop offset="1" stop-color="#0090FF"/>
</linearGradient>
<linearGradient id="paint25_linear_44_2" x1="85.4702" y1="15124.9" x2="7648.62" y2="15124.9" gradientUnits="userSpaceOnUse">
<stop stop-color="#7633FF"/>
<stop offset="0.1585" stop-color="#7137FF"/>
<stop offset="0.3535" stop-color="#6243FF"/>
<stop offset="0.5676" stop-color="#4957FF"/>
<stop offset="0.7937" stop-color="#2672FF"/>
<stop offset="1" stop-color="#0090FF"/>
</linearGradient>
<linearGradient id="paint26_linear_44_2" x1="87.506" y1="4974.84" x2="7476.36" y2="4974.84" gradientUnits="userSpaceOnUse">
<stop stop-color="#A1BAFF"/>
<stop offset="0.4332" stop-color="white"/>
</linearGradient>
<linearGradient id="paint27_linear_44_2" x1="534.548" y1="1430.74" x2="534.548" y2="19660.7" gradientUnits="userSpaceOnUse">
<stop stop-color="#A1BAFF"/>
<stop offset="0.4332" stop-color="white"/>
</linearGradient>
<linearGradient id="paint28_linear_44_2" x1="1040.91" y1="224.329" x2="1577.97" y2="22398.3" gradientUnits="userSpaceOnUse">
<stop stop-color="#A1BAFF"/>
<stop offset="0.4332" stop-color="white"/>
</linearGradient>
<linearGradient id="paint29_linear_44_2" x1="4725.73" y1="258.54" x2="3345.19" y2="7123.11" gradientUnits="userSpaceOnUse">
<stop stop-color="#88CFDA"/>
<stop offset="0.00834" stop-color="#89CFD9"/>
<stop offset="0.4784" stop-color="#C8D9BB"/>
<stop offset="0.8218" stop-color="#F0DFA7"/>
<stop offset="1" stop-color="#FFE1A0"/>
</linearGradient>
<linearGradient id="paint30_linear_44_2" x1="255.192" y1="1317.96" x2="2766.92" y2="1317.96" gradientUnits="userSpaceOnUse">
<stop stop-color="#7633FF"/>
<stop offset="0.1585" stop-color="#7137FF"/>
<stop offset="0.3535" stop-color="#6243FF"/>
<stop offset="0.5676" stop-color="#4957FF"/>
<stop offset="0.7937" stop-color="#2672FF"/>
<stop offset="1" stop-color="#0090FF"/>
</linearGradient>
<linearGradient id="paint31_linear_44_2" x1="56.1837" y1="1133.06" x2="1939.96" y2="1133.06" gradientUnits="userSpaceOnUse">
<stop stop-color="#7633FF"/>
<stop offset="0.1585" stop-color="#7137FF"/>
<stop offset="0.3535" stop-color="#6243FF"/>
<stop offset="0.5676" stop-color="#4957FF"/>
<stop offset="0.7937" stop-color="#2672FF"/>
<stop offset="1" stop-color="#0090FF"/>
</linearGradient>
<linearGradient id="paint32_linear_44_2" x1="5287.2" y1="32974" x2="5287.2" y2="787.147" gradientUnits="userSpaceOnUse">
<stop stop-color="#9311FF"/>
<stop offset="1" stop-color="#330050" stop-opacity="0"/>
</linearGradient>
<linearGradient id="paint33_linear_44_2" x1="4822.84" y1="51096.1" x2="4822.84" y2="1151.48" gradientUnits="userSpaceOnUse">
<stop stop-color="#9311FF"/>
<stop offset="1" stop-color="#330050" stop-opacity="0"/>
</linearGradient>
<radialGradient id="paint34_radial_44_2" cx="0" cy="0" r="1" gradientUnits="userSpaceOnUse" gradientTransform="translate(-574.306 963.983) rotate(93.593) scale(479.278 489.563)">
<stop stop-color="#FF0091"/>
<stop offset="0.14427" stop-color="#FF17A8"/>
<stop offset="0.23997" stop-color="#B200FF"/>
<stop offset="1" stop-color="#FF09A0" stop-opacity="0"/>
</radialGradient>
<radialGradient id="paint35_radial_44_2" cx="0" cy="0" r="1" gradientUnits="userSpaceOnUse" gradientTransform="translate(-545.345 914.639) rotate(93.5935) scale(434.057 443.586)">
<stop stop-color="#FF0091"/>
<stop offset="0.14427" stop-color="#FF17A8"/>
<stop offset="0.23997" stop-color="#B200FF"/>
<stop offset="1" stop-color="#FF09A0" stop-opacity="0"/>
</radialGradient>
<radialGradient id="paint36_radial_44_2" cx="0" cy="0" r="1" gradientUnits="userSpaceOnUse" gradientTransform="translate(-304.931 732.982) rotate(93.5926) scale(272.266 277.272)">
<stop stop-color="#FF0091"/>
<stop offset="0.14427" stop-color="#FF17A8"/>
<stop offset="0.23997" stop-color="#B200FF"/>
<stop offset="1" stop-color="#FF09A0" stop-opacity="0"/>
</radialGradient>
<radialGradient id="paint37_radial_44_2" cx="0" cy="0" r="1" gradientUnits="userSpaceOnUse" gradientTransform="translate(-485.749 901.084) rotate(93.5935) scale(434.102 443.543)">
<stop stop-color="#FF0091"/>
<stop offset="0.14427" stop-color="#FF17A8"/>
<stop offset="0.23997" stop-color="#B200FF"/>
<stop offset="1" stop-color="#FF09A0" stop-opacity="0"/>
</radialGradient>
<radialGradient id="paint38_radial_44_2" cx="0" cy="0" r="1" gradientUnits="userSpaceOnUse" gradientTransform="translate(-232.276 733.222) rotate(93.5872) scale(320.237 326.235)">
<stop stop-color="#D6D5D5"/>
<stop offset="0.043" stop-color="#B7B5B5"/>
<stop offset="0.1242" stop-color="#817E7E"/>
<stop offset="0.1997" stop-color="#575253"/>
<stop offset="0.2672" stop-color="#383334"/>
<stop offset="0.3241" stop-color="#262021"/>
<stop offset="0.3636" stop-color="#1F191A"/>
<stop offset="0.994"/>
</radialGradient>
<radialGradient id="paint39_radial_44_2" cx="0" cy="0" r="1" gradientUnits="userSpaceOnUse" gradientTransform="translate(-253.077 708.809) rotate(93.593) scale(272.268 277.262)">
<stop stop-color="#FF0091"/>
<stop offset="0.14427" stop-color="#FF17A8"/>
<stop offset="0.23997" stop-color="#B200FF"/>
<stop offset="1" stop-color="#FF09A0" stop-opacity="0"/>
</radialGradient>
<radialGradient id="paint40_radial_44_2" cx="0" cy="0" r="1" gradientUnits="userSpaceOnUse" gradientTransform="translate(-229.418 720.002) rotate(93.5934) scale(271.842 277.79)">
<stop stop-color="#FF0091"/>
<stop offset="0.14427" stop-color="#FF17A8"/>
<stop offset="0.23997" stop-color="#B200FF"/>
<stop offset="1" stop-color="#FF09A0" stop-opacity="0"/>
</radialGradient>
<radialGradient id="paint41_radial_44_2" cx="0" cy="0" r="1" gradientUnits="userSpaceOnUse" gradientTransform="translate(-468.256 921.971) rotate(93.5935) scale(434.057 443.498)">
<stop stop-color="#FF0091"/>
<stop offset="0.14427" stop-color="#FF17A8"/>
<stop offset="0.23997" stop-color="#B200FF"/>
<stop offset="1" stop-color="#FF09A0" stop-opacity="0"/>
</radialGradient>
<radialGradient id="paint42_radial_44_2" cx="0" cy="0" r="1" gradientUnits="userSpaceOnUse" gradientTransform="translate(-253.755 758.764) rotate(93.5927) scale(272.223 278.176)">
<stop stop-color="#FF0091"/>
<stop offset="0.14427" stop-color="#FF17A8"/>
<stop offset="0.23997" stop-color="#B200FF"/>
<stop offset="1" stop-color="#FF09A0" stop-opacity="0"/>
</radialGradient>
<radialGradient id="paint43_radial_44_2" cx="0" cy="0" r="1" gradientUnits="userSpaceOnUse" gradientTransform="translate(-228.434 739.695) rotate(93.5927) scale(272.223 278.178)">
<stop stop-color="#FF0091"/>
<stop offset="0.14427" stop-color="#FF17A8"/>
<stop offset="0.23997" stop-color="#B200FF"/>
<stop offset="1" stop-color="#FF09A0" stop-opacity="0"/>
</radialGradient>
<radialGradient id="paint44_radial_44_2" cx="0" cy="0" r="1" gradientUnits="userSpaceOnUse" gradientTransform="translate(-1810.36 1814.23) rotate(93.5931) scale(1310.04 1338.95)">
<stop stop-color="#FF0091"/>
<stop offset="0.14427" stop-color="#FF17A8"/>
<stop offset="0.23997" stop-color="#B200FF"/>
<stop offset="1" stop-color="#FF09A0" stop-opacity="0"/>
</radialGradient>
<radialGradient id="paint45_radial_44_2" cx="0" cy="0" r="1" gradientUnits="userSpaceOnUse" gradientTransform="translate(-1817.32 1830.83) rotate(93.5937) scale(1310.09 1339)">
<stop stop-color="#FF0091"/>
<stop offset="0.14427" stop-color="#FF17A8"/>
<stop offset="0.23997" stop-color="#B200FF"/>
<stop offset="1" stop-color="#FF09A0" stop-opacity="0"/>
</radialGradient>
<radialGradient id="paint46_radial_44_2" cx="0" cy="0" r="1" gradientUnits="userSpaceOnUse" gradientTransform="translate(-1796.36 1829.83) rotate(93.5932) scale(1189.15 1215.47)">
<stop stop-color="#FF0091"/>
<stop offset="0.14427" stop-color="#FF17A8"/>
<stop offset="0.29107" stop-color="#B200FF"/>
<stop offset="1" stop-color="white" stop-opacity="0"/>
</radialGradient>
<radialGradient id="paint47_radial_44_2" cx="0" cy="0" r="1" gradientUnits="userSpaceOnUse" gradientTransform="translate(-1091.04 1286.75) rotate(93.5936) scale(827.366 844.456)">
<stop stop-color="#FF0091"/>
<stop offset="0.14427" stop-color="#FF17A8"/>
<stop offset="0.23997" stop-color="#B200FF"/>
<stop offset="1" stop-color="#FF09A0" stop-opacity="0"/>
</radialGradient>
<radialGradient id="paint48_radial_44_2" cx="0" cy="0" r="1" gradientUnits="userSpaceOnUse" gradientTransform="translate(-1711.32 1832.12) rotate(93.5932) scale(1310.04 1339.03)">
<stop stop-color="#FF0091"/>
<stop offset="0.14427" stop-color="#FF17A8"/>
<stop offset="0.23997" stop-color="#B200FF"/>
<stop offset="1" stop-color="#FF09A0" stop-opacity="0"/>
</radialGradient>
<radialGradient id="paint49_radial_44_2" cx="0" cy="0" r="1" gradientUnits="userSpaceOnUse" gradientTransform="translate(-1795.09 1789.61) rotate(93.5931) scale(1310.04 1338.95)">
<stop stop-color="#FF0091"/>
<stop offset="0.14427" stop-color="#FF17A8"/>
<stop offset="0.23997" stop-color="#B200FF"/>
<stop offset="1" stop-color="#FF09A0" stop-opacity="0"/>
</radialGradient>
<radialGradient id="paint50_radial_44_2" cx="0" cy="0" r="1" gradientUnits="userSpaceOnUse" gradientTransform="translate(-893.048 1190.12) rotate(93.5931) scale(725.084 740.379)">
<stop stop-color="#FF0091"/>
<stop offset="0.14427" stop-color="#FF17A8"/>
<stop offset="0.23997" stop-color="#B200FF"/>
<stop offset="1" stop-color="#FF09A0" stop-opacity="0"/>
</radialGradient>
<radialGradient id="paint51_radial_44_2" cx="0" cy="0" r="1" gradientUnits="userSpaceOnUse" gradientTransform="translate(-267.248 698.021) rotate(93.5932) scale(271.796 278.604)">
<stop stop-color="#FF0091"/>
<stop offset="0.14427" stop-color="#FF17A8"/>
<stop offset="0.23997" stop-color="#B200FF"/>
<stop offset="1" stop-color="#FF09A0" stop-opacity="0"/>
</radialGradient>
<radialGradient id="paint52_radial_44_2" cx="0" cy="0" r="1" gradientUnits="userSpaceOnUse" gradientTransform="translate(-312.692 683.998) rotate(93.5933) scale(272.218 276.553)">
<stop stop-color="#FF0091"/>
<stop offset="0.14427" stop-color="#FF17A8"/>
<stop offset="0.23997" stop-color="#B200FF"/>
<stop offset="1" stop-color="#FF09A0" stop-opacity="0"/>
</radialGradient>
<radialGradient id="paint53_radial_44_2" cx="0" cy="0" r="1" gradientUnits="userSpaceOnUse" gradientTransform="translate(-582.475 861.089) rotate(93.5926) scale(479.281 489.47)">
<stop stop-color="#FF0091"/>
<stop offset="0.14427" stop-color="#FF17A8"/>
<stop offset="0.23997" stop-color="#B200FF"/>
<stop offset="1" stop-color="#FF09A0" stop-opacity="0"/>
</radialGradient>
<radialGradient id="paint54_radial_44_2" cx="0" cy="0" r="1" gradientUnits="userSpaceOnUse" gradientTransform="translate(-553.515 811.729) rotate(93.5935) scale(434.059 443.496)">
<stop stop-color="#FF0091"/>
<stop offset="0.14427" stop-color="#FF17A8"/>
<stop offset="0.23997" stop-color="#B200FF"/>
<stop offset="1" stop-color="#FF09A0" stop-opacity="0"/>
</radialGradient>
<radialGradient id="paint55_radial_44_2" cx="0" cy="0" r="1" gradientUnits="userSpaceOnUse" gradientTransform="translate(-313.163 630.03) rotate(93.5926) scale(272.266 277.272)">
<stop stop-color="#FF0091"/>
<stop offset="0.14427" stop-color="#FF17A8"/>
<stop offset="0.23997" stop-color="#B200FF"/>
<stop offset="1" stop-color="#FF09A0" stop-opacity="0"/>
</radialGradient>
<radialGradient id="paint56_radial_44_2" cx="0" cy="0" r="1" gradientUnits="userSpaceOnUse" gradientTransform="translate(-493.97 798.131) rotate(93.5935) scale(434.102 443.543)">
<stop stop-color="#FF0091"/>
<stop offset="0.14427" stop-color="#FF17A8"/>
<stop offset="0.23997" stop-color="#B200FF"/>
<stop offset="1" stop-color="#FF09A0" stop-opacity="0"/>
</radialGradient>
<radialGradient id="paint57_radial_44_2" cx="0" cy="0" r="1" gradientUnits="userSpaceOnUse" gradientTransform="translate(-286.697 624.802) rotate(93.5931) scale(272.219 277.416)">
<stop stop-color="#FF0091"/>
<stop offset="0.14427" stop-color="#FF17A8"/>
<stop offset="0.23997" stop-color="#B200FF"/>
<stop offset="1" stop-color="#FF09A0" stop-opacity="0"/>
</radialGradient>
<radialGradient id="paint58_radial_44_2" cx="0" cy="0" r="1" gradientUnits="userSpaceOnUse" gradientTransform="translate(-261.299 605.857) rotate(93.593) scale(272.268 277.262)">
<stop stop-color="#FF0091"/>
<stop offset="0.14427" stop-color="#FF17A8"/>
<stop offset="0.23997" stop-color="#B200FF"/>
<stop offset="1" stop-color="#FF09A0" stop-opacity="0"/>
</radialGradient>
<radialGradient id="paint59_radial_44_2" cx="0" cy="0" r="1" gradientUnits="userSpaceOnUse" gradientTransform="translate(-238.101 616.646) rotate(93.593) scale(271.845 278.545)">
<stop stop-color="#FF0091"/>
<stop offset="0.14427" stop-color="#FF17A8"/>
<stop offset="0.23997" stop-color="#B200FF"/>
<stop offset="1" stop-color="#FF09A0" stop-opacity="0"/>
</radialGradient>
<radialGradient id="paint60_radial_44_2" cx="0" cy="0" r="1" gradientUnits="userSpaceOnUse" gradientTransform="translate(-476.487 819.019) rotate(93.5935) scale(434.057 443.498)">
<stop stop-color="#FF0091"/>
<stop offset="0.14427" stop-color="#FF17A8"/>
<stop offset="0.23997" stop-color="#B200FF"/>
<stop offset="1" stop-color="#FF09A0" stop-opacity="0"/>
</radialGradient>
<radialGradient id="paint61_radial_44_2" cx="0" cy="0" r="1" gradientUnits="userSpaceOnUse" gradientTransform="translate(-261.976 655.812) rotate(93.5927) scale(272.223 278.176)">
<stop stop-color="#FF0091"/>
<stop offset="0.14427" stop-color="#FF17A8"/>
<stop offset="0.23997" stop-color="#B200FF"/>
<stop offset="1" stop-color="#FF09A0" stop-opacity="0"/>
</radialGradient>
<radialGradient id="paint62_radial_44_2" cx="0" cy="0" r="1" gradientUnits="userSpaceOnUse" gradientTransform="translate(-236.13 637.229) rotate(93.5933) scale(272.221 277.324)">
<stop stop-color="#FF0091"/>
<stop offset="0.14427" stop-color="#FF17A8"/>
<stop offset="0.23997" stop-color="#B200FF"/>
<stop offset="1" stop-color="#FF09A0" stop-opacity="0"/>
</radialGradient>
<radialGradient id="paint63_radial_44_2" cx="0" cy="0" r="1" gradientUnits="userSpaceOnUse" gradientTransform="translate(-1800.73 1731.32) rotate(93.5932) scale(1310.03 1339.03)">
<stop stop-color="#FF0091"/>
<stop offset="0.14427" stop-color="#FF17A8"/>
<stop offset="0.23997" stop-color="#B200FF"/>
<stop offset="1" stop-color="#FF09A0" stop-opacity="0"/>
</radialGradient>
<radialGradient id="paint64_radial_44_2" cx="0" cy="0" r="1" gradientUnits="userSpaceOnUse" gradientTransform="translate(-1807.59 1748.04) rotate(93.5935) scale(1310.08 1338.9)">
<stop stop-color="#FF0091"/>
<stop offset="0.14427" stop-color="#FF17A8"/>
<stop offset="0.23997" stop-color="#B200FF"/>
<stop offset="1" stop-color="#FF09A0" stop-opacity="0"/>
</radialGradient>
<radialGradient id="paint65_radial_44_2" cx="0" cy="0" r="1" gradientUnits="userSpaceOnUse" gradientTransform="translate(-1786.74 1746.92) rotate(93.5933) scale(1310.01 1339.09)">
<stop stop-color="#FF0091"/>
<stop offset="0.14427" stop-color="#FF17A8"/>
<stop offset="0.23997" stop-color="#B200FF"/>
<stop offset="1" stop-color="#FF09A0" stop-opacity="0"/>
</radialGradient>
<radialGradient id="paint66_radial_44_2" cx="0" cy="0" r="1" gradientUnits="userSpaceOnUse" gradientTransform="translate(-1081.29 1202.7) rotate(93.5936) scale(827.366 844.456)">
<stop stop-color="#FF0091"/>
<stop offset="0.14427" stop-color="#FF17A8"/>
<stop offset="0.23997" stop-color="#B200FF"/>
<stop offset="1" stop-color="#FF09A0" stop-opacity="0"/>
</radialGradient>
<radialGradient id="paint67_radial_44_2" cx="0" cy="0" r="1" gradientUnits="userSpaceOnUse" gradientTransform="translate(-4780.62 1809.08) rotate(93.5932) scale(1565.14 3617.15)">
<stop stop-color="#FF0091"/>
<stop offset="0.14427" stop-color="#FF17A8"/>
<stop offset="0.23997" stop-color="#B200FF"/>
<stop offset="1" stop-color="#FF09A0" stop-opacity="0"/>
</radialGradient>
<radialGradient id="paint68_radial_44_2" cx="0" cy="0" r="1" gradientUnits="userSpaceOnUse" gradientTransform="translate(-883.299 1106.07) rotate(93.5931) scale(725.084 740.377)">
<stop stop-color="#FF0091"/>
<stop offset="0.14427" stop-color="#FF17A8"/>
<stop offset="0.23997" stop-color="#B200FF"/>
<stop offset="1" stop-color="#FF09A0" stop-opacity="0"/>
</radialGradient>
<radialGradient id="paint69_radial_44_2" cx="0" cy="0" r="1" gradientUnits="userSpaceOnUse" gradientTransform="translate(-257.549 613.909) rotate(93.5931) scale(271.801 278.702)">
<stop stop-color="#FF0091"/>
<stop offset="0.14427" stop-color="#FF17A8"/>
<stop offset="0.23997" stop-color="#B200FF"/>
<stop offset="1" stop-color="#FF09A0" stop-opacity="0"/>
</radialGradient>
<radialGradient id="paint70_radial_44_2" cx="0" cy="0" r="1" gradientUnits="userSpaceOnUse" gradientTransform="translate(-302.997 601.146) rotate(93.5933) scale(272.218 276.536)">
<stop stop-color="#FF0091"/>
<stop offset="0.14427" stop-color="#FF17A8"/>
<stop offset="0.23997" stop-color="#B200FF"/>
<stop offset="1" stop-color="#FF09A0" stop-opacity="0"/>
</radialGradient>
<linearGradient id="paint71_linear_44_2" x1="457.832" y1="4650.72" x2="14062.8" y2="4650.72" gradientUnits="userSpaceOnUse">
<stop stop-color="white"/>
<stop offset="0.1225" stop-color="#FBFDFF"/>
<stop offset="0.2476" stop-color="#EFF5FF"/>
<stop offset="0.374" stop-color="#DAE9FF"/>
<stop offset="0.5013" stop-color="#BDD9FF"/>
<stop offset="0.6295" stop-color="#98C3FF"/>
<stop offset="0.7582" stop-color="#6BA9FF"/>
<stop offset="0.8849" stop-color="#378AFF"/>
<stop offset="1" stop-color="#006AFF"/>
</linearGradient>
<linearGradient id="paint72_linear_44_2" x1="427.431" y1="3927.4" x2="7066.33" y2="3927.4" gradientUnits="userSpaceOnUse">
<stop stop-color="white"/>
<stop offset="0.1225" stop-color="#FBFDFF"/>
<stop offset="0.2476" stop-color="#EFF5FF"/>
<stop offset="0.374" stop-color="#DAE9FF"/>
<stop offset="0.5013" stop-color="#BDD9FF"/>
<stop offset="0.6295" stop-color="#98C3FF"/>
<stop offset="0.7582" stop-color="#6BA9FF"/>
<stop offset="0.8849" stop-color="#378AFF"/>
<stop offset="1" stop-color="#006AFF"/>
</linearGradient>
<linearGradient id="paint73_linear_44_2" x1="315.874" y1="1372.94" x2="2792.97" y2="1372.94" gradientUnits="userSpaceOnUse">
<stop stop-color="white"/>
<stop offset="0.1225" stop-color="#FBFDFF"/>
<stop offset="0.2476" stop-color="#EFF5FF"/>
<stop offset="0.374" stop-color="#DAE9FF"/>
<stop offset="0.5013" stop-color="#BDD9FF"/>
<stop offset="0.6295" stop-color="#98C3FF"/>
<stop offset="0.7582" stop-color="#6BA9FF"/>
<stop offset="0.8849" stop-color="#378AFF"/>
<stop offset="1" stop-color="#006AFF"/>
</linearGradient>
<linearGradient id="paint74_linear_44_2" x1="284.198" y1="3086.74" x2="8429.48" y2="3086.74" gradientUnits="userSpaceOnUse">
<stop stop-color="white"/>
<stop offset="0.2621" stop-color="#FDFEFF"/>
<stop offset="0.3996" stop-color="#F5F9FF"/>
<stop offset="0.5081" stop-color="#E7F1FF"/>
<stop offset="0.6016" stop-color="#D4E6FF"/>
<stop offset="0.6853" stop-color="#BBD8FF"/>
<stop offset="0.7621" stop-color="#9DC6FF"/>
<stop offset="0.8336" stop-color="#78B0FF"/>
<stop offset="0.901" stop-color="#4E98FF"/>
<stop offset="0.9627" stop-color="#207DFF"/>
<stop offset="1" stop-color="#006AFF"/>
</linearGradient>
<linearGradient id="paint75_linear_44_2" x1="391.437" y1="4791.43" x2="8558.66" y2="4791.43" gradientUnits="userSpaceOnUse">
<stop stop-color="#311842"/>
<stop offset="0.4611" stop-color="#190C4B"/>
<stop offset="1" stop-color="#000054"/>
</linearGradient>
<linearGradient id="paint76_linear_44_2" x1="342.471" y1="4026.65" x2="7477.25" y2="4026.65" gradientUnits="userSpaceOnUse">
<stop stop-color="#F000B5"/>
<stop offset="0.1804" stop-color="#EF04B8"/>
<stop offset="0.3646" stop-color="#EA10BF"/>
<stop offset="0.5507" stop-color="#E325CC"/>
<stop offset="0.738" stop-color="#D841DE"/>
<stop offset="0.9245" stop-color="#CB66F4"/>
<stop offset="1" stop-color="#C577FF"/>
</linearGradient>
<linearGradient id="paint77_linear_44_2" x1="3105.34" y1="10505.5" x2="3873.9" y2="173.887" gradientUnits="userSpaceOnUse">
<stop stop-color="white"/>
<stop offset="0.2621" stop-color="#FDFEFF"/>
<stop offset="0.3996" stop-color="#F5F9FF"/>
<stop offset="0.5081" stop-color="#E7F1FF"/>
<stop offset="0.6016" stop-color="#D4E6FF"/>
<stop offset="0.6853" stop-color="#BBD8FF"/>
<stop offset="0.7621" stop-color="#9DC6FF"/>
<stop offset="0.8336" stop-color="#78B0FF"/>
<stop offset="0.901" stop-color="#4E98FF"/>
<stop offset="0.9627" stop-color="#207DFF"/>
<stop offset="1" stop-color="#006AFF"/>
</linearGradient>
<linearGradient id="paint78_linear_44_2" x1="469.332" y1="4698.45" x2="5103.09" y2="4698.45" gradientUnits="userSpaceOnUse">
<stop stop-color="white"/>
<stop offset="0.1225" stop-color="#FBFDFF"/>
<stop offset="0.2476" stop-color="#EFF5FF"/>
<stop offset="0.374" stop-color="#DAE9FF"/>
<stop offset="0.5013" stop-color="#BDD9FF"/>
<stop offset="0.6295" stop-color="#98C3FF"/>
<stop offset="0.7582" stop-color="#6BA9FF"/>
<stop offset="0.8849" stop-color="#378AFF"/>
<stop offset="1" stop-color="#006AFF"/>
</linearGradient>
<linearGradient id="paint79_linear_44_2" x1="304.75" y1="5841.82" x2="19770.2" y2="5841.82" gradientUnits="userSpaceOnUse">
<stop stop-color="#311842"/>
<stop offset="0.4611" stop-color="#190C4B"/>
<stop offset="1" stop-color="#000054"/>
</linearGradient>
<linearGradient id="paint80_linear_44_2" x1="315.459" y1="4804.78" x2="18694.1" y2="4804.78" gradientUnits="userSpaceOnUse">
<stop stop-color="#311842"/>
<stop offset="0.4937" stop-color="#170BA7"/>
<stop offset="0.838" stop-color="#0603E6"/>
<stop offset="1" stop-color="#0000FF"/>
</linearGradient>
<radialGradient id="paint81_radial_44_2" cx="0" cy="0" r="1" gradientUnits="userSpaceOnUse" gradientTransform="translate(-109.307 814.983) rotate(93.593) scale(479.278 489.563)">
<stop stop-color="#FF0091"/>
<stop offset="0.14427" stop-color="#FF17A8"/>
<stop offset="0.23997" stop-color="#B200FF"/>
<stop offset="1" stop-color="#FF09A0" stop-opacity="0"/>
</radialGradient>
<radialGradient id="paint82_radial_44_2" cx="0" cy="0" r="1" gradientUnits="userSpaceOnUse" gradientTransform="translate(-80.3451 765.639) rotate(93.5935) scale(434.057 443.586)">
<stop stop-color="#FF0091"/>
<stop offset="0.14427" stop-color="#FF17A8"/>
<stop offset="0.23997" stop-color="#B200FF"/>
<stop offset="1" stop-color="#FF09A0" stop-opacity="0"/>
</radialGradient>
<radialGradient id="paint83_radial_44_2" cx="0" cy="0" r="1" gradientUnits="userSpaceOnUse" gradientTransform="translate(160.069 583.982) rotate(93.5926) scale(272.266 277.272)">
<stop stop-color="#FF0091"/>
<stop offset="0.14427" stop-color="#FF17A8"/>
<stop offset="0.23997" stop-color="#B200FF"/>
<stop offset="1" stop-color="#FF09A0" stop-opacity="0"/>
</radialGradient>
<radialGradient id="paint84_radial_44_2" cx="0" cy="0" r="1" gradientUnits="userSpaceOnUse" gradientTransform="translate(-20.749 752.084) rotate(93.5935) scale(434.102 443.543)">
<stop stop-color="#FF0091"/>
<stop offset="0.14427" stop-color="#FF17A8"/>
<stop offset="0.23997" stop-color="#B200FF"/>
<stop offset="1" stop-color="#FF09A0" stop-opacity="0"/>
</radialGradient>
<radialGradient id="paint85_radial_44_2" cx="0" cy="0" r="1" gradientUnits="userSpaceOnUse" gradientTransform="translate(232.724 584.222) rotate(93.5872) scale(320.237 326.235)">
<stop stop-color="#D6D5D5"/>
<stop offset="0.043" stop-color="#B7B5B5"/>
<stop offset="0.1242" stop-color="#817E7E"/>
<stop offset="0.1997" stop-color="#575253"/>
<stop offset="0.2672" stop-color="#383334"/>
<stop offset="0.3241" stop-color="#262021"/>
<stop offset="0.3636" stop-color="#1F191A"/>
<stop offset="0.994"/>
</radialGradient>
<radialGradient id="paint86_radial_44_2" cx="0" cy="0" r="1" gradientUnits="userSpaceOnUse" gradientTransform="translate(211.923 559.809) rotate(93.593) scale(272.268 277.262)">
<stop stop-color="#FF0091"/>
<stop offset="0.14427" stop-color="#FF17A8"/>
<stop offset="0.23997" stop-color="#B200FF"/>
<stop offset="1" stop-color="#FF09A0" stop-opacity="0"/>
</radialGradient>
<radialGradient id="paint87_radial_44_2" cx="0" cy="0" r="1" gradientUnits="userSpaceOnUse" gradientTransform="translate(235.582 571.002) rotate(93.5934) scale(271.842 277.79)">
<stop stop-color="#FF0091"/>
<stop offset="0.14427" stop-color="#FF17A8"/>
<stop offset="0.23997" stop-color="#B200FF"/>
<stop offset="1" stop-color="#FF09A0" stop-opacity="0"/>
</radialGradient>
<radialGradient id="paint88_radial_44_2" cx="0" cy="0" r="1" gradientUnits="userSpaceOnUse" gradientTransform="translate(-3.25558 772.971) rotate(93.5935) scale(434.057 443.498)">
<stop stop-color="#FF0091"/>
<stop offset="0.14427" stop-color="#FF17A8"/>
<stop offset="0.23997" stop-color="#B200FF"/>
<stop offset="1" stop-color="#FF09A0" stop-opacity="0"/>
</radialGradient>
<radialGradient id="paint89_radial_44_2" cx="0" cy="0" r="1" gradientUnits="userSpaceOnUse" gradientTransform="translate(211.245 609.764) rotate(93.5927) scale(272.223 278.176)">
<stop stop-color="#FF0091"/>
<stop offset="0.14427" stop-color="#FF17A8"/>
<stop offset="0.23997" stop-color="#B200FF"/>
<stop offset="1" stop-color="#FF09A0" stop-opacity="0"/>
</radialGradient>
<radialGradient id="paint90_radial_44_2" cx="0" cy="0" r="1" gradientUnits="userSpaceOnUse" gradientTransform="translate(236.566 590.695) rotate(93.5927) scale(272.223 278.178)">
<stop stop-color="#FF0091"/>
<stop offset="0.14427" stop-color="#FF17A8"/>
<stop offset="0.23997" stop-color="#B200FF"/>
<stop offset="1" stop-color="#FF09A0" stop-opacity="0"/>
</radialGradient>
<radialGradient id="paint91_radial_44_2" cx="0" cy="0" r="1" gradientUnits="userSpaceOnUse" gradientTransform="translate(-1345.36 1665.23) rotate(93.5931) scale(1310.04 1338.95)">
<stop stop-color="#FF0091"/>
<stop offset="0.14427" stop-color="#FF17A8"/>
<stop offset="0.23997" stop-color="#B200FF"/>
<stop offset="1" stop-color="#FF09A0" stop-opacity="0"/>
</radialGradient>
<radialGradient id="paint92_radial_44_2" cx="0" cy="0" r="1" gradientUnits="userSpaceOnUse" gradientTransform="translate(-1352.32 1681.83) rotate(93.5937) scale(1310.09 1339)">
<stop stop-color="#FF0091"/>
<stop offset="0.14427" stop-color="#FF17A8"/>
<stop offset="0.23997" stop-color="#B200FF"/>
<stop offset="1" stop-color="#FF09A0" stop-opacity="0"/>
</radialGradient>
<radialGradient id="paint93_radial_44_2" cx="0" cy="0" r="1" gradientUnits="userSpaceOnUse" gradientTransform="translate(-1331.36 1680.83) rotate(93.5932) scale(1309.99 1338.98)">
<stop stop-color="#FF0091"/>
<stop offset="0.14427" stop-color="#FF17A8"/>
<stop offset="0.23997" stop-color="#B200FF"/>
<stop offset="1" stop-color="#FF09A0" stop-opacity="0"/>
</radialGradient>
<radialGradient id="paint94_radial_44_2" cx="0" cy="0" r="1" gradientUnits="userSpaceOnUse" gradientTransform="translate(-626.045 1137.75) rotate(93.5936) scale(827.366 844.456)">
<stop stop-color="#FF0091"/>
<stop offset="0.14427" stop-color="#FF17A8"/>
<stop offset="0.23997" stop-color="#B200FF"/>
<stop offset="1" stop-color="#FF09A0" stop-opacity="0"/>
</radialGradient>
<radialGradient id="paint95_radial_44_2" cx="0" cy="0" r="1" gradientUnits="userSpaceOnUse" gradientTransform="translate(-1246.32 1683.12) rotate(93.5932) scale(1310.04 1339.03)">
<stop stop-color="#FF0091"/>
<stop offset="0.14427" stop-color="#FF17A8"/>
<stop offset="0.23997" stop-color="#B200FF"/>
<stop offset="1" stop-color="#FF09A0" stop-opacity="0"/>
</radialGradient>
<radialGradient id="paint96_radial_44_2" cx="0" cy="0" r="1" gradientUnits="userSpaceOnUse" gradientTransform="translate(-1330.09 1640.61) rotate(93.5931) scale(1310.04 1338.95)">
<stop stop-color="#FF0091"/>
<stop offset="0.14427" stop-color="#FF17A8"/>
<stop offset="0.23997" stop-color="#B200FF"/>
<stop offset="1" stop-color="#FF09A0" stop-opacity="0"/>
</radialGradient>
<radialGradient id="paint97_radial_44_2" cx="0" cy="0" r="1" gradientUnits="userSpaceOnUse" gradientTransform="translate(-428.048 1041.12) rotate(93.5931) scale(725.084 740.379)">
<stop stop-color="#FF0091"/>
<stop offset="0.14427" stop-color="#FF17A8"/>
<stop offset="0.23997" stop-color="#B200FF"/>
<stop offset="1" stop-color="#FF09A0" stop-opacity="0"/>
</radialGradient>
<radialGradient id="paint98_radial_44_2" cx="0" cy="0" r="1" gradientUnits="userSpaceOnUse" gradientTransform="translate(197.752 549.021) rotate(93.5932) scale(271.796 278.604)">
<stop stop-color="#FF0091"/>
<stop offset="0.14427" stop-color="#FF17A8"/>
<stop offset="0.23997" stop-color="#B200FF"/>
<stop offset="1" stop-color="#FF09A0" stop-opacity="0"/>
</radialGradient>
<radialGradient id="paint99_radial_44_2" cx="0" cy="0" r="1" gradientUnits="userSpaceOnUse" gradientTransform="translate(152.308 534.998) rotate(93.5933) scale(272.218 276.553)">
<stop stop-color="#FF0091"/>
<stop offset="0.14427" stop-color="#FF17A8"/>
<stop offset="0.23997" stop-color="#B200FF"/>
<stop offset="1" stop-color="#FF09A0" stop-opacity="0"/>
</radialGradient>
<radialGradient id="paint100_radial_44_2" cx="0" cy="0" r="1" gradientUnits="userSpaceOnUse" gradientTransform="translate(-116.475 706.089) rotate(93.5926) scale(479.281 489.47)">
<stop stop-color="#FF0091"/>
<stop offset="0.14427" stop-color="#FF17A8"/>
<stop offset="0.23997" stop-color="#B200FF"/>
<stop offset="1" stop-color="#FF09A0" stop-opacity="0"/>
</radialGradient>
<radialGradient id="paint101_radial_44_2" cx="0" cy="0" r="1" gradientUnits="userSpaceOnUse" gradientTransform="translate(-87.5147 656.729) rotate(93.5935) scale(434.059 443.496)">
<stop stop-color="#FF0091"/>
<stop offset="0.14427" stop-color="#FF17A8"/>
<stop offset="0.23997" stop-color="#B200FF"/>
<stop offset="1" stop-color="#FF09A0" stop-opacity="0"/>
</radialGradient>
<radialGradient id="paint102_radial_44_2" cx="0" cy="0" r="1" gradientUnits="userSpaceOnUse" gradientTransform="translate(152.837 475.03) rotate(93.5926) scale(272.266 277.272)">
<stop stop-color="#FF0091"/>
<stop offset="0.14427" stop-color="#FF17A8"/>
<stop offset="0.23997" stop-color="#B200FF"/>
<stop offset="1" stop-color="#FF09A0" stop-opacity="0"/>
</radialGradient>
<radialGradient id="paint103_radial_44_2" cx="0" cy="0" r="1" gradientUnits="userSpaceOnUse" gradientTransform="translate(-27.9705 643.131) rotate(93.5935) scale(434.102 443.543)">
<stop stop-color="#FF0091"/>
<stop offset="0.14427" stop-color="#FF17A8"/>
<stop offset="0.23997" stop-color="#B200FF"/>
<stop offset="1" stop-color="#FF09A0" stop-opacity="0"/>
</radialGradient>
<radialGradient id="paint104_radial_44_2" cx="0" cy="0" r="1" gradientUnits="userSpaceOnUse" gradientTransform="translate(179.303 469.802) rotate(93.5931) scale(272.219 277.416)">
<stop stop-color="#FF0091"/>
<stop offset="0.14427" stop-color="#FF17A8"/>
<stop offset="0.23997" stop-color="#B200FF"/>
<stop offset="1" stop-color="#FF09A0" stop-opacity="0"/>
</radialGradient>
<radialGradient id="paint105_radial_44_2" cx="0" cy="0" r="1" gradientUnits="userSpaceOnUse" gradientTransform="translate(204.701 450.857) rotate(93.593) scale(272.268 277.262)">
<stop stop-color="#FF0091"/>
<stop offset="0.14427" stop-color="#FF17A8"/>
<stop offset="0.23997" stop-color="#B200FF"/>
<stop offset="1" stop-color="#FF09A0" stop-opacity="0"/>
</radialGradient>
<radialGradient id="paint106_radial_44_2" cx="0" cy="0" r="1" gradientUnits="userSpaceOnUse" gradientTransform="translate(227.899 461.646) rotate(93.593) scale(271.845 278.545)">
<stop stop-color="#FF0091"/>
<stop offset="0.14427" stop-color="#FF17A8"/>
<stop offset="0.23997" stop-color="#B200FF"/>
<stop offset="1" stop-color="#FF09A0" stop-opacity="0"/>
</radialGradient>
<radialGradient id="paint107_radial_44_2" cx="0" cy="0" r="1" gradientUnits="userSpaceOnUse" gradientTransform="translate(-10.4871 664.019) rotate(93.5935) scale(434.057 443.498)">
<stop stop-color="#FF0091"/>
<stop offset="0.14427" stop-color="#FF17A8"/>
<stop offset="0.23997" stop-color="#B200FF"/>
<stop offset="1" stop-color="#FF09A0" stop-opacity="0"/>
</radialGradient>
<radialGradient id="paint108_radial_44_2" cx="0" cy="0" r="1" gradientUnits="userSpaceOnUse" gradientTransform="translate(204.024 500.812) rotate(93.5927) scale(272.223 278.176)">
<stop stop-color="#FF0091"/>
<stop offset="0.14427" stop-color="#FF17A8"/>
<stop offset="0.23997" stop-color="#B200FF"/>
<stop offset="1" stop-color="#FF09A0" stop-opacity="0"/>
</radialGradient>
<radialGradient id="paint109_radial_44_2" cx="0" cy="0" r="1" gradientUnits="userSpaceOnUse" gradientTransform="translate(229.87 482.229) rotate(93.5933) scale(272.221 277.324)">
<stop stop-color="#FF0091"/>
<stop offset="0.14427" stop-color="#FF17A8"/>
<stop offset="0.23997" stop-color="#B200FF"/>
<stop offset="1" stop-color="#FF09A0" stop-opacity="0"/>
</radialGradient>
<radialGradient id="paint110_radial_44_2" cx="0" cy="0" r="1" gradientUnits="userSpaceOnUse" gradientTransform="translate(-1334.73 1576.32) rotate(93.5932) scale(1310.03 1339.03)">
<stop stop-color="#FF0091"/>
<stop offset="0.14427" stop-color="#FF17A8"/>
<stop offset="0.23997" stop-color="#B200FF"/>
<stop offset="1" stop-color="#FF09A0" stop-opacity="0"/>
</radialGradient>
<radialGradient id="paint111_radial_44_2" cx="0" cy="0" r="1" gradientUnits="userSpaceOnUse" gradientTransform="translate(-1341.59 1593.04) rotate(93.5935) scale(1310.08 1338.9)">
<stop stop-color="#FF0091"/>
<stop offset="0.14427" stop-color="#FF17A8"/>
<stop offset="0.23997" stop-color="#B200FF"/>
<stop offset="1" stop-color="#FF09A0" stop-opacity="0"/>
</radialGradient>
<radialGradient id="paint112_radial_44_2" cx="0" cy="0" r="1" gradientUnits="userSpaceOnUse" gradientTransform="translate(-1320.74 1591.92) rotate(93.5933) scale(1310.01 1339.09)">
<stop stop-color="#FF0091"/>
<stop offset="0.14427" stop-color="#FF17A8"/>
<stop offset="0.23997" stop-color="#B200FF"/>
<stop offset="1" stop-color="#FF09A0" stop-opacity="0"/>
</radialGradient>
<radialGradient id="paint113_radial_44_2" cx="0" cy="0" r="1" gradientUnits="userSpaceOnUse" gradientTransform="translate(-615.288 1047.7) rotate(93.5936) scale(827.366 844.456)">
<stop stop-color="#FF0091"/>
<stop offset="0.14427" stop-color="#FF17A8"/>
<stop offset="0.23997" stop-color="#B200FF"/>
<stop offset="1" stop-color="#FF09A0" stop-opacity="0"/>
</radialGradient>
<radialGradient id="paint114_radial_44_2" cx="0" cy="0" r="1" gradientUnits="userSpaceOnUse" gradientTransform="translate(-4314.62 1654.08) rotate(93.5932) scale(1565.14 3617.15)">
<stop stop-color="#FF0091"/>
<stop offset="0.14427" stop-color="#FF17A8"/>
<stop offset="0.23997" stop-color="#B200FF"/>
<stop offset="1" stop-color="#FF09A0" stop-opacity="0"/>
</radialGradient>
<radialGradient id="paint115_radial_44_2" cx="0" cy="0" r="1" gradientUnits="userSpaceOnUse" gradientTransform="translate(-417.299 951.066) rotate(93.5931) scale(725.084 740.377)">
<stop stop-color="#FF0091"/>
<stop offset="0.14427" stop-color="#FF17A8"/>
<stop offset="0.23997" stop-color="#B200FF"/>
<stop offset="1" stop-color="#FF09A0" stop-opacity="0"/>
</radialGradient>
<radialGradient id="paint116_radial_44_2" cx="0" cy="0" r="1" gradientUnits="userSpaceOnUse" gradientTransform="translate(208.451 458.909) rotate(93.5931) scale(271.801 278.702)">
<stop stop-color="#FF0091"/>
<stop offset="0.14427" stop-color="#FF17A8"/>
<stop offset="0.23997" stop-color="#B200FF"/>
<stop offset="1" stop-color="#FF09A0" stop-opacity="0"/>
</radialGradient>
<radialGradient id="paint117_radial_44_2" cx="0" cy="0" r="1" gradientUnits="userSpaceOnUse" gradientTransform="translate(163.002 446.146) rotate(93.5933) scale(272.218 276.536)">
<stop stop-color="#FF0091"/>
<stop offset="0.14427" stop-color="#FF17A8"/>
<stop offset="0.23997" stop-color="#B200FF"/>
<stop offset="1" stop-color="#FF09A0" stop-opacity="0"/>
</radialGradient>
</defs>
</svg>
