<svg width="28" height="16" viewBox="0 0 28 16" fill="none" xmlns="http://www.w3.org/2000/svg">
<path d="M0.269531 0.78125H5.57227C6.65951 0.78125 7.59375 0.94401 8.375 1.26953C9.16276 1.59505 9.76823 2.07682 10.1914 2.71484C10.6146 3.35286 10.8262 4.13737 10.8262 5.06836C10.8262 5.83008 10.696 6.48438 10.4355 7.03125C10.1816 7.57161 9.82031 8.02409 9.35156 8.38867C8.88932 8.74674 8.3457 9.0332 7.7207 9.24805L6.79297 9.73633H2.18359L2.16406 7.45117H5.5918C6.10612 7.45117 6.53255 7.36003 6.87109 7.17773C7.20964 6.99544 7.46354 6.74154 7.63281 6.41602C7.80859 6.09049 7.89648 5.71289 7.89648 5.2832C7.89648 4.82747 7.81185 4.43359 7.64258 4.10156C7.47331 3.76953 7.21615 3.51562 6.87109 3.33984C6.52604 3.16406 6.0931 3.07617 5.57227 3.07617H3.19922V15H0.269531V0.78125ZM8.21875 15L4.97656 8.66211L8.07227 8.64258L11.3535 14.8633V15H8.21875ZM18.834 10.6348V0.78125H21.7539V10.6348C21.7539 11.5853 21.5456 12.4023 21.1289 13.0859C20.7122 13.763 20.1426 14.2839 19.4199 14.6484C18.7038 15.013 17.8965 15.1953 16.998 15.1953C16.0671 15.1953 15.2435 15.0391 14.5273 14.7266C13.8112 14.4141 13.248 13.9355 12.8379 13.291C12.4277 12.64 12.2227 11.8164 12.2227 10.8203H15.1621C15.1621 11.3411 15.2337 11.7546 15.377 12.0605C15.5267 12.3665 15.7383 12.5846 16.0117 12.7148C16.2852 12.8451 16.6139 12.9102 16.998 12.9102C17.3691 12.9102 17.6914 12.8223 17.9648 12.6465C18.2383 12.4707 18.4499 12.2135 18.5996 11.875C18.7559 11.5365 18.834 11.123 18.834 10.6348ZM24.2148 13.6426C24.2148 13.2259 24.3581 12.8776 24.6445 12.5977C24.9375 12.3177 25.3249 12.1777 25.8066 12.1777C26.2884 12.1777 26.6725 12.3177 26.959 12.5977C27.252 12.8776 27.3984 13.2259 27.3984 13.6426C27.3984 14.0592 27.252 14.4076 26.959 14.6875C26.6725 14.9674 26.2884 15.1074 25.8066 15.1074C25.3249 15.1074 24.9375 14.9674 24.6445 14.6875C24.3581 14.4076 24.2148 14.0592 24.2148 13.6426Z" fill="#C770F0"/>
</svg>
