<svg width="1920" height="1080" viewBox="0 0 1920 1080" fill="none" xmlns="http://www.w3.org/2000/svg">
<rect width="1920" height="1080" fill="white"/>
<path d="M503 618C503 606.954 511.954 598 523 598H624C635.046 598 644 606.954 644 618V724C644 732.284 637.284 739 629 739H518C509.716 739 503 732.284 503 724V618Z" fill="url(#paint0_linear_28_58)" stroke="#D9D9D9" stroke-width="3"/>
<g filter="url(#filter0_d_28_58)">
<rect x="1149" y="263" width="536" height="536" rx="20" fill="white"/>
</g>
<g filter="url(#filter1_di_28_58)">
<path d="M1147 282C1147 270.954 1155.95 262 1167 262H1665C1676.05 262 1685 270.954 1685 282V466H1147V282Z" fill="#757575"/>
</g>
<circle cx="1286.13" cy="307.254" r="29.7667" fill="white"/>
<circle cx="1285.53" cy="305.468" r="27.9807" fill="#363636"/>
<g filter="url(#filter2_d_28_58)">
<rect x="1264.69" y="212" width="41.6734" height="109.542" rx="13" fill="#838383"/>
</g>
<circle cx="1545.69" cy="307.254" r="29.7667" fill="white"/>
<circle cx="1545.1" cy="305.468" r="27.9807" fill="#363636"/>
<g filter="url(#filter3_d_28_58)">
<rect x="1524.26" y="212" width="41.6734" height="109.542" rx="13" fill="#838383"/>
</g>
<path d="M1373.91 396.625C1373.91 395.297 1373.71 394.125 1373.29 393.109C1372.9 392.068 1372.2 391.13 1371.18 390.297C1370.19 389.464 1368.81 388.669 1367.04 387.914C1365.29 387.159 1363.08 386.391 1360.4 385.609C1357.59 384.776 1355.05 383.852 1352.78 382.836C1350.52 381.794 1348.58 380.609 1346.96 379.281C1345.35 377.953 1344.11 376.43 1343.25 374.711C1342.39 372.992 1341.96 371.026 1341.96 368.812C1341.96 366.599 1342.42 364.555 1343.33 362.68C1344.24 360.805 1345.54 359.177 1347.23 357.797C1348.95 356.391 1351 355.297 1353.37 354.516C1355.74 353.734 1358.38 353.344 1361.3 353.344C1365.57 353.344 1369.19 354.164 1372.16 355.805C1375.15 357.419 1377.43 359.542 1378.99 362.172C1380.55 364.776 1381.34 367.562 1381.34 370.531H1373.84C1373.84 368.396 1373.38 366.508 1372.47 364.867C1371.56 363.201 1370.18 361.898 1368.33 360.961C1366.48 359.997 1364.14 359.516 1361.3 359.516C1358.61 359.516 1356.4 359.919 1354.66 360.727C1352.91 361.534 1351.61 362.628 1350.75 364.008C1349.92 365.388 1349.5 366.964 1349.5 368.734C1349.5 369.932 1349.75 371.026 1350.24 372.016C1350.76 372.979 1351.56 373.878 1352.62 374.711C1353.72 375.544 1355.1 376.312 1356.77 377.016C1358.46 377.719 1360.48 378.396 1362.82 379.047C1366.05 379.958 1368.84 380.974 1371.18 382.094C1373.52 383.214 1375.45 384.477 1376.96 385.883C1378.5 387.263 1379.63 388.839 1380.36 390.609C1381.11 392.354 1381.49 394.333 1381.49 396.547C1381.49 398.865 1381.02 400.961 1380.09 402.836C1379.15 404.711 1377.81 406.312 1376.06 407.641C1374.32 408.969 1372.22 409.997 1369.77 410.727C1367.35 411.43 1364.64 411.781 1361.65 411.781C1359.02 411.781 1356.43 411.417 1353.88 410.688C1351.35 409.958 1349.04 408.865 1346.96 407.406C1344.9 405.948 1343.25 404.151 1342 402.016C1340.78 399.854 1340.16 397.354 1340.16 394.516H1347.66C1347.66 396.469 1348.04 398.148 1348.8 399.555C1349.55 400.935 1350.58 402.081 1351.88 402.992C1353.21 403.904 1354.71 404.581 1356.38 405.023C1358.07 405.44 1359.83 405.648 1361.65 405.648C1364.28 405.648 1366.51 405.284 1368.33 404.555C1370.15 403.826 1371.53 402.784 1372.47 401.43C1373.43 400.076 1373.91 398.474 1373.91 396.625ZM1407.55 411.781C1404.6 411.781 1401.93 411.286 1399.54 410.297C1397.17 409.281 1395.12 407.862 1393.41 406.039C1391.71 404.216 1390.41 402.055 1389.5 399.555C1388.59 397.055 1388.13 394.32 1388.13 391.352V389.711C1388.13 386.273 1388.64 383.214 1389.66 380.531C1390.67 377.823 1392.05 375.531 1393.8 373.656C1395.54 371.781 1397.52 370.362 1399.73 369.398C1401.95 368.435 1404.24 367.953 1406.61 367.953C1409.63 367.953 1412.23 368.474 1414.42 369.516C1416.64 370.557 1418.45 372.016 1419.85 373.891C1421.26 375.74 1422.3 377.927 1422.98 380.453C1423.65 382.953 1423.99 385.688 1423.99 388.656V391.898H1392.43V386H1416.77V385.453C1416.66 383.578 1416.27 381.755 1415.59 379.984C1414.94 378.214 1413.9 376.755 1412.47 375.609C1411.04 374.464 1409.08 373.891 1406.61 373.891C1404.97 373.891 1403.46 374.242 1402.08 374.945C1400.7 375.622 1399.51 376.638 1398.52 377.992C1397.53 379.346 1396.77 381 1396.22 382.953C1395.67 384.906 1395.4 387.159 1395.4 389.711V391.352C1395.4 393.357 1395.67 395.245 1396.22 397.016C1396.79 398.76 1397.61 400.297 1398.68 401.625C1399.77 402.953 1401.09 403.995 1402.62 404.75C1404.19 405.505 1405.96 405.883 1407.94 405.883C1410.49 405.883 1412.65 405.362 1414.42 404.32C1416.19 403.279 1417.74 401.885 1419.07 400.141L1423.45 403.617C1422.53 404.997 1421.38 406.312 1419.97 407.562C1418.56 408.812 1416.83 409.828 1414.77 410.609C1412.74 411.391 1410.33 411.781 1407.55 411.781ZM1439.66 376.859V427.25H1432.39V368.734H1439.03L1439.66 376.859ZM1468.13 389.516V390.336C1468.13 393.409 1467.77 396.26 1467.04 398.891C1466.31 401.495 1465.24 403.76 1463.84 405.688C1462.46 407.615 1460.75 409.112 1458.72 410.18C1456.69 411.247 1454.36 411.781 1451.73 411.781C1449.04 411.781 1446.67 411.339 1444.62 410.453C1442.56 409.568 1440.82 408.279 1439.38 406.586C1437.95 404.893 1436.8 402.862 1435.95 400.492C1435.11 398.122 1434.54 395.453 1434.23 392.484V388.109C1434.54 384.984 1435.12 382.185 1435.98 379.711C1436.84 377.237 1437.98 375.128 1439.38 373.383C1440.82 371.612 1442.55 370.271 1444.58 369.359C1446.61 368.422 1448.95 367.953 1451.61 367.953C1454.27 367.953 1456.62 368.474 1458.68 369.516C1460.74 370.531 1462.47 371.99 1463.88 373.891C1465.28 375.792 1466.34 378.07 1467.04 380.727C1467.77 383.357 1468.13 386.286 1468.13 389.516ZM1460.87 390.336V389.516C1460.87 387.406 1460.65 385.427 1460.2 383.578C1459.76 381.703 1459.07 380.062 1458.13 378.656C1457.22 377.224 1456.05 376.104 1454.62 375.297C1453.18 374.464 1451.48 374.047 1449.5 374.047C1447.68 374.047 1446.09 374.359 1444.73 374.984C1443.41 375.609 1442.27 376.456 1441.34 377.523C1440.4 378.565 1439.63 379.763 1439.03 381.117C1438.46 382.445 1438.03 383.826 1437.74 385.258V395.375C1438.26 397.198 1438.99 398.917 1439.93 400.531C1440.87 402.12 1442.12 403.409 1443.68 404.398C1445.24 405.362 1447.21 405.844 1449.58 405.844C1451.53 405.844 1453.21 405.44 1454.62 404.633C1456.05 403.799 1457.22 402.667 1458.13 401.234C1459.07 399.802 1459.76 398.161 1460.2 396.312C1460.65 394.438 1460.87 392.445 1460.87 390.336Z" fill="white"/>
<path d="M1178 730C1178 718.954 1186.95 710 1198 710H1634C1645.05 710 1654 718.954 1654 730V752C1654 760.284 1647.28 767 1639 767H1193C1184.72 767 1178 760.284 1178 752V730Z" fill="#DC5C5B"/>
<path d="M1419.56 558.5V650H1408V572.938L1384.69 581.438V571L1417.75 558.5H1419.56Z" fill="#363636"/>
<path d="M167 618C167 606.954 175.954 598 187 598H288C299.046 598 308 606.954 308 618V724C308 732.284 301.284 739 293 739H182C173.716 739 167 732.284 167 724V618Z" fill="url(#paint1_linear_28_58)" stroke="#D9D9D9" stroke-width="3"/>
<path d="M499 618C499 606.954 507.954 598 519 598H629C640.046 598 649 606.954 649 618V733C649 741.284 642.284 748 634 748H514C505.716 748 499 741.284 499 733V618Z" fill="#91FA7A"/>
<path d="M157 618C157 606.954 165.954 598 177 598H287C298.046 598 307 606.954 307 618V733C307 741.284 300.284 748 292 748H172C163.716 748 157 741.284 157 733V618Z" fill="#DC5C5B"/>
<path d="M290.5 459.75V429.625C290.5 427.458 290.146 425.604 289.438 424.062C288.729 422.479 287.625 421.25 286.125 420.375C284.667 419.5 282.771 419.062 280.438 419.062C278.438 419.062 276.708 419.417 275.25 420.125C273.792 420.792 272.667 421.771 271.875 423.062C271.083 424.312 270.688 425.792 270.688 427.5H252.688C252.688 424.625 253.354 421.896 254.688 419.312C256.021 416.729 257.958 414.458 260.5 412.5C263.042 410.5 266.062 408.938 269.562 407.812C273.104 406.688 277.062 406.125 281.438 406.125C286.688 406.125 291.354 407 295.438 408.75C299.521 410.5 302.729 413.125 305.062 416.625C307.438 420.125 308.625 424.5 308.625 429.75V458.688C308.625 462.396 308.854 465.438 309.312 467.812C309.771 470.146 310.438 472.188 311.312 473.938V475H293.125C292.25 473.167 291.583 470.875 291.125 468.125C290.708 465.333 290.5 462.542 290.5 459.75ZM292.875 433.812L293 444H282.938C280.562 444 278.5 444.271 276.75 444.812C275 445.354 273.562 446.125 272.438 447.125C271.312 448.083 270.479 449.208 269.938 450.5C269.438 451.792 269.188 453.208 269.188 454.75C269.188 456.292 269.542 457.688 270.25 458.938C270.958 460.146 271.979 461.104 273.312 461.812C274.646 462.479 276.208 462.812 278 462.812C280.708 462.812 283.062 462.271 285.062 461.188C287.062 460.104 288.604 458.771 289.688 457.188C290.812 455.604 291.396 454.104 291.438 452.688L296.188 460.312C295.521 462.021 294.604 463.792 293.438 465.625C292.312 467.458 290.875 469.188 289.125 470.812C287.375 472.396 285.271 473.708 282.812 474.75C280.354 475.75 277.438 476.25 274.062 476.25C269.771 476.25 265.875 475.396 262.375 473.688C258.917 471.938 256.167 469.542 254.125 466.5C252.125 463.417 251.125 459.917 251.125 456C251.125 452.458 251.792 449.312 253.125 446.562C254.458 443.812 256.417 441.5 259 439.625C261.625 437.708 264.896 436.271 268.812 435.312C272.729 434.312 277.271 433.812 282.438 433.812H292.875ZM340.5 420.375V501H322.5V407.375H339.188L340.5 420.375ZM383.312 440.438V441.75C383.312 446.667 382.729 451.229 381.562 455.438C380.438 459.646 378.771 463.312 376.562 466.438C374.354 469.521 371.604 471.938 368.312 473.688C365.062 475.396 361.312 476.25 357.062 476.25C352.938 476.25 349.354 475.417 346.312 473.75C343.271 472.083 340.708 469.75 338.625 466.75C336.583 463.708 334.938 460.188 333.688 456.188C332.438 452.188 331.479 447.896 330.812 443.312V439.875C331.479 434.958 332.438 430.458 333.688 426.375C334.938 422.25 336.583 418.688 338.625 415.688C340.708 412.646 343.25 410.292 346.25 408.625C349.292 406.958 352.854 406.125 356.938 406.125C361.229 406.125 365 406.938 368.25 408.562C371.542 410.188 374.292 412.521 376.5 415.562C378.75 418.604 380.438 422.229 381.562 426.438C382.729 430.646 383.312 435.312 383.312 440.438ZM365.25 441.75V440.438C365.25 437.562 365 434.917 364.5 432.5C364.042 430.042 363.292 427.896 362.25 426.062C361.25 424.229 359.917 422.812 358.25 421.812C356.625 420.771 354.646 420.25 352.312 420.25C349.854 420.25 347.75 420.646 346 421.438C344.292 422.229 342.896 423.375 341.812 424.875C340.729 426.375 339.917 428.167 339.375 430.25C338.833 432.333 338.5 434.688 338.375 437.312V446C338.583 449.083 339.167 451.854 340.125 454.312C341.083 456.729 342.562 458.646 344.562 460.062C346.562 461.479 349.188 462.188 352.438 462.188C354.812 462.188 356.812 461.667 358.438 460.625C360.062 459.542 361.375 458.062 362.375 456.188C363.417 454.312 364.146 452.146 364.562 449.688C365.021 447.229 365.25 444.583 365.25 441.75ZM412.5 420.375V501H394.5V407.375H411.188L412.5 420.375ZM455.312 440.438V441.75C455.312 446.667 454.729 451.229 453.562 455.438C452.438 459.646 450.771 463.312 448.562 466.438C446.354 469.521 443.604 471.938 440.312 473.688C437.062 475.396 433.312 476.25 429.062 476.25C424.938 476.25 421.354 475.417 418.312 473.75C415.271 472.083 412.708 469.75 410.625 466.75C408.583 463.708 406.938 460.188 405.688 456.188C404.438 452.188 403.479 447.896 402.812 443.312V439.875C403.479 434.958 404.438 430.458 405.688 426.375C406.938 422.25 408.583 418.688 410.625 415.688C412.708 412.646 415.25 410.292 418.25 408.625C421.292 406.958 424.854 406.125 428.938 406.125C433.229 406.125 437 406.938 440.25 408.562C443.542 410.188 446.292 412.521 448.5 415.562C450.75 418.604 452.438 422.229 453.562 426.438C454.729 430.646 455.312 435.312 455.312 440.438ZM437.25 441.75V440.438C437.25 437.562 437 434.917 436.5 432.5C436.042 430.042 435.292 427.896 434.25 426.062C433.25 424.229 431.917 422.812 430.25 421.812C428.625 420.771 426.646 420.25 424.312 420.25C421.854 420.25 419.75 420.646 418 421.438C416.292 422.229 414.896 423.375 413.812 424.875C412.729 426.375 411.917 428.167 411.375 430.25C410.833 432.333 410.5 434.688 410.375 437.312V446C410.583 449.083 411.167 451.854 412.125 454.312C413.083 456.729 414.562 458.646 416.562 460.062C418.562 461.479 421.188 462.188 424.438 462.188C426.812 462.188 428.812 461.667 430.438 460.625C432.062 459.542 433.375 458.062 434.375 456.188C435.417 454.312 436.146 452.146 436.562 449.688C437.021 447.229 437.25 444.583 437.25 441.75ZM485.5 379V475H467.438V379H485.5ZM531.5 476.25C526.25 476.25 521.542 475.417 517.375 473.75C513.208 472.042 509.667 469.688 506.75 466.688C503.875 463.688 501.667 460.208 500.125 456.25C498.583 452.25 497.812 448 497.812 443.5V441C497.812 435.875 498.542 431.188 500 426.938C501.458 422.688 503.542 419 506.25 415.875C509 412.75 512.333 410.354 516.25 408.688C520.167 406.979 524.583 406.125 529.5 406.125C534.292 406.125 538.542 406.917 542.25 408.5C545.958 410.083 549.062 412.333 551.562 415.25C554.104 418.167 556.021 421.667 557.312 425.75C558.604 429.792 559.25 434.292 559.25 439.25V446.75H505.5V434.75H541.562V433.375C541.562 430.875 541.104 428.646 540.188 426.688C539.312 424.688 537.979 423.104 536.188 421.938C534.396 420.771 532.104 420.188 529.312 420.188C526.938 420.188 524.896 420.708 523.188 421.75C521.479 422.792 520.083 424.25 519 426.125C517.958 428 517.167 430.208 516.625 432.75C516.125 435.25 515.875 438 515.875 441V443.5C515.875 446.208 516.25 448.708 517 451C517.792 453.292 518.896 455.271 520.312 456.938C521.771 458.604 523.521 459.896 525.562 460.812C527.646 461.729 530 462.188 532.625 462.188C535.875 462.188 538.896 461.562 541.688 460.312C544.521 459.021 546.958 457.083 549 454.5L557.75 464C556.333 466.042 554.396 468 551.938 469.875C549.521 471.75 546.604 473.292 543.188 474.5C539.771 475.667 535.875 476.25 531.5 476.25Z" fill="black"/>
<path d="M167.188 318H148.188L148.312 308.188H167.188C173.688 308.188 179.104 306.833 183.438 304.125C187.771 301.375 191.021 297.542 193.188 292.625C195.396 287.667 196.5 281.875 196.5 275.25V269.688C196.5 264.479 195.875 259.854 194.625 255.812C193.375 251.729 191.542 248.292 189.125 245.5C186.708 242.667 183.75 240.521 180.25 239.062C176.792 237.604 172.812 236.875 168.312 236.875H147.812V227H168.312C174.271 227 179.708 228 184.625 230C189.542 231.958 193.771 234.812 197.312 238.562C200.896 242.271 203.646 246.771 205.562 252.062C207.479 257.312 208.438 263.229 208.438 269.812V275.25C208.438 281.833 207.479 287.771 205.562 293.062C203.646 298.312 200.875 302.792 197.25 306.5C193.667 310.208 189.333 313.062 184.25 315.062C179.208 317.021 173.521 318 167.188 318ZM154.625 227V318H142.562V227H154.625ZM264.688 306.438V271.625C264.688 268.958 264.146 266.646 263.062 264.688C262.021 262.688 260.438 261.146 258.312 260.062C256.188 258.979 253.562 258.438 250.438 258.438C247.521 258.438 244.958 258.938 242.75 259.938C240.583 260.938 238.875 262.25 237.625 263.875C236.417 265.5 235.812 267.25 235.812 269.125H224.25C224.25 266.708 224.875 264.312 226.125 261.938C227.375 259.562 229.167 257.417 231.5 255.5C233.875 253.542 236.708 252 240 250.875C243.333 249.708 247.042 249.125 251.125 249.125C256.042 249.125 260.375 249.958 264.125 251.625C267.917 253.292 270.875 255.812 273 259.188C275.167 262.521 276.25 266.708 276.25 271.75V303.25C276.25 305.5 276.438 307.896 276.812 310.438C277.229 312.979 277.833 315.167 278.625 317V318H266.562C265.979 316.667 265.521 314.896 265.188 312.688C264.854 310.438 264.688 308.354 264.688 306.438ZM266.688 277L266.812 285.125H255.125C251.833 285.125 248.896 285.396 246.312 285.938C243.729 286.438 241.562 287.208 239.812 288.25C238.062 289.292 236.729 290.604 235.812 292.188C234.896 293.729 234.438 295.542 234.438 297.625C234.438 299.75 234.917 301.688 235.875 303.438C236.833 305.188 238.271 306.583 240.188 307.625C242.146 308.625 244.542 309.125 247.375 309.125C250.917 309.125 254.042 308.375 256.75 306.875C259.458 305.375 261.604 303.542 263.188 301.375C264.812 299.208 265.688 297.104 265.812 295.062L270.75 300.625C270.458 302.375 269.667 304.312 268.375 306.438C267.083 308.562 265.354 310.604 263.188 312.562C261.062 314.479 258.521 316.083 255.562 317.375C252.646 318.625 249.354 319.25 245.688 319.25C241.104 319.25 237.083 318.354 233.625 316.562C230.208 314.771 227.542 312.375 225.625 309.375C223.75 306.333 222.812 302.938 222.812 299.188C222.812 295.562 223.521 292.375 224.938 289.625C226.354 286.833 228.396 284.521 231.062 282.688C233.729 280.812 236.938 279.396 240.688 278.438C244.438 277.479 248.625 277 253.25 277H266.688ZM312.438 311L331.25 250.375H343.625L316.5 328.438C315.875 330.104 315.042 331.896 314 333.812C313 335.771 311.708 337.625 310.125 339.375C308.542 341.125 306.625 342.542 304.375 343.625C302.167 344.75 299.521 345.312 296.438 345.312C295.521 345.312 294.354 345.188 292.938 344.938C291.521 344.688 290.521 344.479 289.938 344.312L289.875 334.938C290.208 334.979 290.729 335.021 291.438 335.062C292.188 335.146 292.708 335.188 293 335.188C295.625 335.188 297.854 334.833 299.688 334.125C301.521 333.458 303.062 332.312 304.312 330.688C305.604 329.104 306.708 326.917 307.625 324.125L312.438 311ZM298.625 250.375L316.188 302.875L319.188 315.062L310.875 319.312L286 250.375H298.625ZM422.562 226.5V318H411V240.938L387.688 249.438V239L420.75 226.5H422.562ZM489.5 222H501.125V304.875L500.125 318H489.5V222ZM546.812 283.625V284.938C546.812 289.854 546.229 294.417 545.062 298.625C543.896 302.792 542.188 306.417 539.938 309.5C537.688 312.583 534.938 314.979 531.688 316.688C528.438 318.396 524.708 319.25 520.5 319.25C516.208 319.25 512.438 318.521 509.188 317.062C505.979 315.562 503.271 313.417 501.062 310.625C498.854 307.833 497.083 304.458 495.75 300.5C494.458 296.542 493.562 292.083 493.062 287.125V281.375C493.562 276.375 494.458 271.896 495.75 267.938C497.083 263.979 498.854 260.604 501.062 257.812C503.271 254.979 505.979 252.833 509.188 251.375C512.396 249.875 516.125 249.125 520.375 249.125C524.625 249.125 528.396 249.958 531.688 251.625C534.979 253.25 537.729 255.583 539.938 258.625C542.188 261.667 543.896 265.312 545.062 269.562C546.229 273.771 546.812 278.458 546.812 283.625ZM535.188 284.938V283.625C535.188 280.25 534.875 277.083 534.25 274.125C533.625 271.125 532.625 268.5 531.25 266.25C529.875 263.958 528.062 262.167 525.812 260.875C523.562 259.542 520.792 258.875 517.5 258.875C514.583 258.875 512.042 259.375 509.875 260.375C507.75 261.375 505.938 262.729 504.438 264.438C502.938 266.104 501.708 268.021 500.75 270.188C499.833 272.312 499.146 274.521 498.688 276.812V291.875C499.354 294.792 500.438 297.604 501.938 300.312C503.479 302.979 505.521 305.167 508.062 306.875C510.646 308.583 513.833 309.438 517.625 309.438C520.75 309.438 523.417 308.812 525.625 307.562C527.875 306.271 529.688 304.5 531.062 302.25C532.479 300 533.521 297.396 534.188 294.438C534.854 291.479 535.188 288.312 535.188 284.938ZM602.812 302.375V250.375H614.438V318H603.375L602.812 302.375ZM605 288.125L609.812 288C609.812 292.5 609.333 296.667 608.375 300.5C607.458 304.292 605.958 307.583 603.875 310.375C601.792 313.167 599.062 315.354 595.688 316.938C592.312 318.479 588.208 319.25 583.375 319.25C580.083 319.25 577.062 318.771 574.312 317.812C571.604 316.854 569.271 315.375 567.312 313.375C565.354 311.375 563.833 308.771 562.75 305.562C561.708 302.354 561.188 298.5 561.188 294V250.375H572.75V294.125C572.75 297.167 573.083 299.688 573.75 301.688C574.458 303.646 575.396 305.208 576.562 306.375C577.771 307.5 579.104 308.292 580.562 308.75C582.062 309.208 583.604 309.438 585.188 309.438C590.104 309.438 594 308.5 596.875 306.625C599.75 304.708 601.812 302.146 603.062 298.938C604.354 295.688 605 292.083 605 288.125ZM651.062 311L669.875 250.375H682.25L655.125 328.438C654.5 330.104 653.667 331.896 652.625 333.812C651.625 335.771 650.333 337.625 648.75 339.375C647.167 341.125 645.25 342.542 643 343.625C640.792 344.75 638.146 345.312 635.062 345.312C634.146 345.312 632.979 345.188 631.562 344.938C630.146 344.688 629.146 344.479 628.562 344.312L628.5 334.938C628.833 334.979 629.354 335.021 630.062 335.062C630.812 335.146 631.333 335.188 631.625 335.188C634.25 335.188 636.479 334.833 638.312 334.125C640.146 333.458 641.688 332.312 642.938 330.688C644.229 329.104 645.333 326.917 646.25 324.125L651.062 311ZM637.25 250.375L654.812 302.875L657.812 315.062L649.5 319.312L624.625 250.375H637.25Z" fill="black"/>
<defs>
<filter id="filter0_d_28_58" x="1141.2" y="257.2" width="565.6" height="565.6" filterUnits="userSpaceOnUse" color-interpolation-filters="sRGB">
<feFlood flood-opacity="0" result="BackgroundImageFix"/>
<feColorMatrix in="SourceAlpha" type="matrix" values="0 0 0 0 0 0 0 0 0 0 0 0 0 0 0 0 0 0 127 0" result="hardAlpha"/>
<feMorphology radius="7" operator="dilate" in="SourceAlpha" result="effect1_dropShadow_28_58"/>
<feOffset dx="7" dy="9"/>
<feGaussianBlur stdDeviation="3.9"/>
<feComposite in2="hardAlpha" operator="out"/>
<feColorMatrix type="matrix" values="0 0 0 0 0 0 0 0 0 0 0 0 0 0 0 0 0 0 0.25 0"/>
<feBlend mode="normal" in2="BackgroundImageFix" result="effect1_dropShadow_28_58"/>
<feBlend mode="normal" in="SourceGraphic" in2="effect1_dropShadow_28_58" result="shape"/>
</filter>
<filter id="filter1_di_28_58" x="1143" y="258" width="546" height="222" filterUnits="userSpaceOnUse" color-interpolation-filters="sRGB">
<feFlood flood-opacity="0" result="BackgroundImageFix"/>
<feColorMatrix in="SourceAlpha" type="matrix" values="0 0 0 0 0 0 0 0 0 0 0 0 0 0 0 0 0 0 127 0" result="hardAlpha"/>
<feOffset dy="10"/>
<feGaussianBlur stdDeviation="2"/>
<feComposite in2="hardAlpha" operator="out"/>
<feColorMatrix type="matrix" values="0 0 0 0 0 0 0 0 0 0 0 0 0 0 0 0 0 0 0.6 0"/>
<feBlend mode="normal" in2="BackgroundImageFix" result="effect1_dropShadow_28_58"/>
<feBlend mode="normal" in="SourceGraphic" in2="effect1_dropShadow_28_58" result="shape"/>
<feColorMatrix in="SourceAlpha" type="matrix" values="0 0 0 0 0 0 0 0 0 0 0 0 0 0 0 0 0 0 127 0" result="hardAlpha"/>
<feOffset dy="-4"/>
<feGaussianBlur stdDeviation="5"/>
<feComposite in2="hardAlpha" operator="arithmetic" k2="-1" k3="1"/>
<feColorMatrix type="matrix" values="0 0 0 0 0 0 0 0 0 0 0 0 0 0 0 0 0 0 0.6 0"/>
<feBlend mode="normal" in2="shape" result="effect2_innerShadow_28_58"/>
</filter>
<filter id="filter2_d_28_58" x="1264.69" y="212" width="45.6736" height="115.542" filterUnits="userSpaceOnUse" color-interpolation-filters="sRGB">
<feFlood flood-opacity="0" result="BackgroundImageFix"/>
<feColorMatrix in="SourceAlpha" type="matrix" values="0 0 0 0 0 0 0 0 0 0 0 0 0 0 0 0 0 0 127 0" result="hardAlpha"/>
<feOffset dx="2" dy="4"/>
<feGaussianBlur stdDeviation="1"/>
<feComposite in2="hardAlpha" operator="out"/>
<feColorMatrix type="matrix" values="0 0 0 0 0 0 0 0 0 0 0 0 0 0 0 0 0 0 0.7 0"/>
<feBlend mode="normal" in2="BackgroundImageFix" result="effect1_dropShadow_28_58"/>
<feBlend mode="normal" in="SourceGraphic" in2="effect1_dropShadow_28_58" result="shape"/>
</filter>
<filter id="filter3_d_28_58" x="1524.26" y="212" width="45.6733" height="115.542" filterUnits="userSpaceOnUse" color-interpolation-filters="sRGB">
<feFlood flood-opacity="0" result="BackgroundImageFix"/>
<feColorMatrix in="SourceAlpha" type="matrix" values="0 0 0 0 0 0 0 0 0 0 0 0 0 0 0 0 0 0 127 0" result="hardAlpha"/>
<feOffset dx="2" dy="4"/>
<feGaussianBlur stdDeviation="1"/>
<feComposite in2="hardAlpha" operator="out"/>
<feColorMatrix type="matrix" values="0 0 0 0 0 0 0 0 0 0 0 0 0 0 0 0 0 0 0.7 0"/>
<feBlend mode="normal" in2="BackgroundImageFix" result="effect1_dropShadow_28_58"/>
<feBlend mode="normal" in="SourceGraphic" in2="effect1_dropShadow_28_58" result="shape"/>
</filter>
<linearGradient id="paint0_linear_28_58" x1="503" y1="668" x2="652.5" y2="668" gradientUnits="userSpaceOnUse">
<stop offset="0.5" stop-color="#D9D9D9"/>
<stop offset="1" stop-color="#A7A7A7" stop-opacity="0.8"/>
</linearGradient>
<linearGradient id="paint1_linear_28_58" x1="167" y1="668" x2="316.5" y2="668" gradientUnits="userSpaceOnUse">
<stop offset="0.5" stop-color="#D9D9D9"/>
<stop offset="1" stop-color="#A7A7A7" stop-opacity="0.8"/>
</linearGradient>
</defs>
</svg>
